<svg xmlns="http://www.w3.org/2000/svg" viewBox="0 0 253.88 43.76">
  <defs>
    <style>
      .cls-1 {
        fill: #57b587;
      }
    </style>
  </defs>
  <g id="Layer_2" data-name="Layer 2">
    <g id="OBJECTS">
      <path
        class="cls-1"
        d="M136.69,19.14s-4-1.79-5.9,0c0,0,3.71-.55,5.9,2.2,2.2-2.75,5.91-2.2,5.91-2.2C140.68,17.35,136.69,19.14,136.69,19.14Z"
      />
      <path
        class="cls-1"
        d="M30.8,1s-5-2.25-7.42,0c0,0,4.66-.69,7.42,2.76C33.57.31,38.23,1,38.23,1,35.81-1.25,30.8,1,30.8,1Z"
      />
      <path
        class="cls-1"
        d="M187.66,40.09s-6.66-3-9.87,0c0,0,6.19-.92,9.87,3.67,3.67-4.59,9.86-3.67,9.86-3.67C194.31,37.11,187.66,40.09,187.66,40.09Z"
      />
      <path
        class="cls-1"
        d="M161.27,22.85s-2.34-1.05-3.47,0a4,4,0,0,1,3.47,1.29,4,4,0,0,1,3.48-1.29C163.62,21.8,161.27,22.85,161.27,22.85Z"
      />
      <path
        class="cls-1"
        d="M250.64,22.88s-2.19-1-3.24,0a3.75,3.75,0,0,1,3.24,1.2,3.75,3.75,0,0,1,3.24-1.2C252.83,21.9,250.64,22.88,250.64,22.88Z"
      />
      <path
        class="cls-1"
        d="M78.92,15.93s-2.19-1-3.24,0a3.74,3.74,0,0,1,3.24,1.21,3.73,3.73,0,0,1,3.24-1.21C81.1,15,78.92,15.93,78.92,15.93Z"
      />
      <path
        class="cls-1"
        d="M3.47,38.35S1.13,37.3,0,38.35a4,4,0,0,1,3.47,1.29,4,4,0,0,1,3.47-1.29C5.81,37.3,3.47,38.35,3.47,38.35Z"
      />
    </g>
  </g>
</svg>
