<svg xmlns="http://www.w3.org/2000/svg" viewBox="0 0 663.67 169.67">
  <defs>
    <style>
      .cls-1 {
        opacity: 0.67;
      }
      .cls-2 {
        fill: #fff;
        opacity: 0.43;
      }
    </style>
  </defs>
  <g id="Layer_2" data-name="Layer 2">
    <g id="OBJECTS">
      <g class="cls-1">
        <path
          class="cls-2"
          d="M0,0S21.67,1.33,47.67,5.33,127,6.67,147.67,10,173,21.33,195,24s65.33,6,76,14.67,18,16.66,36.67,18.66,40,1.34,48,6.67,31.49,2,25.41,7-59.41-3-73.41,3,4.66,16,17.66,18.65,71.67-6,89.67,0,38.67,11.32,63.33,10.65,37.72-5.71,55.34.06,66.1,3.41,84.66,7.94,45.34,3.34,45.34,3.34v55H0Z"
        />
      </g>
    </g>
  </g>
</svg>
