<svg xmlns="http://www.w3.org/2000/svg" viewBox="0 0 1920 430.59"><defs><style>.cls-1,.cls-2{fill:#fff;}.cls-1{opacity:0.43;}.cls-2{opacity:0.58;}</style></defs><g id="Layer_2" data-name="Layer 2"><g id="layer-6"><path class="cls-1" d="M0,32.59S47.27,35.72,104,45.1s173.09,3.13,218.18,10.95,55.27,26.59,103.27,32.84S568,103,591.27,123.3s39.28,39.09,80,43.78,87.28,3.13,104.73,15.64,68.71,4.69,55.45,16.42-129.63-6.91-160.18,7.1,10.18,37.54,38.55,43.76,156.36-14,195.63,0,84.37,26.55,138.19,25,82.29-13.41,120.72.13,144.24,8,184.73,18.63c37.61,9.87,235.6,44.06,256.46,47.44a46.51,46.51,0,0,1,4.85,1.06L1919,430.59H0Z"/><path class="cls-2" d="M748.79,59.05s185.77,7.51,230.4,6.44,83.78-7.52,132-6.44,90.15,4.28,119.29,3.21S1297,58.93,1297,58.93s-44.62-10.61-72.85-16-46.44-2.15-73.76-14S1125.8,10.75,1093,12.9s-23.68,10.73-58.28,5.37-55.55-24.69-85.6-16.1-47.36,20.39-86.52,21.46S769.74,39.73,748.79,59.05Z"/><path class="cls-2" d="M1920,131.59H1703.57c-57.09,0-94,13-119.78,9.09s-78-1.14-83.2.72-75.76,0-75.76,0,44.78-30.57,67.17-30.57,100.75-6.49,139.93-15.57,50.38-40.23,95.15-35,61.57,19.46,107.47,10.38S1920,51.13,1920,51.13Z"/></g></g></svg>