<svg xmlns="http://www.w3.org/2000/svg" xmlns:xlink="http://www.w3.org/1999/xlink" viewBox="0 0 1920 396"><defs><style>.cls-1{isolation:isolate;}.cls-2{fill:url(#linear-gradient);}.cls-3{fill:#1e0b53;opacity:0.59;}.cls-3,.cls-4{mix-blend-mode:overlay;}.cls-4{fill:#fffdf6;opacity:0.37;}.cls-5{fill:#00b585;}</style><linearGradient id="linear-gradient" x1="960" y1="484.44" x2="960" y2="40.23" gradientUnits="userSpaceOnUse"><stop offset="0" stop-color="#fff8cf"/><stop offset="0.14" stop-color="#f6f7cc"/><stop offset="0.37" stop-color="#def5c2"/><stop offset="0.66" stop-color="#b6f2b3"/><stop offset="1" stop-color="#80ee9e"/></linearGradient></defs><g class="cls-1"><g id="Layer_2" data-name="Layer 2"><g id="layer-5"><path class="cls-2" d="M1137,256.89s-30.06-38.6-37.79-60.26-14.6-59.31-37.78-68.73-51.21-21.65-51.21-21.65L973,76.12,955.8,62H935.19s-10.31,10.36-24.91,11.3S856.18,95,856.18,95s-38.64,29.19-45.51,33-59.26,20.72-59.26,20.72l-77.29,27.3-103.91,64L0,396H1920Z"/><path class="cls-3" d="M1000.88,115.49c14.17,9.89,50.24,45.2,47.67,62.14s-38.33,45.19-38.33,45.19l-15.78,41-67,35.3L817.74,395l1102.26.77L1137,257.66s-30.06-38.6-37.79-60.26-14.6-59.31-37.78-68.73S1010.22,107,1010.22,107L973,76.89S986.71,105.61,1000.88,115.49Z"/><path class="cls-4" d="M827,146.73,853.6,127.9,881.94,95l39.86-24.4a36.61,36.61,0,0,1-11.52,2.75c-14.6.94-54.1,21.65-54.1,21.65s-38.64,29.19-45.51,33-59.26,20.72-59.26,20.72l-77.29,27.3,46.37-3.77Z"/><path class="cls-5" d="M1015.22,58.17s-8.63-5.43-12.79,0c0,0,8-1.67,12.79,6.68C1020,56.5,1028,58.17,1028,58.17,1023.84,52.74,1015.22,58.17,1015.22,58.17Z"/><path class="cls-5" d="M785.9,3s-10.85-6.82-16.09,0c0,0,10.1-2.1,16.09,8.4C791.88.93,802,3,802,3,796.75-3.79,785.9,3,785.9,3Z"/><path class="cls-5" d="M1125.58,121.84s-14.41-9.06-21.36,0c0,0,13.41-2.78,21.36,11.16,8-13.94,21.36-11.16,21.36-11.16C1140,112.78,1125.58,121.84,1125.58,121.84Z"/><path class="cls-5" d="M1068.45,69.45s-5.07-3.19-7.52,0a7.27,7.27,0,0,1,7.52,3.92,7.25,7.25,0,0,1,7.51-3.92C1073.52,66.26,1068.45,69.45,1068.45,69.45Z"/><path class="cls-5" d="M1262,69.53s-4.73-3-7,0a8.55,8.55,0,0,0,14,0C1266.71,66.55,1262,69.53,1262,69.53Z"/><path class="cls-5" d="M890.1,48.43s-4.74-3-7,0a6.78,6.78,0,0,1,7,3.66,6.76,6.76,0,0,1,7-3.66C894.83,45.45,890.1,48.43,890.1,48.43Z"/><path class="cls-5" d="M726.7,116.56s-5.07-3.19-7.51,0a7.25,7.25,0,0,1,7.51,3.93,7.26,7.26,0,0,1,7.52-3.93C731.77,113.37,726.7,116.56,726.7,116.56Z"/></g></g></g></svg>