<svg xmlns="http://www.w3.org/2000/svg" xmlns:xlink="http://www.w3.org/1999/xlink" viewBox="0 0 1922 607"><defs><style>.cls-1{isolation:isolate;}.cls-2{fill:url(#linear-gradient);}.cls-11,.cls-3,.cls-9{fill:#1e0b53;}.cls-11,.cls-3,.cls-4,.cls-9{mix-blend-mode:overlay;}.cls-3{opacity:0.59;}.cls-4{fill:#fffdf6;opacity:0.37;}.cls-5{fill:#00b585;}.cls-6{fill:url(#linear-gradient-2);}.cls-7{fill:#497278;}.cls-8{fill:url(#linear-gradient-3);}.cls-9{opacity:0.32;}.cls-10{fill:url(#linear-gradient-4);}.cls-11{opacity:0.08;}</style><linearGradient id="linear-gradient" x1="960" y1="515.02" x2="960" y2="42.77" gradientUnits="userSpaceOnUse"><stop offset="0" stop-color="#fff8cf"/><stop offset="0.14" stop-color="#f6f7cc"/><stop offset="0.37" stop-color="#def5c2"/><stop offset="0.66" stop-color="#b6f2b3"/><stop offset="1" stop-color="#80ee9e"/></linearGradient><linearGradient id="linear-gradient-2" x1="1355" y1="581.71" x2="1355" y2="-51.71" gradientUnits="userSpaceOnUse"><stop offset="0" stop-color="#d8f5bf"/><stop offset="0.16" stop-color="#bceeb8"/><stop offset="0.49" stop-color="#75dca8"/><stop offset="0.98" stop-color="#05c08d"/><stop offset="1" stop-color="#00bf8c"/></linearGradient><linearGradient id="linear-gradient-3" x1="676" y1="763.19" x2="676" y2="193.54" gradientUnits="userSpaceOnUse"><stop offset="0" stop-color="#d8f5bf"/><stop offset="0.16" stop-color="#bce8b7"/><stop offset="0.49" stop-color="#75c5a1"/><stop offset="0.98" stop-color="#058e7e"/><stop offset="1" stop-color="#008c7d"/></linearGradient><linearGradient id="linear-gradient-4" x1="676" y1="757.3" x2="676" y2="411.47" gradientUnits="userSpaceOnUse"><stop offset="0" stop-color="#9bcdab"/><stop offset="0.49" stop-color="#51a496"/><stop offset="1" stop-color="#00777e"/></linearGradient></defs><g class="cls-1"><g id="Layer_2" data-name="Layer 2"><g id="layer-3"><g id="back_mountain"><path class="cls-2" d="M1137,273.11s-30.06-41-37.79-64.06S1084.61,146,1061.43,136s-51.21-23-51.21-23L973,80.93l-17.17-15H935.19s-10.31,11-24.91,12-54.1,23-54.1,23-38.64,31-45.51,35-59.26,22-59.26,22l-77.29,29L570.21,255.09,0,421H1920Z"/><path class="cls-3" d="M1000.88,122.78c14.17,10.51,50.24,48.05,47.67,66.07s-38.33,48-38.33,48l-15.78,43.54-67,37.54-109.72,102,1102.26.82L1137,273.93s-30.06-41-37.79-64.06-14.6-63.06-37.78-73.07-51.21-23-51.21-23L973,81.75S986.71,112.27,1000.88,122.78Z"/><path class="cls-4" d="M827,156l26.62-20,28.34-35L921.8,75a35.07,35.07,0,0,1-11.52,2.92c-14.6,1-54.1,23-54.1,23s-38.64,31-45.51,35-59.26,22-59.26,22l-77.29,29,46.37-4Z"/><path class="cls-5" d="M1015.22,61.84s-8.63-5.77-12.79,0c0,0,8-1.77,12.79,7.1,4.76-8.87,12.79-7.1,12.79-7.1C1023.84,56.07,1015.22,61.84,1015.22,61.84Z"/><path class="cls-5" d="M785.9,3.23s-10.85-7.26-16.09,0c0,0,10.1-2.24,16.09,8.93C791.88,1,802,3.23,802,3.23,796.75-4,785.9,3.23,785.9,3.23Z"/><path class="cls-5" d="M1125.58,129.54s-14.41-9.64-21.36,0c0,0,13.41-3,21.36,11.86,8-14.83,21.36-11.86,21.36-11.86C1140,119.9,1125.58,129.54,1125.58,129.54Z"/><path class="cls-5" d="M1068.45,73.83s-5.07-3.39-7.52,0c0,0,4.72-1,7.52,4.17,2.79-5.21,7.51-4.17,7.51-4.17C1073.52,70.44,1068.45,73.83,1068.45,73.83Z"/><path class="cls-5" d="M1262,73.92s-4.73-3.17-7,0c0,0,4.41-1,7,3.9,2.61-4.87,7-3.9,7-3.9C1266.71,70.75,1262,73.92,1262,73.92Z"/><path class="cls-5" d="M890.1,51.49s-4.74-3.17-7,0c0,0,4.4-1,7,3.89,2.61-4.87,7-3.89,7-3.89C894.83,48.32,890.1,51.49,890.1,51.49Z"/><path class="cls-5" d="M726.7,123.92s-5.07-3.39-7.51,0c0,0,4.72-1,7.51,4.17,2.8-5.21,7.52-4.17,7.52-4.17C731.77,120.53,726.7,123.92,726.7,123.92Z"/></g><g id="middle_mountain"><path class="cls-6" d="M1919.81,4s-88.58,59.4-115,74.73-86.69,13.41-86.69,13.41h-28.27l-30.15-21.08-58.43,40.24-77.26,57.49-79.16-61.32-13.19-23-30.15,5.75L1247,180.28l-24.5,19.17h-43.34L1128.28,188,977.52,297.17,790,414.05V601.83l1130-.29Z"/><path class="cls-3" d="M1423.22,195.13l-38.16,30.18L1354,281.36v46.15l-39.57,68.82-25.92,46.46L1385.06,346l60.5-92.93,78.49-84.31-79.16-61.32C1450.08,146.27,1423.22,195.13,1423.22,195.13Z"/><path class="cls-3" d="M1804.85,78.73a55.13,55.13,0,0,1-7.15,3.42s-35.25,45.44-60.7,65.56-101.76,76.17-101.76,76.17-46.65,79-77.74,97.72-127.21,92.45-127.21,92.45L1294.6,601.83l625.4-.29L1919.81,4S1831.23,63.4,1804.85,78.73Z"/></g><g id="forest-group"><polygon class="cls-7" points="983.93 436.87 975.32 427.05 981.75 429.25 979.66 421.94 972.79 414.1 977.93 415.86 977.33 413.76 972.45 408.2 976.1 409.45 971 391.59 971 391.58 966.89 386.9 969.96 387.95 965.21 371.29 959.31 394.93 963.01 393.66 958.28 399.06 953.67 417.52 959.48 415.54 952.06 424 950.49 430.29 958.13 427.68 948.36 438.81 947.32 443 964.95 443 985.68 443 983.93 436.87"/><polygon class="cls-7" points="932.93 392.87 924.32 383.05 930.75 385.25 928.66 377.94 921.79 370.1 926.93 371.86 926.33 369.76 921.45 364.2 925.1 365.45 920 347.59 920 347.58 915.89 342.9 918.96 343.95 914.21 327.29 908.31 350.93 912.01 349.66 907.28 355.06 902.67 373.52 908.48 371.54 901.06 380 899.49 386.29 907.13 383.68 897.36 394.81 896.32 399 913.95 399 934.68 399 932.93 392.87"/><polygon class="cls-7" points="777.93 338.87 769.32 329.05 775.75 331.25 773.66 323.94 766.79 316.1 771.93 317.86 771.33 315.76 766.45 310.2 770.1 311.45 765 293.59 765 293.58 760.89 288.9 763.96 289.95 759.21 273.29 753.31 296.93 757.01 295.66 752.28 301.06 747.67 319.52 753.48 317.54 746.06 326 744.49 332.29 752.13 329.68 742.36 340.81 741.32 345 758.95 345 779.68 345 777.93 338.87"/><polygon class="cls-7" points="1070.93 470.87 1062.32 461.05 1068.75 463.25 1066.66 455.94 1059.79 448.1 1064.93 449.86 1064.33 447.76 1059.45 442.2 1063.1 443.45 1058 425.59 1058 425.58 1053.89 420.9 1056.96 421.95 1052.21 405.29 1046.31 428.93 1050.01 427.66 1045.28 433.06 1040.67 451.52 1046.47 449.54 1039.06 458 1037.49 464.29 1045.13 461.68 1035.36 472.81 1034.32 477 1051.95 477 1072.68 477 1070.93 470.87"/><polygon class="cls-7" points="1080.93 461.87 1072.32 452.05 1078.75 454.25 1076.66 446.94 1069.79 439.1 1074.93 440.86 1074.33 438.76 1069.45 433.2 1073.1 434.45 1068 416.59 1068 416.58 1063.89 411.9 1066.96 412.95 1062.21 396.29 1056.31 419.93 1060.01 418.66 1055.28 424.06 1050.67 442.52 1056.47 440.54 1049.06 449 1047.49 455.29 1055.13 452.68 1045.36 463.81 1044.32 468 1061.95 468 1082.68 468 1080.93 461.87"/><polygon class="cls-7" points="1096.93 491.87 1088.32 482.05 1094.75 484.25 1092.66 476.94 1085.79 469.1 1090.93 470.86 1090.33 468.76 1085.45 463.2 1089.1 464.45 1084 446.59 1084 446.58 1079.89 441.9 1082.96 442.95 1078.21 426.29 1072.31 449.93 1076.01 448.66 1071.28 454.06 1066.67 472.52 1072.47 470.54 1065.06 479 1063.49 485.29 1071.13 482.68 1061.36 493.81 1060.32 498 1077.95 498 1098.68 498 1096.93 491.87"/><polygon class="cls-7" points="1123.93 463.87 1115.32 454.05 1121.75 456.25 1119.66 448.94 1112.79 441.1 1117.93 442.86 1117.33 440.76 1112.45 435.2 1116.1 436.45 1111 418.59 1111 418.58 1106.89 413.9 1109.96 414.95 1105.21 398.29 1099.31 421.93 1103.01 420.66 1098.28 426.06 1093.67 444.52 1099.47 442.54 1092.06 451 1090.49 457.29 1098.13 454.68 1088.36 465.81 1087.32 470 1104.95 470 1125.68 470 1123.93 463.87"/><polygon class="cls-7" points="1142.93 467.87 1134.32 458.05 1140.75 460.25 1138.66 452.94 1131.79 445.1 1136.93 446.86 1136.33 444.76 1131.45 439.2 1135.1 440.45 1130 422.59 1130 422.58 1125.89 417.9 1128.96 418.95 1124.21 402.29 1118.31 425.93 1122.01 424.66 1112.28 428.06 1107.67 446.52 1118.47 446.54 1111.06 455 1109.49 461.29 1117.13 458.68 1107.36 469.81 1106.32 474 1123.95 474 1144.68 474 1142.93 467.87"/><polygon class="cls-7" points="759.93 338.87 751.32 329.05 757.75 331.25 755.66 323.94 748.79 316.1 753.93 317.86 753.33 315.76 748.45 310.2 752.1 311.45 747 293.59 747 293.58 742.89 288.9 745.96 289.95 741.21 273.29 735.31 296.93 739.01 295.66 734.28 301.06 729.67 319.52 735.48 317.54 728.06 326 726.49 332.29 734.13 329.68 724.36 340.81 723.32 345 740.95 345 761.68 345 759.93 338.87"/><polygon class="cls-7" points="853.52 389.23 844.9 379.41 851.34 381.61 849.25 374.3 842.38 366.45 847.52 368.21 846.92 366.12 842.04 360.55 845.69 361.8 840.59 343.94 840.59 343.94 836.48 339.25 839.55 340.3 834.79 323.64 828.9 347.28 832.6 346.02 827.87 351.42 823.26 369.88 829.06 367.89 821.65 376.35 820.08 382.64 827.72 380.03 817.95 391.16 816.9 395.35 834.54 395.35 855.26 395.35 853.52 389.23"/><polygon class="cls-7" points="871.34 394.29 862.72 384.47 869.16 386.67 867.07 379.36 860.2 371.51 865.34 373.27 864.74 371.18 859.86 365.61 863.51 366.86 858.41 349 858.41 349 854.3 344.31 857.37 345.36 852.62 328.7 846.72 352.34 850.42 351.08 845.69 356.48 841.08 374.94 846.88 372.95 839.47 381.41 837.9 387.7 845.54 385.09 835.77 396.22 834.73 400.41 852.36 400.41 873.09 400.41 871.34 394.29"/><polygon class="cls-7" points="899.28 379.11 890.66 369.29 897.1 371.49 895.01 364.18 888.14 356.33 893.28 358.09 892.68 356 887.8 350.43 891.45 351.68 886.35 333.82 886.35 333.82 882.24 329.13 885.31 330.18 880.55 313.52 874.66 337.16 878.36 335.9 873.63 341.3 869.02 359.76 874.82 357.77 867.41 366.23 865.84 372.52 873.48 369.91 863.71 381.04 862.66 385.23 880.3 385.23 901.02 385.23 899.28 379.11"/><polygon class="cls-7" points="1000.93 439.87 992.32 430.05 998.75 432.25 996.66 424.94 989.79 417.1 994.93 418.86 994.33 416.76 989.45 411.2 993.1 412.45 988 394.59 988 394.58 983.89 389.9 986.96 390.95 982.21 374.29 976.31 397.93 980.01 396.66 975.28 402.06 970.67 420.52 976.48 418.54 969.06 427 967.49 433.29 975.13 430.68 965.36 441.81 964.32 446 981.95 446 1002.68 446 1000.93 439.87"/><polygon class="cls-7" points="685.93 302.87 677.32 293.05 683.75 295.25 681.66 287.94 674.79 280.1 679.93 281.86 679.33 279.76 674.45 274.2 678.1 275.45 673 257.59 673 257.58 668.89 252.9 671.96 253.95 667.21 237.29 661.31 260.93 665.01 259.66 660.28 265.06 655.67 283.52 661.48 281.54 654.06 290 652.49 296.29 660.13 293.68 650.36 304.81 649.32 309 666.95 309 687.68 309 685.93 302.87"/><polygon class="cls-7" points="702.64 289.63 694.9 282.34 701.06 284.08 698.71 275.84 693.07 270.53 697.55 271.8 690.7 247.8 690.7 247.79 687.17 244.47 689.98 245.26 685.56 229.8 679.17 255.42 684.12 254.03 678.1 259.69 676.32 266.83 681.68 265.32 675.17 271.45 668.88 296.68 677.81 294.16 666.95 304.38 666.95 304.39 663.97 316.36 685.56 316.36 710.27 316.36 702.64 289.63"/><polygon class="cls-7" points="799.28 356.11 789.09 346.52 797.19 348.81 794.1 337.96 786.68 330.97 792.58 332.64 783.56 301.06 783.56 301.06 778.92 296.68 782.61 297.73 776.8 277.37 768.39 311.1 774.9 309.26 766.99 316.71 764.64 326.11 771.69 324.12 763.13 332.18 754.84 365.38 766.61 362.06 752.31 375.52 752.31 375.52 748.38 391.28 776.8 391.28 809.31 391.28 799.28 356.11"/><polygon class="cls-7" points="917.68 389.13 907.49 379.54 915.59 381.82 912.5 370.98 905.08 363.99 910.98 365.66 901.96 334.08 901.96 334.08 897.32 329.7 901.01 330.75 895.2 310.39 886.79 344.12 893.3 342.28 885.38 349.73 883.04 359.13 890.09 357.14 881.53 365.2 873.24 398.4 885 395.08 870.71 408.54 870.71 408.54 866.78 424.3 895.2 424.3 927.71 424.3 917.68 389.13"/><polygon class="cls-7" points="834.44 366.41 824.25 356.82 832.35 359.11 829.25 348.26 821.84 341.27 827.74 342.94 818.72 311.36 818.72 311.36 814.08 306.98 817.77 308.03 811.96 287.67 803.55 321.39 810.06 319.56 802.14 327.01 799.8 336.4 806.85 334.42 798.29 342.48 790 375.68 801.76 372.36 787.47 385.82 787.47 385.82 783.54 401.58 811.96 401.58 844.47 401.58 834.44 366.41"/><polygon class="cls-7" points="955.74 400.07 945.55 390.48 953.65 392.76 950.55 381.92 943.14 374.93 949.04 376.6 940.02 345.02 940.02 345.02 935.38 340.64 939.07 341.69 933.26 321.33 924.85 355.06 931.36 353.22 923.45 360.67 921.1 370.06 928.15 368.08 919.59 376.14 911.3 409.34 923.07 406.02 908.77 419.48 908.77 419.48 904.85 435.24 933.26 435.24 965.77 435.24 955.74 400.07"/><polygon class="cls-7" points="1034.64 426.85 1024.45 417.26 1032.55 419.55 1029.45 408.7 1022.04 401.71 1027.94 403.38 1018.92 371.8 1018.92 371.8 1014.28 367.42 1017.97 368.47 1012.16 348.11 1003.75 381.83 1010.26 380 1002.35 387.45 1000 396.85 1007.05 394.86 998.49 402.92 990.2 436.12 1001.97 432.8 987.67 446.26 987.67 446.26 983.75 462.02 1012.16 462.02 1044.67 462.02 1034.64 426.85"/><polygon class="cls-7" points="737.2 302.05 727.01 292.46 735.11 294.75 732.01 283.9 724.6 276.91 730.5 278.58 721.48 247 721.48 247 716.84 242.62 720.53 243.67 714.72 223.31 706.31 257.04 712.82 255.2 704.9 262.65 702.56 272.05 709.61 270.06 701.05 278.12 692.76 311.32 704.52 308 690.23 321.46 690.23 321.46 686.3 337.22 714.72 337.22 747.23 337.22 737.2 302.05"/><polygon class="cls-7" points="878.52 389.17 873.71 383.68 877.31 384.91 876.14 380.83 872.3 376.45 875.17 377.43 874.84 376.26 872.11 373.16 874.15 373.85 871.3 363.88 871.3 363.88 869.01 361.26 870.73 361.85 868.07 352.55 864.78 365.75 866.85 365.04 864.2 368.06 861.63 378.36 864.87 377.25 860.73 381.98 859.85 385.49 864.12 384.03 858.66 390.25 858.08 392.59 867.93 392.59 879.5 392.59 878.52 389.17"/><polygon class="cls-7" points="1173.57 478.09 1158.8 461.25 1169.83 465.02 1166.26 452.49 1154.46 439.04 1163.28 442.05 1162.26 438.46 1153.89 428.92 1160.14 431.06 1151.4 400.44 1151.4 400.44 1144.35 392.4 1149.62 394.2 1141.46 365.63 1131.35 406.17 1137.71 404 1129.58 413.26 1121.69 444.91 1131.64 441.51 1118.92 456.01 1116.23 466.79 1129.33 462.32 1112.59 481.41 1110.79 488.6 1141.02 488.6 1176.56 488.6 1173.57 478.09"/><polygon class="cls-7" points="1239.16 459.49 1224.4 442.66 1235.43 446.43 1231.86 433.89 1220.07 420.45 1228.88 423.46 1227.86 419.87 1219.49 410.33 1225.74 412.47 1217 381.85 1217 381.84 1209.95 373.81 1215.22 375.61 1207.07 347.04 1196.95 387.58 1203.31 385.41 1195.18 394.67 1187.29 426.31 1197.24 422.92 1184.52 437.42 1181.83 448.2 1194.93 443.72 1178.19 462.81 1176.39 470 1206.62 470 1242.16 470 1239.16 459.49"/><polygon class="cls-7" points="1276.09 473.57 1261.32 456.73 1272.35 460.5 1268.78 447.97 1256.98 434.52 1265.8 437.53 1264.78 433.94 1256.41 424.4 1262.66 426.54 1253.92 395.92 1253.92 395.92 1246.87 387.88 1252.14 389.68 1243.98 361.11 1233.87 401.65 1240.23 399.48 1232.1 408.74 1224.21 440.39 1234.16 436.99 1221.44 451.49 1218.75 462.27 1231.85 457.8 1215.11 476.89 1213.31 484.07 1243.54 484.07 1279.08 484.07 1276.09 473.57"/><polygon class="cls-7" points="1413.49 440.91 1404.88 431.09 1411.32 433.29 1409.23 425.98 1402.36 418.13 1407.5 419.89 1406.9 417.8 1402.02 412.23 1405.67 413.48 1400.57 395.62 1400.57 395.62 1396.46 390.93 1399.53 391.98 1394.78 375.32 1388.88 398.96 1392.58 397.7 1387.85 403.1 1383.24 421.56 1389.04 419.57 1381.63 428.03 1380.06 434.32 1387.69 431.71 1377.93 442.84 1376.88 447.03 1394.52 447.03 1415.24 447.03 1413.49 440.91"/><polygon class="cls-7" points="1390.37 430.81 1385.56 425.33 1389.15 426.56 1387.99 422.48 1384.15 418.1 1387.02 419.08 1386.69 417.91 1383.96 414.8 1386 415.5 1383.15 405.53 1383.15 405.53 1380.86 402.91 1382.57 403.5 1379.92 394.19 1376.62 407.39 1378.69 406.69 1376.05 409.7 1373.48 420.01 1376.72 418.9 1372.57 423.63 1371.7 427.13 1375.96 425.68 1370.51 431.89 1369.93 434.23 1379.77 434.23 1391.35 434.23 1390.37 430.81"/><polygon class="cls-7" points="1478.55 434.72 1473.74 429.24 1477.33 430.46 1476.17 426.38 1472.33 422.01 1475.2 422.99 1474.87 421.82 1472.14 418.71 1474.18 419.41 1471.33 409.44 1471.33 409.44 1469.04 406.82 1470.75 407.4 1468.1 398.1 1464.8 411.3 1466.87 410.6 1464.23 413.61 1461.66 423.92 1464.9 422.81 1460.75 427.53 1459.88 431.04 1464.14 429.58 1458.69 435.8 1458.11 438.14 1467.95 438.14 1479.53 438.14 1478.55 434.72"/><polygon class="cls-7" points="1716.05 383.61 1711.24 378.13 1714.83 379.36 1713.67 375.28 1709.83 370.9 1712.7 371.88 1712.37 370.71 1709.64 367.6 1711.68 368.3 1708.83 358.33 1708.83 358.33 1706.54 355.71 1708.25 356.3 1705.6 346.99 1702.3 360.19 1704.37 359.49 1701.73 362.5 1699.16 372.81 1702.4 371.7 1698.25 376.43 1697.38 379.94 1701.64 378.48 1696.19 384.69 1695.61 387.03 1705.45 387.03 1717.03 387.03 1716.05 383.61"/><polygon class="cls-7" points="1296.78 406.61 1291.97 401.13 1295.56 402.36 1294.4 398.28 1290.56 393.9 1293.43 394.88 1293.09 393.71 1290.37 390.6 1292.41 391.3 1289.56 381.33 1289.56 381.33 1287.27 378.71 1288.98 379.3 1286.33 369.99 1283.03 383.19 1285.1 382.49 1282.46 385.5 1279.88 395.81 1283.13 394.7 1278.98 399.43 1278.11 402.94 1282.37 401.48 1276.92 407.69 1276.34 410.03 1286.18 410.03 1297.75 410.03 1296.78 406.61"/><polygon class="cls-7" points="1674.4 376.61 1665.79 366.8 1672.22 368.99 1670.14 361.68 1663.26 353.84 1668.4 355.6 1667.8 353.5 1662.92 347.94 1666.57 349.19 1661.47 331.33 1661.47 331.33 1657.36 326.64 1660.43 327.69 1655.68 311.03 1649.78 334.67 1653.48 333.4 1648.75 338.81 1644.14 357.26 1649.95 355.28 1642.53 363.74 1640.96 370.03 1648.6 367.42 1638.83 378.55 1637.79 382.74 1655.42 382.74 1676.15 382.74 1674.4 376.61"/><polygon class="cls-7" points="1694.3 408.71 1685.68 398.89 1692.12 401.09 1690.03 393.77 1683.16 385.94 1688.3 387.69 1687.7 385.6 1682.82 380.03 1686.47 381.28 1681.37 363.42 1681.37 363.42 1677.26 358.73 1680.33 359.78 1675.58 343.12 1669.68 366.76 1673.38 365.5 1668.64 370.9 1664.04 389.36 1669.84 387.37 1662.42 395.83 1660.86 402.12 1668.49 399.51 1658.73 410.64 1657.68 414.83 1675.32 414.83 1696.05 414.83 1694.3 408.71"/><polygon class="cls-7" points="1778.1 409.51 1769.48 399.69 1775.92 401.89 1773.83 394.57 1766.96 386.74 1772.1 388.49 1771.5 386.4 1766.62 380.83 1770.27 382.08 1765.17 364.22 1765.17 364.22 1761.06 359.53 1764.13 360.58 1759.38 343.92 1753.48 367.56 1757.18 366.3 1752.44 371.7 1747.84 390.16 1753.64 388.17 1746.22 396.63 1744.66 402.92 1752.3 400.31 1742.53 411.44 1741.48 415.63 1759.12 415.63 1779.85 415.63 1778.1 409.51"/><polygon class="cls-7" points="1768.89 420.75 1760.28 410.93 1766.71 413.13 1764.63 405.82 1757.75 397.98 1762.89 399.73 1762.29 397.64 1757.41 392.07 1761.06 393.32 1755.96 375.46 1755.96 375.46 1751.85 370.77 1754.92 371.82 1750.17 355.16 1744.27 378.81 1747.97 377.54 1743.24 382.94 1738.63 401.4 1744.43 399.41 1737.02 407.87 1735.45 414.16 1743.09 411.55 1733.32 422.68 1732.28 426.88 1749.91 426.88 1770.64 426.88 1768.89 420.75"/><polygon class="cls-7" points="1808.05 424.27 1799.43 414.45 1805.87 416.65 1803.79 409.34 1796.91 401.5 1802.05 403.25 1801.45 401.16 1796.57 395.59 1800.22 396.84 1795.12 378.98 1795.12 378.98 1791.01 374.29 1794.08 375.34 1789.33 358.68 1783.43 382.32 1787.13 381.06 1782.4 386.46 1777.79 404.92 1783.6 402.93 1776.18 411.39 1774.61 417.68 1782.25 415.07 1772.48 426.2 1771.44 430.39 1789.07 430.39 1809.8 430.39 1808.05 424.27"/><polygon class="cls-7" points="1857.09 398.87 1848.47 389.05 1854.91 391.25 1852.83 383.94 1845.95 376.1 1851.09 377.85 1850.49 375.76 1845.61 370.19 1849.26 371.44 1844.16 353.58 1844.16 353.58 1840.05 348.89 1843.12 349.94 1838.37 333.28 1832.47 356.93 1836.17 355.66 1831.44 361.06 1826.83 379.52 1832.63 377.53 1825.22 385.99 1823.65 392.28 1831.29 389.67 1821.52 400.8 1820.48 405 1838.11 405 1858.84 405 1857.09 398.87"/><polygon class="cls-7" points="1321.49 461.91 1312.88 452.09 1319.32 454.29 1317.23 446.98 1310.36 439.13 1315.5 440.89 1314.9 438.8 1310.02 433.23 1313.67 434.48 1308.57 416.62 1308.57 416.62 1304.46 411.93 1307.53 412.98 1302.78 396.32 1296.88 419.96 1300.58 418.7 1295.85 424.1 1291.24 442.56 1297.04 440.57 1289.63 449.03 1288.06 455.32 1295.69 452.71 1285.93 463.84 1284.88 468.03 1302.52 468.03 1323.24 468.03 1321.49 461.91"/><polygon class="cls-7" points="1469.12 441.15 1460.51 431.33 1466.94 433.53 1464.86 426.22 1457.98 418.38 1463.12 420.14 1462.52 418.05 1457.64 412.48 1461.29 413.73 1456.19 395.87 1456.19 395.87 1452.08 391.18 1455.15 392.23 1450.4 375.57 1444.5 399.21 1448.2 397.94 1443.47 403.35 1438.86 421.8 1444.67 419.82 1437.25 428.28 1435.68 434.57 1443.32 431.96 1433.55 443.09 1432.51 447.28 1450.14 447.28 1470.87 447.28 1469.12 441.15"/><polygon class="cls-7" points="1563.62 414.67 1555.01 404.86 1561.44 407.05 1559.36 399.74 1552.48 391.9 1557.62 393.66 1557.02 391.56 1552.14 386 1555.79 387.25 1550.69 369.39 1550.69 369.39 1546.58 364.7 1549.65 365.75 1544.9 349.09 1539 372.73 1542.7 371.46 1537.97 376.87 1533.36 395.32 1539.17 393.34 1531.75 401.8 1530.18 408.09 1537.82 405.48 1528.05 416.61 1527.01 420.8 1544.64 420.8 1565.37 420.8 1563.62 414.67"/><polygon class="cls-7" points="1587.44 419.73 1578.83 409.92 1585.26 412.11 1583.18 404.8 1576.3 396.96 1581.44 398.72 1580.84 396.63 1575.96 391.06 1579.61 392.31 1574.51 374.45 1574.51 374.45 1570.4 369.76 1573.47 370.81 1568.72 354.15 1562.82 377.79 1566.53 376.52 1561.79 381.93 1557.18 400.38 1562.99 398.4 1555.57 406.86 1554 413.15 1561.64 410.54 1551.87 421.67 1550.83 425.86 1568.46 425.86 1589.19 425.86 1587.44 419.73"/><polygon class="cls-7" points="1603.93 425.87 1595.32 416.05 1601.75 418.25 1599.66 410.94 1592.79 403.1 1597.93 404.86 1597.33 402.76 1592.45 397.2 1596.1 398.45 1591 380.59 1591 380.58 1586.89 375.9 1589.96 376.95 1585.21 360.29 1579.31 383.93 1583.01 382.66 1578.28 388.06 1573.67 406.52 1579.47 404.54 1572.06 413 1570.49 419.29 1578.13 416.68 1568.36 427.81 1567.32 432 1584.95 432 1605.68 432 1603.93 425.87"/><polygon class="cls-7" points="1356.6 483.55 1347.99 473.74 1354.42 475.93 1352.34 468.62 1345.46 460.78 1350.6 462.54 1350 460.44 1345.12 454.88 1348.77 456.13 1343.67 438.27 1343.67 438.27 1339.56 433.58 1342.63 434.63 1337.88 417.97 1331.98 441.61 1335.68 440.35 1330.95 445.75 1326.34 464.2 1332.15 462.22 1324.73 470.68 1323.16 476.97 1330.8 474.36 1321.03 485.49 1319.99 489.68 1337.62 489.68 1358.35 489.68 1356.6 483.55"/><polygon class="cls-7" points="1709.49 406.31 1700.88 396.49 1707.32 398.69 1705.23 391.38 1698.36 383.54 1703.5 385.29 1702.9 383.2 1698.02 377.63 1701.67 378.88 1696.57 361.02 1696.57 361.02 1692.46 356.33 1695.53 357.38 1690.78 340.72 1684.88 364.36 1688.58 363.1 1683.85 368.5 1679.24 386.96 1685.04 384.97 1677.63 393.43 1676.06 399.72 1683.69 397.11 1673.93 408.24 1672.88 412.43 1690.52 412.43 1711.24 412.43 1709.49 406.31"/><polygon class="cls-7" points="1194.3 465.11 1185.68 455.29 1192.12 457.49 1190.03 450.18 1183.16 442.33 1188.3 444.09 1187.7 442 1182.82 436.43 1186.47 437.68 1181.37 419.82 1181.37 419.82 1177.26 415.13 1180.33 416.18 1175.58 399.52 1169.68 423.16 1173.38 421.9 1168.64 427.3 1164.04 445.76 1169.84 443.77 1162.42 452.23 1160.86 458.52 1168.49 455.91 1158.73 467.04 1157.68 471.23 1175.32 471.23 1196.05 471.23 1194.3 465.11"/><polygon class="cls-7" points="1287.74 461.08 1280 453.79 1286.16 455.53 1283.81 447.29 1278.17 441.98 1282.65 443.24 1275.8 419.24 1275.8 419.24 1272.27 415.92 1275.08 416.71 1270.66 401.24 1264.27 426.87 1269.22 425.47 1263.2 431.14 1261.42 438.28 1266.78 436.77 1260.27 442.89 1253.98 468.13 1262.92 465.6 1252.06 475.83 1252.06 475.83 1249.07 487.81 1270.66 487.81 1295.37 487.81 1287.74 461.08"/><polygon class="cls-7" points="1380.86 451.34 1370.67 441.75 1378.77 444.03 1375.68 433.19 1368.26 426.2 1374.16 427.87 1365.14 396.29 1365.14 396.28 1360.5 391.91 1364.19 392.95 1358.38 372.6 1349.97 406.32 1356.48 404.48 1348.57 411.94 1346.22 421.33 1353.27 419.34 1344.71 427.41 1336.43 460.61 1348.19 457.29 1333.9 470.75 1333.9 470.75 1329.97 486.51 1358.38 486.51 1390.9 486.51 1380.86 451.34"/><polygon class="cls-7" points="1511.38 425.56 1501.19 415.97 1509.29 418.25 1506.2 407.4 1498.78 400.42 1504.68 402.08 1495.66 370.51 1495.66 370.5 1491.02 366.13 1494.71 367.17 1488.9 346.82 1480.49 380.54 1487.01 378.7 1479.09 386.16 1476.74 395.55 1483.79 393.56 1475.23 401.63 1466.95 434.83 1478.71 431.51 1464.42 444.97 1464.42 444.97 1460.49 460.73 1488.9 460.73 1521.42 460.73 1511.38 425.56"/><polygon class="cls-7" points="1632.78 399.58 1622.59 389.99 1630.69 392.27 1627.6 381.43 1620.18 374.44 1626.08 376.11 1617.06 344.53 1617.06 344.52 1612.42 340.15 1616.11 341.19 1610.3 320.84 1601.89 354.56 1608.4 352.72 1600.49 360.18 1598.14 369.57 1605.19 367.58 1596.63 375.65 1588.35 408.85 1600.11 405.53 1585.82 418.99 1585.82 418.99 1581.89 434.75 1610.3 434.75 1642.82 434.75 1632.78 399.58"/><polygon class="cls-7" points="1548.54 408.86 1538.35 399.27 1546.45 401.55 1543.36 390.7 1535.94 383.72 1541.84 385.38 1532.82 353.81 1532.82 353.8 1528.18 349.43 1531.87 350.47 1526.06 330.12 1517.65 363.84 1524.16 362 1516.25 369.46 1513.9 378.85 1520.95 376.86 1512.39 384.93 1504.11 418.13 1515.87 414.81 1501.58 428.27 1501.58 428.27 1497.65 444.03 1526.06 444.03 1558.58 444.03 1548.54 408.86"/><polygon class="cls-7" points="1661.84 409.52 1651.65 399.93 1659.75 402.21 1656.66 391.37 1649.24 384.38 1655.14 386.05 1646.12 354.47 1646.12 354.46 1641.48 350.09 1645.17 351.13 1639.36 330.78 1630.95 364.5 1637.46 362.66 1629.55 370.12 1627.2 379.51 1634.25 377.52 1625.69 385.59 1617.41 418.79 1629.17 415.47 1614.88 428.93 1614.88 428.93 1610.95 444.69 1639.36 444.69 1671.88 444.69 1661.84 409.52"/><polygon class="cls-7" points="1751.74 397.3 1741.55 387.71 1749.65 389.99 1746.56 379.14 1739.14 372.16 1745.04 373.82 1736.02 342.25 1736.02 342.24 1731.38 337.87 1735.07 338.91 1729.26 318.56 1720.85 352.28 1727.37 350.44 1719.45 357.9 1717.11 367.29 1724.15 365.3 1715.59 373.37 1707.31 406.57 1719.07 403.25 1704.78 416.71 1704.78 416.71 1700.85 432.47 1729.26 432.47 1761.78 432.47 1751.74 397.3"/><polygon class="cls-7" points="1449.3 435.5 1439.11 425.91 1447.21 428.19 1444.12 417.35 1436.7 410.36 1442.6 412.02 1433.58 380.45 1433.58 380.44 1428.94 376.07 1432.63 377.11 1426.82 356.76 1418.41 390.48 1424.92 388.64 1417.01 396.1 1414.66 405.49 1421.71 403.5 1413.15 411.57 1404.87 444.77 1416.63 441.45 1402.34 454.91 1402.34 454.91 1398.41 470.67 1426.82 470.67 1459.34 470.67 1449.3 435.5"/><polygon class="cls-7" points="1587.42 405.21 1582.62 399.73 1586.21 400.96 1585.04 396.88 1581.2 392.5 1584.07 393.48 1583.74 392.31 1581.02 389.2 1583.05 389.9 1580.21 379.93 1580.21 379.93 1577.91 377.31 1579.63 377.9 1576.97 368.59 1573.68 381.8 1575.75 381.09 1573.1 384.1 1570.53 394.41 1573.77 393.3 1569.63 398.02 1568.75 401.54 1573.02 400.08 1567.57 406.29 1566.98 408.63 1576.83 408.63 1588.4 408.63 1587.42 405.21"/><polygon class="cls-7" points="1590.62 433.61 1585.82 428.13 1589.41 429.36 1588.24 425.28 1584.4 420.9 1587.27 421.88 1586.94 420.71 1584.22 417.6 1586.25 418.3 1583.41 408.33 1583.41 408.33 1581.11 405.71 1582.83 406.3 1580.17 396.99 1576.88 410.19 1578.95 409.49 1576.3 412.5 1573.73 422.81 1576.97 421.7 1572.83 426.43 1571.95 429.94 1576.22 428.48 1570.77 434.69 1570.18 437.03 1580.03 437.03 1591.6 437.03 1590.62 433.61"/><polygon class="cls-7" points="1341.02 471.21 1336.22 465.73 1339.81 466.96 1338.64 462.88 1334.81 458.5 1337.67 459.48 1337.34 458.31 1334.62 455.2 1336.65 455.9 1333.81 445.93 1333.81 445.93 1331.51 443.31 1333.23 443.9 1330.57 434.59 1327.28 447.8 1329.35 447.09 1326.7 450.1 1324.13 460.41 1327.37 459.3 1323.23 464.02 1322.35 467.54 1326.62 466.08 1321.17 472.29 1320.58 474.63 1330.43 474.63 1342 474.63 1341.02 471.21"/><polygon class="cls-7" points="1821.03 379.78 1812.69 371.93 1819.32 373.8 1816.79 364.92 1810.72 359.21 1815.55 360.57 1808.17 334.73 1808.17 334.73 1804.37 331.15 1807.39 332 1802.64 315.35 1795.75 342.94 1801.08 341.44 1794.61 347.54 1792.69 355.22 1798.46 353.6 1791.45 360.19 1784.67 387.36 1794.3 384.64 1782.6 395.65 1782.6 395.66 1779.39 408.55 1802.64 408.55 1829.24 408.55 1821.03 379.78"/><polygon class="cls-7" points="1872.23 374.98 1863.89 367.13 1870.52 369 1867.99 360.12 1861.92 354.41 1866.74 355.77 1859.37 329.93 1859.37 329.93 1855.57 326.35 1858.59 327.2 1853.84 310.55 1846.95 338.14 1852.28 336.64 1845.81 342.74 1843.89 350.42 1849.66 348.8 1842.65 355.39 1835.87 382.56 1845.49 379.84 1833.8 390.86 1833.8 390.86 1830.59 403.75 1853.84 403.75 1880.44 403.75 1872.23 374.98"/><polygon class="cls-7" points="1920 357 1917.46 350.58 1919 347 1922 343 1915.07 336.29 1920.91 337.82 1911.99 308.77 1911.99 308.77 1907.39 304.75 1911.05 305.71 1905.3 286.99 1896.98 318 1903.42 316.31 1895.59 323.17 1893.27 331.81 1900.24 329.98 1891.77 337.39 1883.58 367.93 1895.21 364.88 1881.08 377.26 1881.08 377.26 1877.19 391.75 1905.3 391.75 1920 391 1920 357"/><polygon class="cls-7" points="1337.39 467.66 1328.78 457.84 1335.22 460.04 1333.13 452.73 1326.25 444.89 1331.39 446.64 1330.8 444.55 1325.92 438.99 1329.57 440.23 1324.47 422.37 1324.47 422.37 1320.36 417.69 1323.43 418.74 1318.67 402.07 1312.78 425.72 1316.48 424.45 1311.74 429.85 1307.14 448.31 1312.94 446.33 1305.52 454.79 1303.95 461.07 1311.59 458.46 1301.83 469.6 1300.78 473.79 1318.41 473.79 1339.14 473.79 1337.39 467.66"/></g><g id="front_mountain"><path class="cls-8" d="M347.77,65.07h27.1l66.62-13.36,29.36,13.36L581.24,188.61l55.89,35.06L799,367.25l194.6,73.15L1163,507.49l189,96.33L0,597V273.76s82.43-68.45,109.53-75.13,108.39-33.39,108.39-33.39L321.8,100.13Z"/><path class="cls-4" d="M39,255.39l150.74-40.07,86.95-58.43,66.61-65.11,31.62-26.71h-27.1l-26,35.06L217.92,165.24S136.62,192,109.53,198.63,0,273.76,0,273.76v33Z"/><path class="cls-9" d="M994.63,441.54,800,368.38,638.13,224.81l-55.89-35.06-55.66-62.29h0l44.42,89L691.46,326.65S757.77,409.59,759.9,414s260.69,37.79,260.71,37.8Z"/><path class="cls-10" d="M663.23,487.92,509.78,444.4l-50.15-59.57-41-19.47-59.31-67.2L289.92,263H238.18s-90.24,49.25-114.82,53.45-67.42,28.25-67.42,28.25L0,369.62l.34,85.85L0,599.73,1352,607Z"/><polygon class="cls-11" points="399.16 492.5 359.41 511.98 245 597.31 1352 607 663.33 487.92 509.88 444.4 459.73 384.83 428.5 421.87 399.16 492.5"/></g></g></g></g></svg>