<svg xmlns="http://www.w3.org/2000/svg" xmlns:xlink="http://www.w3.org/1999/xlink" viewBox="0 0 1921.91 471.14"><defs><style>.cls-1{isolation:isolate;}.cls-2{fill:url(#linear-gradient);}.cls-3{fill:url(#linear-gradient-2);}.cls-4{fill:url(#linear-gradient-3);}.cls-5{fill:url(#linear-gradient-4);}.cls-6{fill:url(#linear-gradient-5);}.cls-7{fill:url(#linear-gradient-6);}.cls-8{fill:url(#linear-gradient-7);}.cls-9{fill:url(#linear-gradient-8);}.cls-10{fill:url(#linear-gradient-9);}.cls-11{fill:url(#linear-gradient-10);}.cls-12{fill:url(#linear-gradient-11);}.cls-13{fill:url(#linear-gradient-12);}.cls-14{fill:url(#linear-gradient-13);}.cls-15{fill:url(#linear-gradient-14);}.cls-16{fill:url(#linear-gradient-15);}.cls-17{fill:url(#linear-gradient-16);}.cls-18{fill:url(#linear-gradient-17);}.cls-19{fill:url(#linear-gradient-18);}.cls-20{fill:url(#linear-gradient-19);}.cls-21{fill:url(#linear-gradient-20);}.cls-22{fill:url(#linear-gradient-21);}.cls-23{fill:url(#linear-gradient-22);}.cls-24{fill:url(#linear-gradient-23);}.cls-25{fill:url(#linear-gradient-24);}.cls-26{fill:url(#linear-gradient-25);}.cls-27{fill:url(#linear-gradient-26);}.cls-28{fill:url(#linear-gradient-27);}.cls-29{fill:url(#linear-gradient-28);}.cls-30{fill:url(#linear-gradient-29);}.cls-31{fill:url(#linear-gradient-30);}.cls-32{fill:url(#linear-gradient-31);}.cls-33{fill:url(#linear-gradient-32);}.cls-34{fill:url(#linear-gradient-33);}.cls-35{fill:url(#linear-gradient-34);}.cls-36{fill:url(#linear-gradient-35);}.cls-37{fill:url(#linear-gradient-36);}.cls-38{fill:url(#linear-gradient-37);}.cls-39{fill:url(#linear-gradient-38);}.cls-40{fill:url(#linear-gradient-39);}.cls-41{fill:url(#linear-gradient-40);}.cls-42{fill:url(#linear-gradient-41);}.cls-43{fill:url(#linear-gradient-42);}.cls-44{fill:url(#linear-gradient-43);}.cls-45{fill:url(#linear-gradient-44);}.cls-46{fill:url(#linear-gradient-45);}.cls-47{fill:url(#linear-gradient-46);}.cls-48{fill:url(#linear-gradient-47);}.cls-49{fill:url(#linear-gradient-48);}.cls-50{fill:url(#linear-gradient-49);}.cls-51{fill:url(#linear-gradient-50);}.cls-52{fill:url(#linear-gradient-51);}.cls-53{fill:url(#linear-gradient-52);}.cls-54{fill:url(#linear-gradient-53);}.cls-55{fill:url(#linear-gradient-54);}.cls-56{fill:url(#linear-gradient-55);}.cls-57{fill:url(#linear-gradient-56);}.cls-58{fill:url(#linear-gradient-57);}.cls-59{fill:url(#linear-gradient-58);}.cls-60{fill:url(#linear-gradient-59);}.cls-61{fill:url(#linear-gradient-60);}.cls-62{fill:url(#linear-gradient-61);}.cls-63{fill:url(#linear-gradient-62);}.cls-64{fill:url(#linear-gradient-63);}.cls-65{fill:url(#linear-gradient-64);}.cls-66{fill:url(#linear-gradient-65);}.cls-67{fill:url(#linear-gradient-66);}.cls-68{fill:url(#linear-gradient-67);}.cls-69{fill:url(#linear-gradient-68);}.cls-70{fill:url(#linear-gradient-69);}.cls-71{fill:#1e0b53;mix-blend-mode:overlay;opacity:0.08;}</style><linearGradient id="linear-gradient" x1="41.32" y1="185.37" x2="41.32" y2="328.23" gradientUnits="userSpaceOnUse"><stop offset="0" stop-color="#004255"/><stop offset="0.56" stop-color="#003a40"/></linearGradient><linearGradient id="linear-gradient-2" x1="132.32" y1="195.59" x2="132.32" y2="338.45" xlink:href="#linear-gradient"/><linearGradient id="linear-gradient-3" x1="224.32" y1="180.72" x2="224.32" y2="323.58" xlink:href="#linear-gradient"/><linearGradient id="linear-gradient-4" x1="169.35" y1="225.39" x2="169.35" y2="308.71" xlink:href="#linear-gradient"/><linearGradient id="linear-gradient-5" x1="193.15" y1="249.18" x2="193.15" y2="295.7" xlink:href="#linear-gradient"/><linearGradient id="linear-gradient-6" x1="265.11" y1="246.39" x2="265.11" y2="292.91" xlink:href="#linear-gradient"/><linearGradient id="linear-gradient-7" x1="485.87" y1="212.93" x2="485.87" y2="259.45" xlink:href="#linear-gradient"/><linearGradient id="linear-gradient-8" x1="746.75" y1="163.67" x2="746.75" y2="210.19" xlink:href="#linear-gradient"/><linearGradient id="linear-gradient-9" x1="100.66" y1="251.97" x2="100.66" y2="298.49" xlink:href="#linear-gradient"/><linearGradient id="linear-gradient-10" x1="688.35" y1="139.88" x2="688.35" y2="223.2" xlink:href="#linear-gradient"/><linearGradient id="linear-gradient-11" x1="721.35" y1="130.59" x2="721.35" y2="213.9" xlink:href="#linear-gradient"/><linearGradient id="linear-gradient-12" x1="830.35" y1="120.36" x2="830.35" y2="203.68" xlink:href="#linear-gradient"/><linearGradient id="linear-gradient-13" x1="799.35" y1="113.86" x2="799.35" y2="197.17" xlink:href="#linear-gradient"/><linearGradient id="linear-gradient-14" x1="855.35" y1="147.32" x2="855.35" y2="230.64" xlink:href="#linear-gradient"/><linearGradient id="linear-gradient-15" x1="878.35" y1="133.37" x2="878.35" y2="216.69" xlink:href="#linear-gradient"/><linearGradient id="linear-gradient-16" x1="293.35" y1="210.52" x2="293.35" y2="293.84" xlink:href="#linear-gradient"/><linearGradient id="linear-gradient-17" x1="906.35" y1="149.18" x2="906.35" y2="232.49" xlink:href="#linear-gradient"/><linearGradient id="linear-gradient-18" x1="305.35" y1="217.96" x2="305.35" y2="301.27" xlink:href="#linear-gradient"/><linearGradient id="linear-gradient-19" x1="434.35" y1="188.21" x2="434.35" y2="271.53" xlink:href="#linear-gradient"/><linearGradient id="linear-gradient-20" x1="551.35" y1="155.68" x2="551.35" y2="239" xlink:href="#linear-gradient"/><linearGradient id="linear-gradient-21" x1="579.35" y1="149.18" x2="579.35" y2="232.49" xlink:href="#linear-gradient"/><linearGradient id="linear-gradient-22" x1="608.35" y1="176.13" x2="608.35" y2="259.45" xlink:href="#linear-gradient"/><linearGradient id="linear-gradient-23" x1="77.35" y1="223.53" x2="77.35" y2="306.85" xlink:href="#linear-gradient"/><linearGradient id="linear-gradient-24" x1="193.63" y1="194.96" x2="193.63" y2="295.54" xlink:href="#linear-gradient"/><linearGradient id="linear-gradient-25" x1="344.89" y1="153.32" x2="344.89" y2="285.66" xlink:href="#linear-gradient"/><linearGradient id="linear-gradient-26" x1="517.54" y1="116.4" x2="517.54" y2="248.74" xlink:href="#linear-gradient"/><linearGradient id="linear-gradient-27" x1="641.29" y1="95.51" x2="641.29" y2="227.85" xlink:href="#linear-gradient"/><linearGradient id="linear-gradient-28" x1="472.49" y1="143.47" x2="472.49" y2="275.81" xlink:href="#linear-gradient"/><linearGradient id="linear-gradient-29" x1="762.74" y1="77.52" x2="762.74" y2="209.86" xlink:href="#linear-gradient"/><linearGradient id="linear-gradient-30" x1="395.94" y1="142.82" x2="395.94" y2="275.16" xlink:href="#linear-gradient"/><linearGradient id="linear-gradient-31" x1="943.32" y1="94.28" x2="943.32" y2="237.14" xlink:href="#linear-gradient"/><linearGradient id="linear-gradient-32" x1="1039.32" y1="97.07" x2="1039.32" y2="239.93" xlink:href="#linear-gradient"/><linearGradient id="linear-gradient-33" x1="1080.32" y1="84.06" x2="1080.32" y2="226.92" xlink:href="#linear-gradient"/><linearGradient id="linear-gradient-34" x1="1254.35" y1="141.74" x2="1254.35" y2="225.06" xlink:href="#linear-gradient"/><linearGradient id="linear-gradient-35" x1="1162.24" y1="166.46" x2="1162.24" y2="212.98" xlink:href="#linear-gradient"/><linearGradient id="linear-gradient-36" x1="1340" y1="178.82" x2="1340" y2="225.34" xlink:href="#linear-gradient"/><linearGradient id="linear-gradient-37" x1="1010.79" y1="179.47" x2="1010.79" y2="225.99" xlink:href="#linear-gradient"/><linearGradient id="linear-gradient-38" x1="1602.06" y1="95.89" x2="1602.06" y2="179.21" xlink:href="#linear-gradient"/><linearGradient id="linear-gradient-39" x1="1713.06" y1="81.02" x2="1713.06" y2="164.34" xlink:href="#linear-gradient"/><linearGradient id="linear-gradient-40" x1="1695.3" y1="90.36" x2="1695.3" y2="173.68" xlink:href="#linear-gradient"/><linearGradient id="linear-gradient-41" x1="1731.6" y1="90.87" x2="1731.6" y2="174.19" xlink:href="#linear-gradient"/><linearGradient id="linear-gradient-42" x1="1744.25" y1="86.08" x2="1744.25" y2="169.4" xlink:href="#linear-gradient"/><linearGradient id="linear-gradient-43" x1="1771.75" y1="82.27" x2="1771.75" y2="165.59" xlink:href="#linear-gradient"/><linearGradient id="linear-gradient-44" x1="1794.3" y1="80.04" x2="1794.3" y2="163.36" xlink:href="#linear-gradient"/><linearGradient id="linear-gradient-45" x1="1136.06" y1="140.5" x2="1136.06" y2="223.82" xlink:href="#linear-gradient"/><linearGradient id="linear-gradient-46" x1="1324.34" y1="150.32" x2="1324.34" y2="233.64" xlink:href="#linear-gradient"/><linearGradient id="linear-gradient-47" x1="1441.22" y1="126.99" x2="1441.22" y2="210.31" xlink:href="#linear-gradient"/><linearGradient id="linear-gradient-48" x1="1463.49" y1="118" x2="1463.49" y2="201.31" xlink:href="#linear-gradient"/><linearGradient id="linear-gradient-49" x1="1498.42" y1="111.51" x2="1498.42" y2="194.83" xlink:href="#linear-gradient"/><linearGradient id="linear-gradient-50" x1="1182.44" y1="143.11" x2="1182.44" y2="226.43" xlink:href="#linear-gradient"/><linearGradient id="linear-gradient-51" x1="1621.06" y1="97.75" x2="1621.06" y2="181.07" xlink:href="#linear-gradient"/><linearGradient id="linear-gradient-52" x1="978.06" y1="160.95" x2="978.06" y2="244.27" xlink:href="#linear-gradient"/><linearGradient id="linear-gradient-53" x1="1098.76" y1="128.79" x2="1098.76" y2="229.37" xlink:href="#linear-gradient"/><linearGradient id="linear-gradient-54" x1="1209.02" y1="102.02" x2="1209.02" y2="234.36" xlink:href="#linear-gradient"/><linearGradient id="linear-gradient-55" x1="1370.67" y1="98.56" x2="1370.67" y2="230.9" xlink:href="#linear-gradient"/><linearGradient id="linear-gradient-56" x1="1521.42" y1="60.94" x2="1521.42" y2="193.28" xlink:href="#linear-gradient"/><linearGradient id="linear-gradient-57" x1="1408.62" y1="102.39" x2="1408.62" y2="234.73" xlink:href="#linear-gradient"/><linearGradient id="linear-gradient-58" x1="1560" y1="54.13" x2="1560" y2="186.47" xlink:href="#linear-gradient"/><linearGradient id="linear-gradient-59" x1="1662.87" y1="49.46" x2="1662.87" y2="181.8" xlink:href="#linear-gradient"/><linearGradient id="linear-gradient-60" x1="1292.07" y1="100.81" x2="1292.07" y2="233.15" xlink:href="#linear-gradient"/><linearGradient id="linear-gradient-61" x1="998.1" y1="186.9" x2="998.1" y2="233.42" xlink:href="#linear-gradient"/><linearGradient id="linear-gradient-62" x1="1481.1" y1="143.22" x2="1481.1" y2="189.74" xlink:href="#linear-gradient"/><linearGradient id="linear-gradient-63" x1="1773.37" y1="47.82" x2="1773.37" y2="156.1" xlink:href="#linear-gradient"/><linearGradient id="linear-gradient-64" x1="1825.37" y1="43.18" x2="1825.37" y2="151.46" xlink:href="#linear-gradient"/><linearGradient id="linear-gradient-65" x1="1883.89" y1="0" x2="1883.89" y2="121.71" xlink:href="#linear-gradient"/><linearGradient id="linear-gradient-66" x1="1851.93" y1="53.31" x2="1851.93" y2="136.63" xlink:href="#linear-gradient"/><linearGradient id="linear-gradient-67" x1="13.95" y1="233.63" x2="13.95" y2="316.95" xlink:href="#linear-gradient"/><linearGradient id="linear-gradient-68" x1="1907.95" y1="29.15" x2="1907.95" y2="112.46" xlink:href="#linear-gradient"/><linearGradient id="linear-gradient-69" x1="960.98" y1="568.49" x2="960.98" y2="259.42" gradientUnits="userSpaceOnUse"><stop offset="0" stop-color="#509e92"/><stop offset="1" stop-color="#00464c"/></linearGradient></defs><g class="cls-1"><g id="Layer_2" data-name="Layer 2"><g id="layer-2"><g id="forest_group"><polygon class="cls-2" points="78.68 316.02 60.23 296.46 74.02 300.84 69.55 286.28 54.81 270.66 65.82 274.15 64.55 269.99 54.09 258.9 61.91 261.38 50.98 225.81 50.98 225.81 42.17 216.47 48.75 218.56 38.56 185.37 25.92 232.47 33.86 229.94 23.71 240.71 13.84 277.47 26.27 273.52 10.38 290.38 7.01 302.9 23.39 297.7 2.46 319.88 0.21 328.23 38.01 328.23 82.43 328.23 78.68 316.02"/><polygon class="cls-3" points="169.68 326.25 151.23 306.69 165.02 311.07 160.55 296.5 145.81 280.88 156.82 284.38 155.55 280.21 145.09 269.13 152.91 271.61 141.98 236.03 141.98 236.03 133.17 226.69 139.75 228.78 129.56 195.59 116.92 242.69 124.86 240.17 114.71 250.93 104.84 287.7 117.28 283.75 101.38 300.6 98.01 313.12 114.39 307.92 93.46 330.1 91.22 338.45 129.01 338.45 173.43 338.45 169.68 326.25"/><polygon class="cls-4" points="261.68 311.37 243.23 291.81 257.02 296.19 252.55 281.63 237.81 266.01 248.82 269.51 247.55 265.34 237.09 254.25 244.91 256.74 233.98 221.16 233.98 221.16 225.17 211.82 231.75 213.91 221.56 180.72 208.92 227.82 216.86 225.3 206.71 236.06 196.84 272.82 209.28 268.88 193.38 285.73 190.01 298.25 206.38 293.05 185.46 315.23 183.22 323.58 221.01 323.58 265.43 323.58 261.68 311.37"/><polygon class="cls-5" points="191.13 301.59 180.37 290.18 188.41 292.74 185.81 284.24 177.21 275.13 183.64 277.17 182.89 274.74 176.79 268.28 181.35 269.73 174.98 248.98 174.98 248.97 169.84 243.53 173.68 244.75 167.73 225.39 160.36 252.86 164.99 251.39 159.07 257.67 153.32 279.11 160.57 276.81 151.3 286.63 149.34 293.94 158.88 290.9 146.68 303.84 145.37 308.71 167.41 308.71 193.32 308.71 191.13 301.59"/><polygon class="cls-6" points="205.31 291.72 199.3 285.35 203.8 286.78 202.34 282.04 197.54 276.95 201.13 278.09 200.71 276.73 197.31 273.12 199.85 273.93 196.29 262.35 196.29 262.35 193.42 259.31 195.57 259.99 192.25 249.18 188.13 264.51 190.72 263.69 187.41 267.2 184.2 279.17 188.25 277.88 183.07 283.37 181.98 287.45 187.31 285.76 180.49 292.98 179.76 295.7 192.07 295.7 206.53 295.7 205.31 291.72"/><polygon class="cls-7" points="277.27 288.93 271.26 282.56 275.76 283.99 274.3 279.25 269.5 274.16 273.09 275.3 272.67 273.94 269.27 270.33 271.81 271.14 268.25 259.56 268.25 259.56 265.38 256.52 267.53 257.2 264.21 246.39 260.09 261.73 262.68 260.9 259.37 264.41 256.16 276.38 260.21 275.1 255.03 280.58 253.94 284.66 259.27 282.97 252.45 290.19 251.72 292.91 264.03 292.91 278.5 292.91 277.27 288.93"/><polygon class="cls-8" points="498.04 255.47 492.03 249.1 496.52 250.53 495.06 245.79 490.26 240.7 493.85 241.84 493.44 240.48 490.03 236.87 492.58 237.68 489.02 226.1 489.02 226.1 486.15 223.06 488.29 223.74 484.97 212.93 480.86 228.27 483.44 227.44 480.14 230.95 476.92 242.92 480.97 241.63 475.8 247.12 474.7 251.2 480.03 249.51 473.22 256.73 472.49 259.45 484.79 259.45 499.26 259.45 498.04 255.47"/><polygon class="cls-9" points="758.91 206.21 752.9 199.84 757.4 201.27 755.94 196.53 751.14 191.44 754.73 192.58 754.31 191.22 750.9 187.61 753.45 188.42 749.89 176.84 749.89 176.84 747.02 173.79 749.17 174.48 745.85 163.67 741.73 179 744.32 178.18 741.01 181.69 737.8 193.66 741.85 192.37 736.67 197.86 735.58 201.94 740.91 200.25 734.09 207.47 733.36 210.19 745.67 210.19 760.13 210.19 758.91 206.21"/><polygon class="cls-10" points="112.83 294.51 106.81 288.14 111.31 289.57 109.85 284.83 105.05 279.74 108.64 280.88 108.22 279.52 104.82 275.91 107.36 276.72 103.8 265.13 103.8 265.13 100.93 262.09 103.08 262.77 99.76 251.97 95.64 267.3 98.23 266.48 94.92 269.99 91.71 281.96 95.76 280.67 90.58 286.16 89.49 290.24 94.82 288.55 88 295.77 87.27 298.49 99.58 298.49 114.05 298.49 112.83 294.51"/><polygon class="cls-11" points="710.13 216.08 699.37 204.67 707.41 207.23 704.81 198.73 696.21 189.62 702.64 191.66 701.89 189.23 695.79 182.77 700.35 184.22 693.98 163.47 693.98 163.47 688.84 158.02 692.68 159.24 686.73 139.88 679.36 167.35 683.99 165.88 678.07 172.16 672.32 193.6 679.57 191.29 670.3 201.12 668.34 208.43 677.88 205.4 665.68 218.33 664.37 223.2 686.41 223.2 712.32 223.2 710.13 216.08"/><polygon class="cls-12" points="743.13 206.78 732.37 195.38 740.41 197.93 737.81 189.44 729.21 180.33 735.64 182.37 734.89 179.94 728.79 173.47 733.35 174.92 726.98 154.17 726.98 154.17 721.84 148.73 725.68 149.94 719.73 130.59 712.36 158.06 716.99 156.59 711.07 162.86 705.32 184.3 712.57 182 703.3 191.83 701.34 199.13 710.88 196.1 698.68 209.03 697.37 213.91 719.41 213.91 745.32 213.91 743.13 206.78"/><polygon class="cls-13" points="852.13 196.56 841.37 185.15 849.41 187.71 846.81 179.21 838.21 170.1 844.64 172.15 843.89 169.71 837.79 163.25 842.35 164.7 835.98 143.95 835.98 143.95 830.84 138.5 834.68 139.72 828.73 120.36 821.36 147.83 825.99 146.36 820.07 152.64 814.32 174.08 821.57 171.78 812.3 181.6 810.34 188.91 819.88 185.88 807.68 198.81 806.37 203.68 828.41 203.68 854.32 203.68 852.13 196.56"/><polygon class="cls-14" points="821.13 190.06 810.37 178.65 818.41 181.2 815.81 172.71 807.21 163.6 813.64 165.64 812.89 163.21 806.79 156.74 811.35 158.19 804.98 137.44 804.98 137.44 799.84 132 803.68 133.21 797.73 113.86 790.36 141.33 794.99 139.85 789.07 146.13 783.32 167.57 790.57 165.27 781.3 175.1 779.34 182.4 788.88 179.37 776.68 192.3 775.37 197.18 797.41 197.18 823.32 197.18 821.13 190.06"/><polygon class="cls-15" points="877.13 223.51 866.37 212.11 874.41 214.66 871.81 206.17 863.21 197.06 869.64 199.1 868.89 196.67 862.79 190.2 867.35 191.65 860.98 170.9 860.98 170.9 855.84 165.46 859.68 166.68 853.73 147.32 846.36 174.79 850.99 173.31 845.07 179.59 839.32 201.03 846.57 198.73 837.3 208.56 835.34 215.86 844.88 212.83 832.68 225.76 831.37 230.63 853.41 230.63 879.32 230.63 877.13 223.51"/><polygon class="cls-16" points="900.13 209.57 889.37 198.17 897.41 200.72 894.81 192.23 886.21 183.12 892.64 185.16 891.89 182.73 885.79 176.26 890.35 177.71 883.98 156.96 883.98 156.96 878.84 151.51 882.68 152.73 876.73 133.38 869.36 160.84 873.99 159.37 868.07 165.65 862.32 187.09 869.57 184.79 860.3 194.62 858.34 201.92 867.88 198.89 855.68 211.82 854.37 216.69 876.41 216.69 902.32 216.69 900.13 209.57"/><polygon class="cls-17" points="315.13 286.72 304.37 275.31 312.42 277.87 309.81 269.37 301.21 260.26 307.64 262.3 306.89 259.87 300.79 253.41 305.35 254.85 298.98 234.11 298.98 234.1 293.84 228.66 297.68 229.88 291.73 210.52 284.36 237.99 288.99 236.52 283.07 242.79 277.32 264.24 284.57 261.94 275.3 271.76 273.34 279.07 282.88 276.03 270.68 288.97 269.37 293.84 291.41 293.84 317.32 293.84 315.13 286.72"/><polygon class="cls-18" points="928.13 225.37 917.37 213.97 925.41 216.52 922.81 208.03 914.21 198.92 920.64 200.96 919.89 198.53 913.79 192.06 918.35 193.51 911.98 172.76 911.98 172.76 906.84 167.31 910.68 168.53 904.73 149.18 897.36 176.65 901.99 175.17 896.07 181.45 890.32 202.89 897.57 200.59 888.3 210.42 886.34 217.72 895.88 214.69 883.68 227.62 882.37 232.49 904.41 232.49 930.32 232.49 928.13 225.37"/><polygon class="cls-19" points="327.13 294.15 316.37 282.75 324.42 285.3 321.81 276.81 313.21 267.7 319.64 269.74 318.89 267.31 312.79 260.84 317.35 262.29 310.98 241.54 310.98 241.54 305.84 236.09 309.68 237.31 303.73 217.96 296.36 245.43 300.99 243.95 295.07 250.23 289.32 271.67 296.57 269.37 287.3 279.2 285.34 286.5 294.88 283.47 282.68 296.4 281.37 301.27 303.41 301.27 329.32 301.27 327.13 294.15"/><polygon class="cls-20" points="456.13 264.41 445.37 253 453.42 255.56 450.81 247.06 442.21 237.96 448.64 240 447.89 237.56 441.79 231.1 446.35 232.55 439.98 211.8 439.98 211.8 434.84 206.35 438.68 207.57 432.73 188.21 425.36 215.68 429.99 214.21 424.07 220.49 418.32 241.93 425.57 239.63 416.3 249.46 414.34 256.76 423.88 253.73 411.68 266.66 410.37 271.53 432.41 271.53 458.32 271.53 456.13 264.41"/><polygon class="cls-21" points="573.13 231.88 562.37 220.47 570.41 223.03 567.81 214.53 559.21 205.42 565.64 207.46 564.89 205.03 558.79 198.57 563.35 200.02 556.98 179.27 556.98 179.27 551.84 173.82 555.68 175.04 549.73 155.68 542.36 183.15 546.99 181.68 541.07 187.96 535.32 209.4 542.57 207.1 533.3 216.92 531.34 224.23 540.88 221.2 528.68 234.13 527.37 239 549.41 239 575.32 239 573.13 231.88"/><polygon class="cls-22" points="601.13 225.37 590.37 213.97 598.41 216.52 595.81 208.03 587.21 198.92 593.64 200.96 592.89 198.53 586.79 192.06 591.35 193.51 584.98 172.76 584.98 172.76 579.84 167.31 583.68 168.53 577.73 149.18 570.36 176.65 574.99 175.17 569.07 181.45 563.32 202.89 570.57 200.59 561.3 210.42 559.34 217.72 568.88 214.69 556.68 227.62 555.37 232.49 577.41 232.49 603.32 232.49 601.13 225.37"/><polygon class="cls-23" points="630.13 252.33 619.37 240.92 627.41 243.48 624.81 234.98 616.21 225.87 622.64 227.91 621.89 225.48 615.79 219.02 620.35 220.47 613.98 199.72 613.98 199.71 608.84 194.27 612.68 195.49 606.73 176.13 599.36 203.6 603.99 202.13 598.07 208.4 592.32 229.85 599.57 227.54 590.3 237.37 588.34 244.68 597.88 241.64 585.68 254.58 584.37 259.45 606.41 259.45 632.32 259.45 630.13 252.33"/><polygon class="cls-24" points="99.14 299.73 88.37 288.32 96.42 290.88 93.81 282.38 85.21 273.27 91.64 275.31 90.89 272.88 84.79 266.42 89.35 267.87 82.98 247.12 82.98 247.12 77.84 241.67 81.68 242.89 75.73 223.53 68.36 251 72.99 249.53 67.07 255.81 61.32 277.25 68.57 274.95 59.3 284.77 57.34 292.08 66.89 289.05 54.68 301.98 53.37 306.85 75.41 306.85 101.32 306.85 99.14 299.73"/><polygon class="cls-25" points="213.03 264.49 203.36 256.02 211.05 258.04 208.11 248.46 201.07 242.29 206.67 243.76 198.11 215.88 198.11 215.88 193.69 212.02 197.2 212.94 191.68 194.97 183.69 224.74 189.88 223.12 182.36 229.7 180.13 237.99 186.83 236.24 178.7 243.36 170.83 272.67 182 269.74 168.42 281.62 168.42 281.63 164.69 295.54 191.68 295.54 222.57 295.54 213.03 264.49"/><polygon class="cls-26" points="370.43 244.8 357.69 233.66 367.82 236.31 363.95 223.71 354.68 215.6 362.05 217.53 350.78 180.84 350.78 180.84 344.98 175.76 349.6 176.97 342.33 153.32 331.82 192.5 339.96 190.37 330.06 199.03 327.13 209.94 335.94 207.63 325.24 217 314.89 255.57 329.59 251.72 311.72 267.35 311.72 267.36 306.81 285.66 342.33 285.66 382.98 285.66 370.43 244.8"/><polygon class="cls-27" points="543.08 207.88 530.34 196.73 540.47 199.39 536.6 186.79 527.33 178.67 534.7 180.61 523.43 143.92 523.43 143.91 517.63 138.83 522.25 140.04 514.98 116.4 504.47 155.58 512.61 153.44 502.71 162.11 499.79 173.02 508.6 170.71 497.89 180.08 487.54 218.65 502.24 214.79 484.37 230.43 484.37 230.43 479.46 248.74 514.98 248.74 555.63 248.74 543.08 207.88"/><polygon class="cls-28" points="666.83 186.99 654.09 175.84 664.22 178.5 660.35 165.9 651.08 157.78 658.45 159.72 647.18 123.03 647.18 123.03 641.38 117.94 646 119.16 638.73 95.51 628.22 134.69 636.36 132.55 626.46 141.22 623.53 152.13 632.35 149.82 621.64 159.19 611.29 197.76 625.99 193.91 608.12 209.54 608.12 209.54 603.21 227.85 638.73 227.85 679.38 227.85 666.83 186.99"/><polygon class="cls-29" points="498.03 234.95 485.29 223.81 495.42 226.46 491.55 213.86 482.28 205.74 489.65 207.68 478.38 170.99 478.38 170.99 472.58 165.91 477.2 167.12 469.93 143.47 459.42 182.65 467.56 180.51 457.66 189.18 454.74 200.09 463.55 197.78 452.84 207.15 442.49 245.72 457.19 241.87 439.32 257.5 439.32 257.5 434.41 275.81 469.93 275.81 510.57 275.81 498.03 234.95"/><polygon class="cls-30" points="788.28 169.01 775.54 157.86 785.67 160.51 781.8 147.91 772.53 139.8 779.9 141.73 768.63 105.04 768.63 105.04 762.83 99.96 767.45 101.17 760.18 77.52 749.67 116.7 757.81 114.57 747.91 123.23 744.99 134.14 753.79 131.83 743.09 141.2 732.74 179.78 747.44 175.92 729.57 191.56 729.57 191.56 724.66 209.86 760.18 209.86 800.83 209.86 788.28 169.01"/><polygon class="cls-31" points="421.48 234.3 408.74 223.15 418.87 225.81 415 213.21 405.73 205.09 413.1 207.03 401.83 170.34 401.83 170.34 396.03 165.25 400.65 166.47 393.38 142.82 382.87 182 391.01 179.86 381.11 188.53 378.19 199.44 387 197.13 376.29 206.5 365.94 245.07 380.64 241.22 362.77 256.85 362.77 256.85 357.86 275.16 393.38 275.16 434.02 275.16 421.48 234.3"/><polygon class="cls-32" points="980.68 224.93 962.23 205.37 976.02 209.75 971.55 195.19 956.81 179.57 967.82 183.07 966.55 178.9 956.09 167.81 963.91 170.3 952.98 134.72 952.98 134.72 944.17 125.38 950.75 127.47 940.56 94.28 927.92 141.38 935.86 138.86 925.71 149.62 915.84 186.38 928.27 182.44 912.38 199.29 909.01 211.81 925.38 206.61 904.46 228.79 902.22 237.14 940.01 237.14 984.43 237.14 980.68 224.93"/><polygon class="cls-33" points="1076.68 227.72 1058.23 208.16 1072.02 212.54 1067.55 197.98 1052.81 182.36 1063.82 185.86 1062.55 181.69 1052.09 170.6 1059.91 173.09 1048.98 137.51 1048.98 137.51 1040.17 128.17 1046.75 130.26 1036.56 97.07 1023.92 144.17 1031.86 141.65 1021.71 152.41 1011.84 189.17 1024.28 185.23 1008.38 202.08 1005.01 214.6 1021.38 209.4 1000.46 231.58 998.22 239.93 1036.01 239.93 1080.43 239.93 1076.68 227.72"/><polygon class="cls-34" points="1117.68 214.71 1099.23 195.15 1113.02 199.53 1108.55 184.97 1093.81 169.35 1104.82 172.84 1103.55 168.68 1093.09 157.59 1100.91 160.07 1089.98 124.5 1089.98 124.49 1081.17 115.16 1087.75 117.25 1077.56 84.06 1064.92 131.16 1072.86 128.63 1062.71 139.39 1052.84 176.16 1065.28 172.21 1049.38 189.06 1046.01 201.59 1062.38 196.39 1041.46 218.57 1039.21 226.92 1077.01 226.92 1121.43 226.92 1117.68 214.71"/><polygon class="cls-35" points="1276.13 217.94 1265.37 206.53 1273.41 209.09 1270.81 200.59 1262.21 191.48 1268.64 193.52 1267.89 191.09 1261.79 184.63 1266.35 186.07 1259.98 165.32 1259.98 165.32 1254.84 159.88 1258.68 161.1 1252.73 141.74 1245.36 169.21 1249.99 167.74 1244.07 174.01 1238.32 195.46 1245.57 193.15 1236.3 202.98 1234.34 210.28 1243.88 207.25 1231.68 220.19 1230.37 225.06 1252.41 225.06 1278.32 225.06 1276.13 217.94"/><polygon class="cls-36" points="1174.4 209 1168.39 202.63 1172.88 204.06 1171.43 199.31 1166.63 194.23 1170.22 195.37 1169.8 194.01 1166.39 190.4 1168.94 191.21 1165.38 179.62 1165.38 179.62 1162.51 176.58 1164.66 177.26 1161.34 166.46 1157.22 181.79 1159.81 180.97 1156.5 184.47 1153.29 196.45 1157.34 195.16 1152.16 200.65 1151.07 204.73 1156.4 203.03 1149.58 210.26 1148.85 212.97 1161.16 212.97 1175.62 212.97 1174.4 209"/><polygon class="cls-37" points="1352.17 221.37 1346.16 215 1350.65 216.42 1349.19 211.68 1344.39 206.59 1347.98 207.73 1347.56 206.38 1344.16 202.77 1346.7 203.57 1343.14 191.99 1343.14 191.99 1340.28 188.95 1342.42 189.63 1339.1 178.82 1334.98 194.16 1337.57 193.34 1334.27 196.84 1331.05 208.81 1335.1 207.53 1329.92 213.01 1328.83 217.09 1334.16 215.4 1327.35 222.62 1326.62 225.34 1338.92 225.34 1353.39 225.34 1352.17 221.37"/><polygon class="cls-38" points="1022.95 222.01 1016.94 215.64 1021.43 217.07 1019.98 212.33 1015.18 207.24 1018.77 208.38 1018.35 207.02 1014.94 203.41 1017.49 204.22 1013.93 192.64 1013.93 192.64 1011.06 189.6 1013.21 190.28 1009.89 179.47 1005.77 194.81 1008.36 193.98 1005.05 197.49 1001.84 209.46 1005.89 208.18 1000.71 213.66 999.62 217.74 1004.95 216.05 998.13 223.27 997.4 225.99 1009.71 225.99 1024.17 225.99 1022.95 222.01"/><polygon class="cls-39" points="1623.85 172.09 1613.09 160.68 1621.13 163.24 1618.52 154.74 1609.93 145.63 1616.35 147.67 1615.61 145.24 1609.51 138.78 1614.07 140.22 1607.69 119.47 1607.69 119.47 1602.55 114.03 1606.39 115.25 1600.45 95.89 1593.08 123.36 1597.71 121.89 1591.79 128.16 1586.03 149.61 1593.29 147.3 1584.01 157.13 1582.05 164.44 1591.6 161.4 1579.4 174.34 1578.09 179.21 1600.13 179.21 1626.04 179.21 1623.85 172.09"/><polygon class="cls-40" points="1734.85 157.22 1724.09 145.81 1732.13 148.37 1729.52 139.87 1720.93 130.76 1727.35 132.8 1726.61 130.37 1720.51 123.91 1725.07 125.35 1718.69 104.6 1718.69 104.6 1713.55 99.16 1717.39 100.38 1711.45 81.02 1704.08 108.49 1708.71 107.02 1702.79 113.29 1697.03 134.74 1704.29 132.43 1695.01 142.26 1693.05 149.56 1702.6 146.53 1690.4 159.47 1689.09 164.34 1711.13 164.34 1737.04 164.34 1734.85 157.22"/><polygon class="cls-41" points="1717.09 166.56 1706.33 155.15 1714.37 157.71 1711.76 149.21 1703.17 140.1 1709.59 142.14 1708.85 139.71 1702.74 133.25 1707.31 134.69 1700.93 113.94 1700.93 113.94 1695.79 108.5 1699.63 109.72 1693.69 90.36 1686.32 117.83 1690.95 116.36 1685.03 122.63 1679.27 144.08 1686.53 141.78 1677.25 151.6 1675.29 158.91 1684.84 155.87 1672.63 168.81 1671.33 173.68 1693.37 173.68 1719.28 173.68 1717.09 166.56"/><polygon class="cls-42" points="1753.39 167.07 1742.63 155.66 1750.67 158.22 1748.06 149.72 1739.47 140.61 1745.89 142.65 1745.14 140.22 1739.04 133.76 1743.61 135.21 1737.23 114.46 1737.23 114.45 1732.09 109.01 1735.93 110.23 1729.99 90.87 1722.62 118.34 1727.25 116.87 1721.33 123.14 1715.57 144.59 1722.83 142.29 1713.55 152.11 1711.59 159.42 1721.14 156.38 1708.93 169.32 1707.63 174.19 1729.67 174.19 1755.58 174.19 1753.39 167.07"/><polygon class="cls-43" points="1766.04 162.28 1755.28 150.88 1763.32 153.43 1760.71 144.94 1752.12 135.83 1758.54 137.87 1757.8 135.44 1751.69 128.97 1756.26 130.42 1749.88 109.67 1749.88 109.67 1744.74 104.22 1748.58 105.44 1742.64 86.08 1735.27 113.55 1739.9 112.08 1733.98 118.36 1728.22 139.8 1735.47 137.5 1726.2 147.33 1724.24 154.63 1733.79 151.6 1721.58 164.53 1720.28 169.4 1742.32 169.4 1768.23 169.4 1766.04 162.28"/><polygon class="cls-44" points="1793.54 158.47 1782.78 147.06 1790.82 149.62 1788.21 141.13 1779.62 132.02 1786.04 134.06 1785.3 131.63 1779.19 125.16 1783.76 126.61 1777.38 105.86 1777.38 105.86 1772.24 100.41 1776.08 101.63 1770.14 82.27 1762.77 109.74 1767.4 108.27 1761.48 114.55 1755.72 135.99 1762.97 133.69 1753.7 143.51 1751.74 150.82 1761.29 147.79 1749.08 160.72 1747.78 165.59 1769.82 165.59 1795.73 165.59 1793.54 158.47"/><polygon class="cls-45" points="1816.09 156.24 1805.33 144.84 1813.37 147.39 1810.76 138.9 1802.17 129.78 1808.59 131.82 1807.85 129.39 1801.74 122.93 1806.31 124.38 1799.93 103.63 1799.93 103.63 1794.79 98.18 1798.63 99.4 1792.69 80.04 1785.32 107.51 1789.95 106.04 1784.03 112.32 1778.27 133.76 1785.53 131.46 1776.25 141.28 1774.29 148.59 1783.84 145.56 1771.63 158.49 1770.33 163.36 1792.37 163.36 1818.28 163.36 1816.09 156.24"/><polygon class="cls-46" points="1157.85 216.7 1147.09 205.29 1155.13 207.85 1152.52 199.36 1143.93 190.25 1150.35 192.29 1149.61 189.85 1143.51 183.39 1148.07 184.84 1141.69 164.09 1141.69 164.09 1136.55 158.64 1140.39 159.86 1134.45 140.5 1127.08 167.97 1131.71 166.5 1125.79 172.78 1120.03 194.22 1127.29 191.92 1118.01 201.75 1116.05 209.05 1125.6 206.02 1113.4 218.95 1112.09 223.82 1134.13 223.82 1160.04 223.82 1157.85 216.7"/><polygon class="cls-47" points="1346.13 226.52 1335.37 215.11 1343.41 217.66 1340.8 209.17 1332.2 200.06 1338.63 202.1 1337.88 199.67 1331.78 193.21 1336.34 194.65 1329.97 173.9 1329.97 173.9 1324.83 168.46 1328.67 169.68 1322.73 150.32 1315.36 177.79 1319.99 176.32 1314.07 182.59 1308.31 204.03 1315.56 201.73 1306.29 211.56 1304.33 218.86 1313.88 215.83 1301.67 228.77 1300.37 233.64 1322.41 233.64 1348.32 233.64 1346.13 226.52"/><polygon class="cls-48" points="1463 203.19 1452.24 191.78 1460.28 194.34 1457.68 185.84 1449.08 176.73 1455.51 178.77 1454.76 176.34 1448.66 169.88 1453.22 171.32 1446.85 150.57 1446.85 150.57 1441.71 145.13 1445.55 146.35 1439.6 126.99 1432.23 154.46 1436.86 152.99 1430.94 159.26 1425.19 180.71 1432.44 178.4 1423.17 188.23 1421.2 195.53 1430.75 192.5 1418.55 205.44 1417.24 210.31 1439.28 210.31 1465.19 210.31 1463 203.19"/><polygon class="cls-49" points="1485.28 194.19 1474.52 182.79 1482.56 185.34 1479.95 176.85 1471.36 167.74 1477.78 169.78 1477.03 167.35 1470.93 160.88 1475.49 162.33 1469.12 141.58 1469.12 141.58 1463.98 136.13 1467.82 137.35 1461.88 118 1454.51 145.47 1459.14 143.99 1453.22 150.27 1447.46 171.71 1454.71 169.41 1445.44 179.24 1443.48 186.54 1453.03 183.51 1440.82 196.44 1439.52 201.31 1461.56 201.31 1487.46 201.31 1485.28 194.19"/><polygon class="cls-50" points="1520.2 187.71 1509.44 176.3 1517.48 178.86 1514.88 170.37 1506.28 161.25 1512.7 163.29 1511.96 160.86 1505.86 154.4 1510.42 155.85 1504.05 135.1 1504.05 135.1 1498.91 129.65 1502.75 130.87 1496.8 111.51 1489.43 138.98 1494.06 137.51 1488.14 143.79 1482.39 165.23 1489.64 162.93 1480.37 172.75 1478.4 180.06 1487.95 177.03 1475.75 189.96 1474.44 194.83 1496.48 194.83 1522.39 194.83 1520.2 187.71"/><polygon class="cls-51" points="1204.23 219.31 1193.46 207.91 1201.51 210.46 1198.9 201.97 1190.31 192.86 1196.73 194.9 1195.98 192.47 1189.88 186 1194.44 187.45 1188.07 166.7 1188.07 166.7 1182.93 161.25 1186.77 162.47 1180.83 143.12 1173.45 170.58 1178.09 169.11 1172.17 175.39 1166.41 196.83 1173.66 194.53 1164.39 204.36 1162.43 211.66 1171.98 208.63 1159.77 221.56 1158.47 226.43 1180.51 226.43 1206.41 226.43 1204.23 219.31"/><polygon class="cls-52" points="1642.85 173.95 1632.09 162.54 1640.13 165.09 1637.52 156.6 1628.93 147.49 1635.35 149.53 1634.61 147.1 1628.51 140.63 1633.07 142.08 1626.69 121.33 1626.69 121.33 1621.55 115.89 1625.39 117.11 1619.45 97.75 1612.08 125.22 1616.71 123.75 1610.79 130.02 1605.03 151.47 1612.29 149.16 1603.01 158.99 1601.05 166.29 1610.6 163.26 1598.4 176.2 1597.09 181.07 1619.13 181.07 1645.04 181.07 1642.85 173.95"/><polygon class="cls-53" points="999.85 237.15 989.09 225.74 997.13 228.3 994.52 219.8 985.93 210.69 992.35 212.73 991.61 210.3 985.51 203.84 990.07 205.29 983.69 184.54 983.69 184.54 978.55 179.09 982.39 180.31 976.45 160.95 969.08 188.42 973.71 186.95 967.79 193.23 962.03 214.67 969.29 212.37 960.01 222.19 958.05 229.5 967.6 226.47 955.4 239.4 954.09 244.27 976.13 244.27 1002.04 244.27 999.85 237.15"/><polygon class="cls-54" points="1118.16 198.32 1108.48 189.85 1116.18 191.87 1113.24 182.29 1106.2 176.12 1111.8 177.59 1103.23 149.71 1103.23 149.71 1098.82 145.85 1102.33 146.77 1096.81 128.79 1088.82 158.57 1095.01 156.95 1087.49 163.53 1085.26 171.82 1091.96 170.07 1083.82 177.19 1075.95 206.5 1087.13 203.57 1073.55 215.45 1073.55 215.46 1069.82 229.37 1096.81 229.37 1127.7 229.37 1118.16 198.32"/><polygon class="cls-55" points="1234.56 193.51 1221.82 182.36 1231.95 185.01 1228.08 172.41 1218.81 164.3 1226.18 166.23 1214.91 129.54 1214.91 129.54 1209.11 124.46 1213.72 125.67 1206.46 102.02 1195.94 141.2 1204.09 139.07 1194.19 147.73 1191.26 158.64 1200.07 156.33 1189.37 165.7 1179.01 204.28 1193.71 200.42 1175.85 216.06 1175.85 216.06 1170.94 234.36 1206.46 234.36 1247.1 234.36 1234.56 193.51"/><polygon class="cls-56" points="1396.2 190.04 1383.47 178.9 1393.6 181.55 1389.73 168.95 1380.46 160.84 1387.83 162.77 1376.56 126.08 1376.56 126.08 1370.76 121 1375.37 122.21 1368.11 98.56 1357.59 137.74 1365.74 135.6 1355.84 144.27 1352.91 155.18 1361.72 152.87 1351.02 162.24 1340.66 200.81 1355.37 196.96 1337.5 212.59 1337.5 212.6 1332.59 230.9 1368.11 230.9 1408.75 230.9 1396.2 190.04"/><polygon class="cls-57" points="1546.95 152.42 1534.22 141.28 1544.35 143.93 1540.48 131.33 1531.21 123.22 1538.58 125.15 1527.31 88.46 1527.31 88.46 1521.51 83.38 1526.12 84.59 1518.86 60.94 1508.34 100.12 1516.49 97.98 1506.59 106.65 1503.66 117.56 1512.47 115.25 1501.77 124.62 1491.41 163.19 1506.12 159.34 1488.25 174.97 1488.25 174.98 1483.34 193.28 1518.86 193.28 1559.5 193.28 1546.95 152.42"/><polygon class="cls-58" points="1434.15 193.88 1421.42 182.73 1431.55 185.39 1427.68 172.78 1418.41 164.67 1425.78 166.6 1414.51 129.91 1414.51 129.91 1408.71 124.83 1413.32 126.04 1406.06 102.39 1395.54 141.57 1403.69 139.44 1393.79 148.1 1390.86 159.01 1399.67 156.7 1388.97 166.07 1378.61 204.65 1393.32 200.79 1375.45 216.43 1375.45 216.43 1370.54 234.74 1406.06 234.74 1446.7 234.74 1434.15 193.88"/><polygon class="cls-59" points="1585.53 145.62 1572.8 134.47 1582.92 137.12 1579.05 124.52 1569.78 116.41 1577.15 118.34 1565.89 81.65 1565.89 81.65 1560.08 76.57 1564.7 77.78 1557.43 54.13 1546.92 93.31 1555.06 91.18 1545.16 99.84 1542.24 110.75 1551.05 108.44 1540.34 117.81 1529.99 156.38 1544.69 152.53 1526.83 168.16 1526.83 168.17 1521.91 186.47 1557.43 186.47 1598.08 186.47 1585.53 145.62"/><polygon class="cls-60" points="1688.4 140.94 1675.67 129.8 1685.8 132.45 1681.93 119.85 1672.66 111.74 1680.03 113.67 1668.76 76.98 1668.76 76.98 1662.96 71.9 1667.57 73.11 1660.31 49.46 1649.79 88.64 1657.94 86.5 1648.04 95.17 1645.11 106.08 1653.92 103.77 1643.22 113.14 1632.86 151.72 1647.57 147.86 1629.7 163.49 1629.7 163.5 1624.79 181.8 1660.31 181.8 1700.95 181.8 1688.4 140.94"/><polygon class="cls-61" points="1317.61 192.3 1304.87 181.15 1315 183.81 1311.13 171.2 1301.86 163.09 1309.23 165.02 1297.96 128.33 1297.96 128.33 1292.16 123.25 1296.77 124.46 1289.51 100.81 1278.99 139.99 1287.14 137.86 1277.24 146.52 1274.31 157.43 1283.12 155.12 1272.42 164.49 1262.06 203.07 1276.77 199.21 1258.9 214.85 1258.9 214.85 1253.99 233.15 1289.51 233.15 1330.15 233.15 1317.61 192.3"/><polygon class="cls-62" points="1010.26 229.45 1004.25 223.08 1008.74 224.51 1007.29 219.76 1002.49 214.68 1006.07 215.82 1005.66 214.46 1002.25 210.85 1004.8 211.66 1001.24 200.07 1001.24 200.07 998.37 197.03 1000.51 197.71 997.2 186.9 993.08 202.24 995.67 201.42 992.36 204.92 989.15 216.9 993.2 215.61 988.02 221.1 986.92 225.18 992.25 223.48 985.44 230.7 984.71 233.42 997.02 233.42 1011.48 233.42 1010.26 229.45"/><polygon class="cls-63" points="1493.26 185.76 1487.25 179.4 1491.74 180.82 1490.29 176.08 1485.49 170.99 1489.07 172.13 1488.66 170.77 1485.25 167.16 1487.8 167.97 1484.24 156.39 1484.24 156.39 1481.37 153.35 1483.52 154.03 1480.2 143.22 1476.08 158.56 1478.67 157.74 1475.36 161.24 1472.15 173.21 1476.2 171.93 1471.02 177.41 1469.92 181.49 1475.26 179.8 1468.44 187.02 1467.71 189.74 1480.02 189.74 1494.48 189.74 1493.26 185.76"/><polygon class="cls-64" points="1794.26 122.67 1783.85 113.56 1792.13 115.73 1788.96 105.42 1781.38 98.78 1787.41 100.36 1778.19 70.34 1778.19 70.34 1773.44 66.18 1777.22 67.17 1771.28 47.82 1762.67 79.88 1769.34 78.13 1761.24 85.22 1758.84 94.15 1766.05 92.26 1757.29 99.93 1748.82 131.49 1760.85 128.33 1746.23 141.13 1746.23 141.13 1742.21 156.1 1771.28 156.1 1804.53 156.1 1794.26 122.67"/><polygon class="cls-65" points="1846.26 118.03 1835.85 108.91 1844.13 111.08 1840.96 100.77 1833.38 94.13 1839.41 95.71 1830.19 65.69 1830.19 65.69 1825.44 61.53 1829.22 62.53 1823.28 43.18 1814.67 75.23 1821.34 73.49 1813.24 80.58 1810.84 89.5 1818.05 87.61 1809.29 95.28 1800.82 126.84 1812.85 123.69 1798.23 136.48 1798.23 136.48 1794.21 151.46 1823.28 151.46 1856.53 151.46 1846.26 118.03"/><polygon class="cls-66" points="1909.15 84.14 1896.55 73.89 1906.57 76.33 1902.74 64.74 1893.57 57.28 1900.87 59.05 1889.72 25.31 1889.72 25.31 1883.97 20.64 1888.54 21.75 1881.36 0 1870.95 36.03 1879.01 34.07 1869.22 42.04 1866.32 52.07 1875.04 49.95 1864.45 58.57 1854.2 94.04 1868.75 90.5 1851.08 104.88 1851.08 104.88 1846.21 121.71 1881.36 121.71 1921.56 121.71 1909.15 84.14"/><polygon class="cls-67" points="1873.72 129.51 1862.96 118.1 1871 120.66 1868.4 112.16 1859.8 103.06 1866.22 105.09 1865.48 102.66 1859.38 96.2 1863.94 97.65 1857.56 76.9 1857.56 76.9 1852.43 71.45 1856.27 72.67 1850.32 53.31 1842.95 80.78 1847.58 79.31 1841.66 85.59 1835.91 107.03 1843.16 104.73 1833.88 114.55 1831.92 121.86 1841.47 118.83 1829.27 131.76 1827.96 136.63 1850 136.63 1875.91 136.63 1873.72 129.51"/><polygon class="cls-68" points="25.72 309.83 14.96 298.42 23 300.98 20.4 292.48 11.8 283.37 18.22 285.41 17.48 282.98 11.38 276.51 15.94 277.96 9.56 257.21 9.56 257.21 4.43 251.77 8.27 252.99 0.32 233.63 0.58 259.63 0 316.95 27.91 316.95 25.72 309.83"/><polygon class="cls-69" points="1896.19 105.34 1906.95 93.94 1898.91 96.49 1901.51 88 1910.11 78.89 1903.69 80.93 1904.43 78.5 1910.53 72.03 1905.97 73.48 1912.35 52.73 1912.35 52.73 1917.48 47.29 1913.64 48.51 1921.59 29.15 1921.33 55.15 1921.91 112.47 1894 112.47 1896.19 105.34"/></g><g id="mountain_group"><path class="cls-70" d="M1921,79.13l-152.81,64.61s-174.55,14.84-204,14-64.68,10.48-64.68,10.48L1340,206.6h-47l-114.18-12.22h-38.62l-88.57,17.46H1008l-19.28,4.36L953.09,204l-61-13.09L878.25,183l-49.46-2.62-19.65-10.48-33.64,3.49-77,20.08-40.3,7L560.86,211,473.55,238S335.12,270.4,289.94,273.86s-167.34,3.46-167.34,3.46L1,291v180.1H1921Z"/><path class="cls-71" d="M725.07,214.89,664.13,228S642.72,252.22,620.05,262s-109.56,28.81-109.56,28.81l-66.75,37.32L332.92,406.55l-44.65,64.59H469L599.9,329.48l100.75-43.21s45.32-29.47,69.89-34,48.83-8.51,66.92-13.75,28.11-14.41,59-12.44c0,0,13.46-7.21,48-5.24s44.23-4.59,44.23-4.59L953.09,204l-61-13.1L878.25,183l-49.46-2.62-19.64-10.48-28.69,23.36Z"/><polygon class="cls-71" points="1201.77 196.84 1201.77 196.84 1154.02 212.93 1123.8 240.43 1083.5 275.14 988.67 298.49 886.6 350.44 856.68 390.38 951.48 333.39 1075 300.02 1181.73 270.55 1250.99 237.16 1339.99 206.6 1292.97 206.6 1201.77 196.84"/></g></g></g></g></svg>