<svg xmlns="http://www.w3.org/2000/svg" xmlns:xlink="http://www.w3.org/1999/xlink" viewBox="0 0 1920 355.09"><defs><style>.cls-1{isolation:isolate;}.cls-2{fill:url(#linear-gradient);}.cls-3{fill:#1e0b53;opacity:0.59;}.cls-3,.cls-4{mix-blend-mode:overlay;}.cls-4{fill:#fffdf6;opacity:0.37;}</style><linearGradient id="linear-gradient" x1="960" y1="449.11" x2="960" y2="-23.14" gradientUnits="userSpaceOnUse"><stop offset="0" stop-color="#fff8cf"/><stop offset="0.14" stop-color="#f6f7cc"/><stop offset="0.37" stop-color="#def5c2"/><stop offset="0.66" stop-color="#b6f2b3"/><stop offset="1" stop-color="#80ee9e"/></linearGradient></defs><g class="cls-1"><g id="Layer_2" data-name="Layer 2"><g id="layer-5"><g id="back_mountain"><path class="cls-2" d="M1137,207.19s-30.06-41-37.79-64.06-14.6-63.06-37.78-73.06-51.21-23-51.21-23L973,15,955.8,0H935.19s-10.31,11-24.91,12-54.1,23-54.1,23-38.64,31-45.51,35-59.26,22-59.26,22l-77.29,29L570.21,189.18,0,355.09H1920Z"/><path class="cls-3" d="M1000.88,56.87c14.17,10.51,50.24,48.05,47.67,66.06s-38.33,48-38.33,48l-15.78,43.54-67,37.53L817.74,354l1102.26.82L1137,208s-30.06-41-37.79-64.06-14.6-63.06-37.78-73.07-51.21-23-51.21-23L973,15.83S986.71,46.36,1000.88,56.87Z"/><path class="cls-4" d="M827,90.08l26.62-20,28.34-35L921.8,9.09A34.83,34.83,0,0,1,910.28,12c-14.6,1-54.1,23-54.1,23s-38.64,31-45.51,35-59.26,22-59.26,22l-77.29,29,46.37-4Z"/></g></g></g></g></svg>