<svg xmlns="http://www.w3.org/2000/svg" xmlns:xlink="http://www.w3.org/1999/xlink" viewBox="0 0 1922 603"><defs><style>.cls-1{isolation:isolate;}.cls-2{fill:url(#linear-gradient);}.cls-3,.cls-7,.cls-8{fill:#1e0b53;}.cls-3,.cls-6,.cls-7,.cls-8{mix-blend-mode:overlay;}.cls-3{opacity:0.59;}.cls-4{fill:#497278;}.cls-5{fill:url(#linear-gradient-2);}.cls-6{fill:#fffdf6;opacity:0.37;}.cls-7{opacity:0.32;}.cls-8{opacity:0.08;}</style><linearGradient id="linear-gradient" x1="1355" y1="577.71" x2="1355" y2="-55.71" gradientUnits="userSpaceOnUse"><stop offset="0" stop-color="#d8f5bf"/><stop offset="0.16" stop-color="#bceeb8"/><stop offset="0.49" stop-color="#75dca8"/><stop offset="0.98" stop-color="#05c08d"/><stop offset="1" stop-color="#00bf8c"/></linearGradient><linearGradient id="linear-gradient-2" x1="676" y1="759.19" x2="676" y2="189.54" gradientUnits="userSpaceOnUse"><stop offset="0" stop-color="#d8f5bf"/><stop offset="0.16" stop-color="#bce8b7"/><stop offset="0.49" stop-color="#75c5a1"/><stop offset="0.98" stop-color="#058e7e"/><stop offset="1" stop-color="#008c7d"/></linearGradient></defs><g class="cls-1"><g id="Layer_2" data-name="Layer 2"><g id="layer-4"><g id="middle_mountain"><path class="cls-2" d="M1919.81,0s-88.58,59.4-115,74.73-86.69,13.41-86.69,13.41h-28.27l-30.15-21.08-58.43,40.24-77.26,57.49-79.16-61.32-13.19-23-30.15,5.75L1247,176.28l-24.5,19.17h-43.34L1128.28,184,977.52,293.17,790,410.05V597.83l1130-.29Z"/><path class="cls-3" d="M1423.22,191.13l-38.16,30.18L1354,277.36v46.15l-39.57,68.82-25.92,46.46L1385.06,342l60.5-92.93,78.49-84.31-79.16-61.32C1450.08,142.27,1423.22,191.13,1423.22,191.13Z"/><path class="cls-3" d="M1804.85,74.73a55.13,55.13,0,0,1-7.15,3.42s-35.25,45.44-60.7,65.56-101.76,76.17-101.76,76.17-46.65,79-77.74,97.72-127.21,92.45-127.21,92.45L1294.6,597.83l625.4-.29L1919.81,0S1831.23,59.4,1804.85,74.73Z"/></g><g id="forest-group"><polygon class="cls-4" points="983.93 432.87 975.32 423.05 981.75 425.25 979.66 417.94 972.79 410.1 977.93 411.86 977.33 409.76 972.45 404.2 976.1 405.45 971 387.59 971 387.58 966.89 382.9 969.96 383.95 965.21 367.29 959.31 390.93 963.01 389.66 958.28 395.06 953.67 413.52 959.48 411.54 952.06 420 950.49 426.29 958.13 423.68 948.36 434.81 947.32 439 964.95 439 985.68 439 983.93 432.87"/><polygon class="cls-4" points="932.93 388.87 924.32 379.05 930.75 381.25 928.66 373.94 921.79 366.1 926.93 367.86 926.33 365.76 921.45 360.2 925.1 361.45 920 343.59 920 343.58 915.89 338.9 918.96 339.95 914.21 323.29 908.31 346.93 912.01 345.66 907.28 351.06 902.67 369.52 908.48 367.54 901.06 376 899.49 382.29 907.13 379.68 897.36 390.81 896.32 395 913.95 395 934.68 395 932.93 388.87"/><polygon class="cls-4" points="777.93 334.87 769.32 325.05 775.75 327.25 773.66 319.94 766.79 312.1 771.93 313.86 771.33 311.76 766.45 306.2 770.1 307.45 765 289.59 765 289.58 760.89 284.9 763.96 285.95 759.21 269.29 753.31 292.93 757.01 291.66 752.28 297.06 747.67 315.52 753.48 313.54 746.06 322 744.49 328.29 752.13 325.68 742.36 336.81 741.32 341 758.95 341 779.68 341 777.93 334.87"/><polygon class="cls-4" points="1070.93 466.87 1062.32 457.05 1068.75 459.25 1066.66 451.94 1059.79 444.1 1064.93 445.86 1064.33 443.76 1059.45 438.2 1063.1 439.45 1058 421.59 1058 421.58 1053.89 416.9 1056.96 417.95 1052.21 401.29 1046.31 424.93 1050.01 423.66 1045.28 429.06 1040.67 447.52 1046.47 445.54 1039.06 454 1037.49 460.29 1045.13 457.68 1035.36 468.81 1034.32 473 1051.95 473 1072.68 473 1070.93 466.87"/><polygon class="cls-4" points="1080.93 457.87 1072.32 448.05 1078.75 450.25 1076.66 442.94 1069.79 435.1 1074.93 436.86 1074.33 434.76 1069.45 429.2 1073.1 430.45 1068 412.59 1068 412.58 1063.89 407.9 1066.96 408.95 1062.21 392.29 1056.31 415.93 1060.01 414.66 1055.28 420.06 1050.67 438.52 1056.47 436.54 1049.06 445 1047.49 451.29 1055.13 448.68 1045.36 459.81 1044.32 464 1061.95 464 1082.68 464 1080.93 457.87"/><polygon class="cls-4" points="1096.93 487.87 1088.32 478.05 1094.75 480.25 1092.66 472.94 1085.79 465.1 1090.93 466.86 1090.33 464.76 1085.45 459.2 1089.1 460.45 1084 442.59 1084 442.58 1079.89 437.9 1082.96 438.95 1078.21 422.29 1072.31 445.93 1076.01 444.66 1071.28 450.06 1066.67 468.52 1072.47 466.54 1065.06 475 1063.49 481.29 1071.13 478.68 1061.36 489.81 1060.32 494 1077.95 494 1098.68 494 1096.93 487.87"/><polygon class="cls-4" points="1123.93 459.87 1115.32 450.05 1121.75 452.25 1119.66 444.94 1112.79 437.1 1117.93 438.86 1117.33 436.76 1112.45 431.2 1116.1 432.45 1111 414.59 1111 414.58 1106.89 409.9 1109.96 410.95 1105.21 394.29 1099.31 417.93 1103.01 416.66 1098.28 422.06 1093.67 440.52 1099.47 438.54 1092.06 447 1090.49 453.29 1098.13 450.68 1088.36 461.81 1087.32 466 1104.95 466 1125.68 466 1123.93 459.87"/><polygon class="cls-4" points="1142.93 463.87 1134.32 454.05 1140.75 456.25 1138.66 448.94 1131.79 441.1 1136.93 442.86 1136.33 440.76 1131.45 435.2 1135.1 436.45 1130 418.59 1130 418.58 1125.89 413.9 1128.96 414.95 1124.21 398.29 1118.31 421.93 1122.01 420.66 1112.28 424.06 1107.67 442.52 1118.47 442.54 1111.06 451 1109.49 457.29 1117.13 454.68 1107.36 465.81 1106.32 470 1123.95 470 1144.68 470 1142.93 463.87"/><polygon class="cls-4" points="759.93 334.87 751.32 325.05 757.75 327.25 755.66 319.94 748.79 312.1 753.93 313.86 753.33 311.76 748.45 306.2 752.1 307.45 747 289.59 747 289.58 742.89 284.9 745.96 285.95 741.21 269.29 735.31 292.93 739.01 291.66 734.28 297.06 729.67 315.52 735.48 313.54 728.06 322 726.49 328.29 734.13 325.68 724.36 336.81 723.32 341 740.95 341 761.68 341 759.93 334.87"/><polygon class="cls-4" points="853.52 385.23 844.9 375.41 851.34 377.61 849.25 370.3 842.38 362.45 847.52 364.21 846.92 362.12 842.04 356.55 845.69 357.8 840.59 339.94 840.59 339.94 836.48 335.25 839.55 336.3 834.79 319.64 828.9 343.28 832.6 342.02 827.87 347.42 823.26 365.88 829.06 363.89 821.65 372.35 820.08 378.64 827.72 376.03 817.95 387.16 816.9 391.35 834.54 391.35 855.26 391.35 853.52 385.23"/><polygon class="cls-4" points="871.34 390.29 862.72 380.47 869.16 382.67 867.07 375.36 860.2 367.51 865.34 369.27 864.74 367.18 859.86 361.61 863.51 362.86 858.41 345 858.41 345 854.3 340.31 857.37 341.36 852.62 324.7 846.72 348.34 850.42 347.08 845.69 352.48 841.08 370.94 846.88 368.95 839.47 377.41 837.9 383.7 845.54 381.09 835.77 392.22 834.73 396.41 852.36 396.41 873.09 396.41 871.34 390.29"/><polygon class="cls-4" points="899.28 375.11 890.66 365.29 897.1 367.49 895.01 360.18 888.14 352.33 893.28 354.09 892.68 352 887.8 346.43 891.45 347.68 886.35 329.82 886.35 329.82 882.24 325.13 885.31 326.18 880.55 309.52 874.66 333.16 878.36 331.9 873.63 337.3 869.02 355.76 874.82 353.77 867.41 362.23 865.84 368.52 873.48 365.91 863.71 377.04 862.66 381.23 880.3 381.23 901.02 381.23 899.28 375.11"/><polygon class="cls-4" points="1000.93 435.87 992.32 426.05 998.75 428.25 996.66 420.94 989.79 413.1 994.93 414.86 994.33 412.76 989.45 407.2 993.1 408.45 988 390.59 988 390.58 983.89 385.9 986.96 386.95 982.21 370.29 976.31 393.93 980.01 392.66 975.28 398.06 970.67 416.52 976.48 414.54 969.06 423 967.49 429.29 975.13 426.68 965.36 437.81 964.32 442 981.95 442 1002.68 442 1000.93 435.87"/><polygon class="cls-4" points="685.93 298.87 677.32 289.05 683.75 291.25 681.66 283.94 674.79 276.1 679.93 277.86 679.33 275.76 674.45 270.2 678.1 271.45 673 253.59 673 253.59 668.89 248.9 671.96 249.95 667.21 233.29 661.31 256.93 665.01 255.66 660.28 261.06 655.67 279.52 661.48 277.54 654.06 286 652.49 292.29 660.13 289.68 650.36 300.81 649.32 305 666.95 305 687.68 305 685.93 298.87"/><polygon class="cls-4" points="702.64 285.63 694.9 278.34 701.06 280.08 698.71 271.84 693.07 266.53 697.55 267.8 690.7 243.8 690.7 243.79 687.17 240.47 689.98 241.26 685.56 225.8 679.17 251.42 684.12 250.03 678.1 255.69 676.32 262.83 681.68 261.32 675.17 267.45 668.88 292.68 677.81 290.16 666.95 300.38 666.95 300.39 663.97 312.36 685.56 312.36 710.27 312.36 702.64 285.63"/><polygon class="cls-4" points="799.28 352.11 789.09 342.52 797.19 344.81 794.1 333.96 786.68 326.97 792.58 328.64 783.56 297.06 783.56 297.06 778.92 292.68 782.61 293.73 776.8 273.37 768.39 307.1 774.9 305.26 766.99 312.71 764.64 322.11 771.69 320.12 763.13 328.18 754.84 361.38 766.61 358.06 752.31 371.52 752.31 371.52 748.38 387.28 776.8 387.28 809.31 387.28 799.28 352.11"/><polygon class="cls-4" points="917.68 385.13 907.49 375.54 915.59 377.82 912.5 366.98 905.08 359.99 910.98 361.66 901.96 330.08 901.96 330.08 897.32 325.7 901.01 326.75 895.2 306.39 886.79 340.12 893.3 338.28 885.38 345.73 883.04 355.13 890.09 353.14 881.53 361.2 873.24 394.4 885 391.08 870.71 404.54 870.71 404.54 866.78 420.3 895.2 420.3 927.71 420.3 917.68 385.13"/><polygon class="cls-4" points="834.44 362.41 824.25 352.82 832.35 355.11 829.25 344.26 821.84 337.27 827.74 338.94 818.72 307.36 818.72 307.36 814.08 302.98 817.77 304.03 811.96 283.67 803.55 317.39 810.06 315.56 802.14 323.01 799.8 332.4 806.85 330.42 798.29 338.48 790 371.68 801.76 368.36 787.47 381.82 787.47 381.82 783.54 397.58 811.96 397.58 844.47 397.58 834.44 362.41"/><polygon class="cls-4" points="955.74 396.07 945.55 386.48 953.65 388.76 950.55 377.92 943.14 370.93 949.04 372.6 940.02 341.02 940.02 341.02 935.38 336.64 939.07 337.69 933.26 317.33 924.85 351.06 931.36 349.22 923.45 356.67 921.1 366.06 928.15 364.08 919.59 372.14 911.3 405.34 923.07 402.02 908.77 415.48 908.77 415.48 904.85 431.24 933.26 431.24 965.77 431.24 955.74 396.07"/><polygon class="cls-4" points="1034.64 422.85 1024.45 413.26 1032.55 415.55 1029.45 404.7 1022.04 397.71 1027.94 399.38 1018.92 367.8 1018.92 367.8 1014.28 363.42 1017.97 364.47 1012.16 344.11 1003.75 377.83 1010.26 376 1002.35 383.45 1000 392.85 1007.05 390.86 998.49 398.92 990.2 432.12 1001.97 428.8 987.67 442.26 987.67 442.26 983.75 458.02 1012.16 458.02 1044.67 458.02 1034.64 422.85"/><polygon class="cls-4" points="737.2 298.05 727.01 288.46 735.11 290.75 732.01 279.9 724.6 272.91 730.5 274.58 721.48 243 721.48 243 716.84 238.62 720.53 239.67 714.72 219.31 706.31 253.03 712.82 251.2 704.9 258.65 702.56 268.05 709.61 266.06 701.05 274.12 692.76 307.32 704.52 304 690.23 317.46 690.23 317.46 686.3 333.22 714.72 333.22 747.23 333.22 737.2 298.05"/><polygon class="cls-4" points="878.52 385.17 873.71 379.68 877.31 380.91 876.14 376.83 872.3 372.45 875.17 373.43 874.84 372.26 872.11 369.16 874.15 369.85 871.3 359.88 871.3 359.88 869.01 357.26 870.73 357.85 868.07 348.55 864.78 361.75 866.85 361.04 864.2 364.06 861.63 374.36 864.87 373.25 860.73 377.98 859.85 381.49 864.12 380.03 858.66 386.25 858.08 388.59 867.93 388.59 879.5 388.59 878.52 385.17"/><polygon class="cls-4" points="1173.57 474.09 1158.8 457.25 1169.83 461.02 1166.26 448.49 1154.46 435.04 1163.28 438.05 1162.26 434.46 1153.89 424.92 1160.14 427.06 1151.4 396.44 1151.4 396.44 1144.35 388.4 1149.62 390.2 1141.46 361.63 1131.35 402.17 1137.71 400 1129.58 409.26 1121.69 440.91 1131.64 437.51 1118.92 452.01 1116.23 462.79 1129.33 458.32 1112.59 477.41 1110.79 484.6 1141.02 484.6 1176.56 484.6 1173.57 474.09"/><polygon class="cls-4" points="1239.16 455.49 1224.4 438.66 1235.43 442.43 1231.86 429.89 1220.07 416.45 1228.88 419.46 1227.86 415.87 1219.49 406.33 1225.74 408.47 1217 377.85 1217 377.84 1209.95 369.81 1215.22 371.61 1207.07 343.04 1196.95 383.58 1203.31 381.41 1195.18 390.67 1187.29 422.31 1197.24 418.92 1184.52 433.42 1181.83 444.2 1194.93 439.72 1178.19 458.81 1176.39 466 1206.62 466 1242.16 466 1239.16 455.49"/><polygon class="cls-4" points="1276.09 469.57 1261.32 452.73 1272.35 456.5 1268.78 443.97 1256.98 430.52 1265.8 433.53 1264.78 429.94 1256.41 420.4 1262.66 422.54 1253.92 391.92 1253.92 391.92 1246.87 383.88 1252.14 385.68 1243.98 357.11 1233.87 397.65 1240.23 395.48 1232.1 404.74 1224.21 436.39 1234.16 432.99 1221.44 447.49 1218.75 458.27 1231.85 453.8 1215.11 472.89 1213.31 480.07 1243.54 480.07 1279.08 480.07 1276.09 469.57"/><polygon class="cls-4" points="1413.49 436.91 1404.88 427.09 1411.32 429.29 1409.23 421.98 1402.36 414.13 1407.5 415.89 1406.9 413.8 1402.02 408.23 1405.67 409.48 1400.57 391.62 1400.57 391.62 1396.46 386.93 1399.53 387.98 1394.78 371.32 1388.88 394.96 1392.58 393.7 1387.85 399.1 1383.24 417.56 1389.04 415.57 1381.63 424.03 1380.06 430.32 1387.69 427.71 1377.93 438.84 1376.88 443.03 1394.52 443.03 1415.24 443.03 1413.49 436.91"/><polygon class="cls-4" points="1390.37 426.81 1385.56 421.33 1389.15 422.56 1387.99 418.48 1384.15 414.1 1387.02 415.08 1386.69 413.91 1383.96 410.8 1386 411.5 1383.15 401.53 1383.15 401.53 1380.86 398.91 1382.57 399.5 1379.92 390.19 1376.62 403.39 1378.69 402.69 1376.05 405.7 1373.48 416.01 1376.72 414.9 1372.57 419.63 1371.7 423.13 1375.96 421.68 1370.51 427.89 1369.93 430.23 1379.77 430.23 1391.35 430.23 1390.37 426.81"/><polygon class="cls-4" points="1478.55 430.72 1473.74 425.24 1477.33 426.46 1476.17 422.38 1472.33 418.01 1475.2 418.99 1474.87 417.82 1472.14 414.71 1474.18 415.41 1471.33 405.44 1471.33 405.44 1469.04 402.82 1470.75 403.4 1468.1 394.1 1464.8 407.3 1466.87 406.6 1464.23 409.61 1461.66 419.92 1464.9 418.81 1460.75 423.53 1459.88 427.04 1464.14 425.58 1458.69 431.8 1458.11 434.14 1467.95 434.14 1479.53 434.14 1478.55 430.72"/><polygon class="cls-4" points="1716.05 379.61 1711.24 374.13 1714.83 375.36 1713.67 371.28 1709.83 366.9 1712.7 367.88 1712.37 366.71 1709.64 363.6 1711.68 364.3 1708.83 354.33 1708.83 354.33 1706.54 351.71 1708.25 352.3 1705.6 342.99 1702.3 356.19 1704.37 355.49 1701.73 358.5 1699.16 368.81 1702.4 367.7 1698.25 372.43 1697.38 375.94 1701.64 374.48 1696.19 380.69 1695.61 383.03 1705.45 383.03 1717.03 383.03 1716.05 379.61"/><polygon class="cls-4" points="1296.78 402.61 1291.97 397.13 1295.56 398.36 1294.4 394.28 1290.56 389.9 1293.43 390.88 1293.09 389.71 1290.37 386.6 1292.41 387.3 1289.56 377.33 1289.56 377.33 1287.27 374.71 1288.98 375.3 1286.33 365.99 1283.03 379.19 1285.1 378.49 1282.46 381.5 1279.88 391.81 1283.13 390.7 1278.98 395.43 1278.11 398.94 1282.37 397.48 1276.92 403.69 1276.34 406.03 1286.18 406.03 1297.75 406.03 1296.78 402.61"/><polygon class="cls-4" points="1674.4 372.61 1665.79 362.8 1672.22 364.99 1670.14 357.68 1663.26 349.84 1668.4 351.6 1667.8 349.5 1662.92 343.94 1666.57 345.19 1661.47 327.33 1661.47 327.33 1657.36 322.64 1660.43 323.69 1655.68 307.03 1649.78 330.67 1653.48 329.4 1648.75 334.81 1644.14 353.26 1649.95 351.28 1642.53 359.74 1640.96 366.03 1648.6 363.42 1638.83 374.55 1637.79 378.74 1655.42 378.74 1676.15 378.74 1674.4 372.61"/><polygon class="cls-4" points="1694.3 404.71 1685.68 394.89 1692.12 397.09 1690.03 389.77 1683.16 381.94 1688.3 383.69 1687.7 381.6 1682.82 376.03 1686.47 377.28 1681.37 359.42 1681.37 359.42 1677.26 354.73 1680.33 355.78 1675.58 339.12 1669.68 362.76 1673.38 361.5 1668.64 366.9 1664.04 385.36 1669.84 383.37 1662.42 391.83 1660.86 398.12 1668.49 395.51 1658.73 406.64 1657.68 410.83 1675.32 410.83 1696.05 410.83 1694.3 404.71"/><polygon class="cls-4" points="1778.1 405.51 1769.48 395.69 1775.92 397.89 1773.83 390.57 1766.96 382.74 1772.1 384.49 1771.5 382.4 1766.62 376.83 1770.27 378.08 1765.17 360.22 1765.17 360.22 1761.06 355.53 1764.13 356.58 1759.38 339.92 1753.48 363.56 1757.18 362.3 1752.44 367.7 1747.84 386.16 1753.64 384.17 1746.22 392.63 1744.66 398.92 1752.3 396.31 1742.53 407.44 1741.48 411.63 1759.12 411.63 1779.85 411.63 1778.1 405.51"/><polygon class="cls-4" points="1768.89 416.75 1760.28 406.93 1766.71 409.13 1764.63 401.82 1757.75 393.98 1762.89 395.73 1762.29 393.64 1757.41 388.07 1761.06 389.32 1755.96 371.46 1755.96 371.46 1751.85 366.77 1754.92 367.82 1750.17 351.16 1744.27 374.81 1747.97 373.54 1743.24 378.94 1738.63 397.4 1744.43 395.41 1737.02 403.87 1735.45 410.16 1743.09 407.55 1733.32 418.68 1732.28 422.88 1749.91 422.88 1770.64 422.88 1768.89 416.75"/><polygon class="cls-4" points="1808.05 420.27 1799.43 410.45 1805.87 412.65 1803.79 405.34 1796.91 397.5 1802.05 399.25 1801.45 397.16 1796.57 391.59 1800.22 392.84 1795.12 374.98 1795.12 374.98 1791.01 370.29 1794.08 371.34 1789.33 354.68 1783.43 378.32 1787.13 377.06 1782.4 382.46 1777.79 400.92 1783.6 398.93 1776.18 407.39 1774.61 413.68 1782.25 411.07 1772.48 422.2 1771.44 426.39 1789.07 426.39 1809.8 426.39 1808.05 420.27"/><polygon class="cls-4" points="1857.09 394.87 1848.47 385.05 1854.91 387.25 1852.83 379.94 1845.95 372.1 1851.09 373.85 1850.49 371.76 1845.61 366.19 1849.26 367.44 1844.16 349.58 1844.16 349.58 1840.05 344.89 1843.12 345.94 1838.37 329.28 1832.47 352.93 1836.17 351.66 1831.44 357.06 1826.83 375.52 1832.63 373.53 1825.22 381.99 1823.65 388.28 1831.29 385.67 1821.52 396.8 1820.48 401 1838.11 401 1858.84 401 1857.09 394.87"/><polygon class="cls-4" points="1321.49 457.91 1312.88 448.09 1319.32 450.29 1317.23 442.98 1310.36 435.13 1315.5 436.89 1314.9 434.8 1310.02 429.23 1313.67 430.48 1308.57 412.62 1308.57 412.62 1304.46 407.93 1307.53 408.98 1302.78 392.32 1296.88 415.96 1300.58 414.7 1295.85 420.1 1291.24 438.56 1297.04 436.57 1289.63 445.03 1288.06 451.32 1295.69 448.71 1285.93 459.84 1284.88 464.03 1302.52 464.03 1323.24 464.03 1321.49 457.91"/><polygon class="cls-4" points="1469.12 437.15 1460.51 427.33 1466.94 429.53 1464.86 422.22 1457.98 414.38 1463.12 416.14 1462.52 414.05 1457.64 408.48 1461.29 409.73 1456.19 391.87 1456.19 391.87 1452.08 387.18 1455.15 388.23 1450.4 371.57 1444.5 395.21 1448.2 393.94 1443.47 399.35 1438.86 417.8 1444.67 415.82 1437.25 424.28 1435.68 430.57 1443.32 427.96 1433.55 439.09 1432.51 443.28 1450.14 443.28 1470.87 443.28 1469.12 437.15"/><polygon class="cls-4" points="1563.62 410.67 1555.01 400.86 1561.44 403.05 1559.36 395.74 1552.48 387.9 1557.62 389.66 1557.02 387.56 1552.14 382 1555.79 383.25 1550.69 365.39 1550.69 365.39 1546.58 360.7 1549.65 361.75 1544.9 345.09 1539 368.73 1542.7 367.46 1537.97 372.87 1533.36 391.32 1539.17 389.34 1531.75 397.8 1530.18 404.09 1537.82 401.48 1528.05 412.61 1527.01 416.8 1544.64 416.8 1565.37 416.8 1563.62 410.67"/><polygon class="cls-4" points="1587.44 415.73 1578.83 405.92 1585.26 408.11 1583.18 400.8 1576.3 392.96 1581.44 394.72 1580.84 392.63 1575.96 387.06 1579.61 388.31 1574.51 370.45 1574.51 370.45 1570.4 365.76 1573.47 366.81 1568.72 350.15 1562.82 373.79 1566.53 372.52 1561.79 377.93 1557.18 396.38 1562.99 394.4 1555.57 402.86 1554 409.15 1561.64 406.54 1551.87 417.67 1550.83 421.86 1568.46 421.86 1589.19 421.86 1587.44 415.73"/><polygon class="cls-4" points="1603.93 421.87 1595.32 412.05 1601.75 414.25 1599.66 406.94 1592.79 399.1 1597.93 400.86 1597.33 398.76 1592.45 393.2 1596.1 394.45 1591 376.59 1591 376.58 1586.89 371.9 1589.96 372.95 1585.21 356.29 1579.31 379.93 1583.01 378.66 1578.28 384.06 1573.67 402.52 1579.47 400.54 1572.06 409 1570.49 415.29 1578.13 412.68 1568.36 423.81 1567.32 428 1584.95 428 1605.68 428 1603.93 421.87"/><polygon class="cls-4" points="1356.6 479.55 1347.99 469.74 1354.42 471.93 1352.34 464.62 1345.46 456.78 1350.6 458.54 1350 456.44 1345.12 450.88 1348.77 452.13 1343.67 434.27 1343.67 434.27 1339.56 429.58 1342.63 430.63 1337.88 413.97 1331.98 437.61 1335.68 436.35 1330.95 441.75 1326.34 460.2 1332.15 458.22 1324.73 466.68 1323.16 472.97 1330.8 470.36 1321.03 481.49 1319.99 485.68 1337.62 485.68 1358.35 485.68 1356.6 479.55"/><polygon class="cls-4" points="1709.49 402.31 1700.88 392.49 1707.32 394.69 1705.23 387.38 1698.36 379.54 1703.5 381.29 1702.9 379.2 1698.02 373.63 1701.67 374.88 1696.57 357.02 1696.57 357.02 1692.46 352.33 1695.53 353.38 1690.78 336.72 1684.88 360.36 1688.58 359.1 1683.85 364.5 1679.24 382.96 1685.04 380.97 1677.63 389.43 1676.06 395.72 1683.69 393.11 1673.93 404.24 1672.88 408.43 1690.52 408.43 1711.24 408.43 1709.49 402.31"/><polygon class="cls-4" points="1194.3 461.11 1185.68 451.29 1192.12 453.49 1190.03 446.18 1183.16 438.33 1188.3 440.09 1187.7 438 1182.82 432.43 1186.47 433.68 1181.37 415.82 1181.37 415.82 1177.26 411.13 1180.33 412.18 1175.58 395.52 1169.68 419.16 1173.38 417.9 1168.64 423.3 1164.04 441.76 1169.84 439.77 1162.42 448.23 1160.86 454.52 1168.49 451.91 1158.73 463.04 1157.68 467.23 1175.32 467.23 1196.05 467.23 1194.3 461.11"/><polygon class="cls-4" points="1287.74 457.08 1280 449.79 1286.16 451.53 1283.81 443.29 1278.17 437.98 1282.65 439.24 1275.8 415.24 1275.8 415.24 1272.27 411.92 1275.08 412.71 1270.66 397.24 1264.27 422.87 1269.22 421.47 1263.2 427.14 1261.42 434.28 1266.78 432.77 1260.27 438.89 1253.98 464.13 1262.92 461.6 1252.06 471.83 1252.06 471.83 1249.07 483.81 1270.66 483.81 1295.37 483.81 1287.74 457.08"/><polygon class="cls-4" points="1380.86 447.34 1370.67 437.75 1378.77 440.03 1375.68 429.19 1368.26 422.2 1374.16 423.87 1365.14 392.29 1365.14 392.28 1360.5 387.91 1364.19 388.95 1358.38 368.6 1349.97 402.32 1356.48 400.48 1348.57 407.94 1346.22 417.33 1353.27 415.34 1344.71 423.41 1336.43 456.61 1348.19 453.29 1333.9 466.75 1333.9 466.75 1329.97 482.51 1358.38 482.51 1390.9 482.51 1380.86 447.34"/><polygon class="cls-4" points="1511.38 421.56 1501.19 411.97 1509.29 414.25 1506.2 403.4 1498.78 396.42 1504.68 398.08 1495.66 366.51 1495.66 366.5 1491.02 362.13 1494.71 363.17 1488.9 342.82 1480.49 376.54 1487.01 374.7 1479.09 382.16 1476.74 391.55 1483.79 389.56 1475.23 397.63 1466.95 430.83 1478.71 427.51 1464.42 440.97 1464.42 440.97 1460.49 456.73 1488.9 456.73 1521.42 456.73 1511.38 421.56"/><polygon class="cls-4" points="1632.78 395.58 1622.59 385.99 1630.69 388.27 1627.6 377.43 1620.18 370.44 1626.08 372.11 1617.06 340.53 1617.06 340.52 1612.42 336.15 1616.11 337.19 1610.3 316.84 1601.89 350.56 1608.4 348.72 1600.49 356.18 1598.14 365.57 1605.19 363.58 1596.63 371.65 1588.35 404.85 1600.11 401.53 1585.82 414.99 1585.82 414.99 1581.89 430.75 1610.3 430.75 1642.82 430.75 1632.78 395.58"/><polygon class="cls-4" points="1548.54 404.86 1538.35 395.27 1546.45 397.55 1543.36 386.7 1535.94 379.72 1541.84 381.38 1532.82 349.81 1532.82 349.8 1528.18 345.43 1531.87 346.47 1526.06 326.12 1517.65 359.84 1524.16 358 1516.25 365.46 1513.9 374.85 1520.95 372.86 1512.39 380.93 1504.11 414.13 1515.87 410.81 1501.58 424.27 1501.58 424.27 1497.65 440.03 1526.06 440.03 1558.58 440.03 1548.54 404.86"/><polygon class="cls-4" points="1661.84 405.52 1651.65 395.93 1659.75 398.21 1656.66 387.37 1649.24 380.38 1655.14 382.05 1646.12 350.47 1646.12 350.46 1641.48 346.09 1645.17 347.13 1639.36 326.78 1630.95 360.5 1637.46 358.66 1629.55 366.12 1627.2 375.51 1634.25 373.52 1625.69 381.59 1617.41 414.79 1629.17 411.47 1614.88 424.93 1614.88 424.93 1610.95 440.69 1639.36 440.69 1671.88 440.69 1661.84 405.52"/><polygon class="cls-4" points="1751.74 393.3 1741.55 383.71 1749.65 385.99 1746.56 375.14 1739.14 368.16 1745.04 369.82 1736.02 338.25 1736.02 338.24 1731.38 333.87 1735.07 334.91 1729.26 314.56 1720.85 348.28 1727.37 346.44 1719.45 353.9 1717.11 363.29 1724.15 361.3 1715.59 369.37 1707.31 402.57 1719.07 399.25 1704.78 412.71 1704.78 412.71 1700.85 428.47 1729.26 428.47 1761.78 428.47 1751.74 393.3"/><polygon class="cls-4" points="1449.3 431.5 1439.11 421.91 1447.21 424.19 1444.12 413.35 1436.7 406.36 1442.6 408.02 1433.58 376.45 1433.58 376.44 1428.94 372.07 1432.63 373.11 1426.82 352.76 1418.41 386.48 1424.92 384.64 1417.01 392.1 1414.66 401.49 1421.71 399.5 1413.15 407.57 1404.87 440.77 1416.63 437.45 1402.34 450.91 1402.34 450.91 1398.41 466.67 1426.82 466.67 1459.34 466.67 1449.3 431.5"/><polygon class="cls-4" points="1587.42 401.21 1582.62 395.73 1586.21 396.96 1585.04 392.88 1581.2 388.5 1584.07 389.48 1583.74 388.31 1581.02 385.2 1583.05 385.9 1580.21 375.93 1580.21 375.93 1577.91 373.31 1579.63 373.9 1576.97 364.59 1573.68 377.8 1575.75 377.09 1573.1 380.1 1570.53 390.41 1573.77 389.3 1569.63 394.02 1568.75 397.54 1573.02 396.08 1567.57 402.29 1566.98 404.63 1576.83 404.63 1588.4 404.63 1587.42 401.21"/><polygon class="cls-4" points="1590.62 429.61 1585.82 424.13 1589.41 425.36 1588.24 421.28 1584.4 416.9 1587.27 417.88 1586.94 416.71 1584.22 413.6 1586.25 414.3 1583.41 404.33 1583.41 404.33 1581.11 401.71 1582.83 402.3 1580.17 392.99 1576.88 406.19 1578.95 405.49 1576.3 408.5 1573.73 418.81 1576.97 417.7 1572.83 422.43 1571.95 425.94 1576.22 424.48 1570.77 430.69 1570.18 433.03 1580.03 433.03 1591.6 433.03 1590.62 429.61"/><polygon class="cls-4" points="1341.02 467.21 1336.22 461.73 1339.81 462.96 1338.64 458.88 1334.81 454.5 1337.67 455.48 1337.34 454.31 1334.62 451.2 1336.65 451.9 1333.81 441.93 1333.81 441.93 1331.51 439.31 1333.23 439.9 1330.57 430.59 1327.28 443.8 1329.35 443.09 1326.7 446.1 1324.13 456.41 1327.37 455.3 1323.23 460.02 1322.35 463.54 1326.62 462.08 1321.17 468.29 1320.58 470.63 1330.43 470.63 1342 470.63 1341.02 467.21"/><polygon class="cls-4" points="1821.03 375.78 1812.69 367.93 1819.32 369.8 1816.79 360.92 1810.72 355.21 1815.55 356.57 1808.17 330.73 1808.17 330.73 1804.37 327.15 1807.39 328 1802.64 311.35 1795.75 338.94 1801.08 337.44 1794.61 343.54 1792.69 351.22 1798.46 349.6 1791.45 356.19 1784.67 383.36 1794.3 380.64 1782.6 391.65 1782.6 391.66 1779.39 404.55 1802.64 404.55 1829.24 404.55 1821.03 375.78"/><polygon class="cls-4" points="1872.23 370.98 1863.89 363.13 1870.52 365 1867.99 356.12 1861.92 350.41 1866.74 351.77 1859.37 325.93 1859.37 325.93 1855.57 322.35 1858.59 323.2 1853.84 306.55 1846.95 334.14 1852.28 332.64 1845.81 338.74 1843.89 346.42 1849.66 344.8 1842.65 351.39 1835.87 378.56 1845.49 375.84 1833.8 386.86 1833.8 386.86 1830.59 399.75 1853.84 399.75 1880.44 399.75 1872.23 370.98"/><polygon class="cls-4" points="1920 353 1917.46 346.58 1919 343 1922 339 1915.07 332.29 1920.91 333.82 1911.99 304.77 1911.99 304.77 1907.39 300.75 1911.05 301.71 1905.3 282.99 1896.98 314 1903.42 312.31 1895.59 319.17 1893.27 327.81 1900.24 325.98 1891.77 333.39 1883.58 363.93 1895.21 360.88 1881.08 373.26 1881.08 373.26 1877.19 387.75 1905.3 387.75 1920 387 1920 353"/><polygon class="cls-4" points="1337.39 463.66 1328.78 453.84 1335.22 456.04 1333.13 448.73 1326.25 440.89 1331.39 442.64 1330.8 440.55 1325.92 434.99 1329.57 436.23 1324.47 418.37 1324.47 418.37 1320.36 413.69 1323.43 414.74 1318.67 398.07 1312.78 421.72 1316.48 420.45 1311.74 425.85 1307.14 444.31 1312.94 442.33 1305.52 450.79 1303.95 457.07 1311.59 454.46 1301.83 465.6 1300.78 469.79 1318.41 469.79 1339.14 469.79 1337.39 463.66"/></g><g id="front_mountain"><path class="cls-5" d="M347.77,61.07h27.1l66.62-13.36,29.36,13.36L581.24,184.61l55.89,35.06L799,363.25l194.6,73.15L1163,503.49l189,96.33L0,593V269.76s82.43-68.45,109.53-75.13,108.39-33.39,108.39-33.39L321.8,96.13Z"/><path class="cls-6" d="M39,251.39l150.74-40.07,86.95-58.43,66.61-65.11,31.62-26.71h-27.1l-26,35.06L217.92,161.24S136.62,188,109.53,194.63,0,269.76,0,269.76v33Z"/><path class="cls-7" d="M994.63,437.54,800,364.38,638.13,220.81l-55.89-35.06-55.66-62.29h0l44.42,89L691.46,322.65S757.77,405.59,759.9,410s260.69,37.79,260.71,37.8Z"/><polygon class="cls-8" points="399.16 488.5 359.41 507.98 245 593.31 1352 603 663.33 483.92 509.88 440.4 459.73 380.83 428.5 417.87 399.16 488.5"/></g></g></g></g></svg>