<svg xmlns="http://www.w3.org/2000/svg" xmlns:xlink="http://www.w3.org/1999/xlink" viewBox="0 0 1920.07 528"><defs><style>.cls-1{isolation:isolate;}.cls-2{fill:url(#linear-gradient);}.cls-3,.cls-7{fill:#1e0b53;}.cls-3,.cls-6,.cls-7{mix-blend-mode:overlay;}.cls-3{opacity:0.59;}.cls-4{fill:#497278;}.cls-5{fill:url(#linear-gradient-2);}.cls-6{fill:#fffdf6;opacity:0.37;}.cls-7{opacity:0.32;}</style><linearGradient id="linear-gradient" x1="1355" y1="508.54" x2="1355" y2="-49.04" gradientUnits="userSpaceOnUse"><stop offset="0" stop-color="#d8f5bf"/><stop offset="0.16" stop-color="#bceeb8"/><stop offset="0.49" stop-color="#75dca8"/><stop offset="0.98" stop-color="#05c08d"/><stop offset="1" stop-color="#00bf8c"/></linearGradient><linearGradient id="linear-gradient-2" x1="676" y1="668.3" x2="676" y2="166.85" gradientUnits="userSpaceOnUse"><stop offset="0" stop-color="#d8f5bf"/><stop offset="0.16" stop-color="#bce8b7"/><stop offset="0.49" stop-color="#75c5a1"/><stop offset="0.98" stop-color="#058e7e"/><stop offset="1" stop-color="#008c7d"/></linearGradient></defs><g class="cls-1"><g id="Layer_2" data-name="Layer 2"><g id="layer-4"><path class="cls-2" d="M1919.81,0s-88.58,52.29-115,65.78-86.69,11.81-86.69,11.81h-28.27L1659.74,59l-58.43,35.43-77.26,50.6-79.16-54L1431.7,70.84l-30.15,5.06L1247,155.18l-24.5,16.87h-43.34l-50.89-10.13L977.52,258.07,790,361v165.3L1920,526Z"/><path class="cls-3" d="M1423.22,168.25l-38.16,26.57L1354,244.15v40.63l-39.57,60.58-25.92,40.9,96.59-85.18,60.5-81.81,78.49-74.21-79.16-54C1450.08,125.24,1423.22,168.25,1423.22,168.25Z"/><path class="cls-3" d="M1804.85,65.78a60.74,60.74,0,0,1-7.15,3s-35.25,40-60.7,57.7-101.76,67.05-101.76,67.05-46.65,69.58-77.74,86S1430.29,361,1430.29,361L1294.6,526.26,1920,526l-.19-526S1831.23,52.29,1804.85,65.78Z"/><path class="cls-4" d="M1920,341c-2.87-.6-1,1.39-4-.59,4.72-.55,2.3-3.75,4-5.1a5.24,5.24,0,0,0-2.41-.34c.77-.35,2.54.12,2.41,0-.72-.51-.32-4.05-1-3-.48.73-1.07,0-1.86.26.42-.5,2.92-1.22,1.33-1.92,1.09-1,1.89-.52.91-1.44-.45-.42-1.46,0-2.17-.28-1.45-.63-.78-.65-1.41-1.73-.21-.35-1.6-3-2.27-2.62s0,2.55-.18,3.12a11.87,11.87,0,0,0-1.62-2,3.07,3.07,0,0,0,.5,2.22c-2.7-.18-1.47,2.81-1.14,4.29a4.57,4.57,0,0,0-1.54.33l.06-.07c-2.47-.37-2.81-1-4.87,1-2.91-.81,4.09-5.59,3.24-7.49-.54-1.21-1.61-.22-2.18-.76s-.57-1.44-.87-2c-.19-.34.13-3.09-1.64-.24-2-.1-2.24,1.34-3.37,2.5a3,3,0,0,1-.61-1.55c.81-.88,1.46-2.58,2.13-3.23,1.22-1.19,2.49-.68,3.79-1.55-.27-1.29-1.43,0-.56-1.81,0-.07,2-1,2-1.08,2.46-1.55,4.1-2.06,5.88-4.55-2.72,1.16-5.18,2.88-7.89,4-1.71-1.24,6-3.74,4.56-5.48-.6-.72-6.18,3.47-6.43,4.29-1.45-.36.36-4.05-.14-5.17,1.27-.16,2.51-.07,3.62-1-1.42-1.56-4.37-.72-6.25.08.2-.48,1.11-1.22,1-1.79-5.24.71.79-3.32,2.38-4.4,2.27-1.55,4.87-3,5.62-5.71-1.13.34-2.33,2.14-3.61,2.06-2-.11-.62-2.62-1.37-2.81-.91-.23-3.16,5.95-4.29,6.3-1.85.58-.93-2-1-2.86.6-1,1.44-1.29,2.07-2.18-1.51,0-5.83.45-6.92-.39-.78-.6-.72-.32.21-1.42.52-.62,6.49-5.53,7.35-5.29-.89-.24-2.63.49-3.46,1,0-.21-.61-1.38-.37-1.57-.57.45-2,.48-2.66.72-1.22.13-2.66-.35-2.65-1.29,0-2,3.35-2.39,4.45-3.84-.71-1.38-2.34,1.85-2.34-1.3-.46.23-1.45.94-2,.91a8.4,8.4,0,0,1-1.82-.48c-.81.36-.87,1.66-1.57,2.19s-.24-1.92,0-2.2c.4-.6,1.44-.75,2-1.14a17.46,17.46,0,0,0,5.14-4.71c-2.08.23-3.19,3.13-5.16,3.39l.31-2.31c-.88,1.28-2.67,3.7-2.8.5.08-.28,1.23-1.93.7-2.37s-1.13,1.1-1.41,1.18c-1.39.37-.13,1.55-1.44.18-.31-.32,0-2.34,0-2.86l1.4-.15c0-.07-1.89-3.53-2-3.55-1.49-.19,0,6.48-.69,7s-1.32-2.62-1.94-1.91.94,3.07,1,3.82c-4.22,1.67-2.64-5.63-5.79-5.24.77,2.43,1.9,4.61,2.82,6.84.26.65,1.54,5-.89,3.41-1.14-2.22-1.58-1.31-3.4-2.17-1.05-.49.35,1.65.32,1.47.22,1.23,1.13,2.32.84,3.73-1-.05-1-1.42-2.22-1.14,1.28,1-.36,3.61,1.56,4.08-1,1-1.55,0-2.61.42-.34.83.68,1,.31,2-.91-2.27-2.78,1.19-1,1.73,1.34,0,2,2,2.36,2.89.21.52,1.7,1.68,1.47,2.5-.8.67-1.19-.23-1.8-.35-.88.65.92,1.91-.56,2.09-.59.07-3-3.61-3.4-4.17.08.49,1.27,2.81,2,4.48a5.14,5.14,0,0,0-1.88.35c-1.06-.49-2.34-1-3.58-1.58a2.39,2.39,0,0,0-.43-.23c1.24-1.14,3.06-1.15,1.07-2.06-1-.47-2.35.46-3.53-.24-.74-.43-2.82-6.9-4.31-6-.81.47,0,3.53-.26,4.27a14.71,14.71,0,0,0-2.22-2.7,4.33,4.33,0,0,0,.69,3c-.73-.05-1.46.44-2.2.31a14.94,14.94,0,0,0,.65,5.58,6.08,6.08,0,0,0-3,.86c3.75,2.7-2.39,2.21-3.42,3.29-2.16,2.26,4,1.76,5,2.19-.34.53-.69,1-1.08,1.54a12.05,12.05,0,0,1,1.2.4,2.29,2.29,0,0,0-1.6,2.5c-1.45-.37-1.1-.29-2.17-.06-.53-1.73-3.26-1.36-4.74-1.84.14,1.74,3.14,2,.7,3.89,1.62,1,2.84,2.7,4.77,3.25,1.71.49,3-.4,3.48,1.63-1.19.35-.86,1.47,0,2.3-3.56-.2-4.58-1.19-7.22-3-.21,1.65-2.25,1.53-3.46,1.63,1.35.8,1,1.9,2,2.74.77.61,1.18-.33,1.83.47.41.5.17,2.27,0,2.79,2.5-.18,3.64-.31,5.06,1.61-2.83.37-5.06,2-7.89,1.58-1.25-.18-3.62-1.71-4.29.41,1.21.2,2.09,1.05,1.63,2.32,2.23-.36,2.27,2.5,4.68-.36,1.32,2,2.7.25,4.63.31a1.81,1.81,0,0,0,.79.72c-1.76,2.83-13.2,1.76-15.4,1.55-1.15,2.25,4.5,2.57,5.67,3,.95.33,2.09,1,2.67,1.09.37-.26.75-.51,1.13-.75l1,.54a31.53,31.53,0,0,1,3.7-.37c-.2,5.51-14.14-1.35-15.95,2,1.35.23,1.79.82.95,1.84a26.63,26.63,0,0,1,3.69.54c.1.06,3,1.41,1.76,1.25,1.71.23,3.92-1.43,5.83-.94,4.67,1.22-2.64,3.18-4.94,2.41,1.62,1.1.34,1.05.11,2.11-.28,1.36,1.39.71-.69,1.65-2.6,1.18-5-1.53-7.3-1.31-.94-.5-1.47-.26-1.61.72-.46.91-.18,1.22.84.94.24.48.73,2.14,1,2.54-.3,1,.1,1.21,1.22.72s1.62-.16,1.28,1c-.3.87,0,1.31.8,1.31.56.38.89.26,1-.37.34,0,2.71-1.8,3-1.87a15.26,15.26,0,0,1,2.83.14c2.35-.1,4.45-.16,2.79,2.23-3.25,4.69-9.94,2.09-14.78,1.22a1.82,1.82,0,0,0,0-.67c0-.09-.41.14-1,.53a9,9,0,0,0-1.83-.09,2.54,2.54,0,0,0,.56.95c-2.1,1.43-4.89,3.27-4.72,2,.62.3,3.87-3,3.06-3.16,1.5-.83,1.49-.69.48-1.61,1.08-1-1.23-.57.52-1.61-1.8-.47-1.13-1.65-2.53.21-1-.44-.86-1,.41-1.65l-1-.3c-.26-.61,3-4,1.36-4.33-.44.1-.57.38-.4.85-.81-.27-1.2.07-1.17.88-2.87-.6-5.82,4.83-8.75,2.85,4.72-.55,2.29-3.75,3.94-5.1a5.24,5.24,0,0,0-2.41-.34,52.65,52.65,0,0,0,5.5-3.42c-.73-.51-2,.41-2.77.5a25.22,25.22,0,0,0-3.18.21c.42-.5,2.92-1.22,1.33-1.92,1.09-1,1.89-.52.91-1.44-.45-.42-1.46,0-2.16-.28-1.46-.63-.79-.65-1.42-1.73-.21-.35-1.59-3-2.27-2.62s0,2.54-.18,3.12a11,11,0,0,0-1.62-2,3.11,3.11,0,0,0,.5,2.22c-2.7-.18-1.47,2.81-1.13,4.29a4.47,4.47,0,0,0-2.18.63c2.77,2-1.76,1.56-2.37,2.38-1.43,1.91,2.45,1.13,3.5,1.62-.77.71-1,1.22.09,1.41a1.6,1.6,0,0,0-1.17,1.83l-1.22-.33c.09.09,0,.19-.36.28-.4-1.29-2.37-1-3.46-1.34.1,1.28,2.28,1.45.51,2.84a39.3,39.3,0,0,0,3.35,2.34c1.27.59,2.31-.42,2.67,1.22-.87.25-.63,1.07,0,1.67-2.62-.14-3.32-.85-5.27-2.15-.15,1.17-1.7,1.12-2.52,1.18,1,.57.94,1.37,1.58,2.05l1.17-.11a4.39,4.39,0,0,1,.07,2.44c1.8-.13,2.68-.2,3.69,1.17-2,.27-3.61,1.26-5.68,1.19-.9,0-2.68-1.39-3.2.26.88.15,1.52.78,1.19,1.7,1.32-.21.75.65,1.65.73s1-.88,1.76-1c.4-.06.78,1,1.15,1,1.44-.12,1.23-1.27,3-.61-.43,2.52-9.81,1.67-11.38,1.52-.83,1.62,3.45,2,4.37,2.24a17.49,17.49,0,0,0,2,.54c.95.12,2.69-.26,3.95-.23-.08,2.3-3.44,1.65-6.54,1.12-.3-.73-.76-.64-1.31-.21-1.8-.26-3.32-.31-3.78.53l.07,0c-1.13.3-4,1.42-4.67,1.44-2.36.08-4.08-.52-6.61.07-1.94.46-3.66,1.32-1.44-.5-1,.84,3.6-.86,1.63-1,2.61-.07,4.15-.94,6.36-.68a5.57,5.57,0,0,0,5.19-2.09,5.72,5.72,0,0,0,.94-2.79c-.29-1.79-.54-.71-1.77,0-4.12,2.46-6.46,3.61-11.25,3.76,1.35-1.95,2.42-.63,4.5-1.29.94-.3,1.71-1.33,2.75-2a7.35,7.35,0,0,0,2.57-1.45c.54-.62,1.57-2.93,1.42-3.71-.07-.41-7.24,5.43-7,3.35.63.3,3.88-3,3.07-3.16,1.49-.83,1.48-.69.47-1.61,1.08-1-1.22-.57.52-1.61-1.8-.47-1.12-1.65-2.52.21-1-.43-.87-1,.41-1.65l-1-.3c-.26-.61,3-4,1.35-4.33-.44.1-.57.38-.39.85-.82-.27-1.21.07-1.18.88-2.86-.6-5.82,4.83-8.75,2.85,4.72-.55,2.3-3.75,3.95-5.1a5.24,5.24,0,0,0-2.41-.34,51.33,51.33,0,0,0,5.49-3.42c-.72-.51-2,.41-2.76.5a25.1,25.1,0,0,0-3.18.21c.42-.5,2.92-1.22,1.33-1.92,1.09-1,1.89-.52.91-1.44-.45-.42-1.46,0-2.17-.28-1.45-.63-.78-.65-1.41-1.73-.21-.35-1.6-3-2.27-2.62s0,2.55-.18,3.12a11.87,11.87,0,0,0-1.62-2,3.07,3.07,0,0,0,.5,2.22c-2.7-.18-1.47,2.81-1.14,4.29a4.54,4.54,0,0,0-2.18.63c2.78,2-1.76,1.56-2.37,2.38-1.42,1.92,2.46,1.13,3.51,1.62-.78.72-1,1.22.09,1.41a1.62,1.62,0,0,0-1.18,1.83l-1.21-.33c.09.09.05.19-.37.28-.39-1.29-2.36-1-3.45-1.34.1,1.28,2.28,1.45.51,2.84a37.78,37.78,0,0,0,3.35,2.34c1.27.59,2.31-.42,2.67,1.22-.87.25-.63,1.07,0,1.67-2.62-.14-3.32-.85-5.26-2.15-.15,1.17-1.71,1.12-2.52,1.18,1,.57.93,1.37,1.58,2l1.17-.11a4.48,4.48,0,0,1,.07,2.44c1.8-.13,2.67-.2,3.68,1.17-2,.27-3.61,1.26-5.67,1.19a5.27,5.27,0,0,1-1.22-.35c.36-.83.82-1.82.19-2.12-.9-.43-3.53,2.92-3.95,3.31a14.15,14.15,0,0,1-5.69,3.25c-1.84.52-2.91-.07-4.59.08-2.09.18-3.06,1.37-5,2.1-2.25.87-4.74.46-7,.75-1.57.19-5.43,1.82-6.75.77,2-1.43,3.61-1.08,5.53-1.77.22-.08,1.18-1.38,1.61-1.57,1.2-.53,1.15.68,2.53-.46.57,2.05,3.43.84,4.35-.57-1.36-.39-3.81.27-2.6-1.13.76-.89,3.55-2,3-.14.62-.23,3.88-2.89,2.24-2.89,2.12-.54,4.5.08,5.9-1.48-.22.24,0-1.63,0-1.69.24-.35,1.5-1,1.92-1.43,1.1-1.22,1.48-1.63,1.36-3.13,0-.57.77-2.24-1.24-1.83-1.28.26-3.32,3.38-4.26,4.15-2,1.67-3.42,1.55-5.7,2.3-1.49.48-1.94,1.48-3.29,2.05-1.53.64-3,.11-4.47.06.61-.94,1.94-.61,2.45-1.61.72,2.09,3.76-1,2.41-1.15.5-.76,3.91-.58,4-.55.82.29.37-1.12.1-1.27,1.33-1.64,3.69.24,4.73-.89s-1.08-1.27-1.41-2.35c1.47-.29,1.06-.12,1.86-1a3.09,3.09,0,0,0,.93-2.11,2.23,2.23,0,0,0,1.08-.67c.27-.71.72-3.82.27-4.17-1.59-1.25-6.6,5.45-8,6.46-3.12,2.35-6.09,3.3-9.54,2.41-2.06-.54-2.91-.68-5,.4a21.89,21.89,0,0,1-2.77,1.85c-.43.1-2.53,1-2.06-.48.32-1,1.38-.15,1.75-.46,1.59-1.4,1.47-2.16,4.36-2.45a13.55,13.55,0,0,0,3.64-1c1.51,3.38,5.57-.55,5.35-.7a8.53,8.53,0,0,0,4.71-2.54s1.34-2.1,1.38-1.85c-.28-1.59-1.6,0-2.48.41-4.58,2-8.23-.43-12.92,1.05-1,.3-3.87,2.26-4.44.95-.44-1,2.1-2,2.12-.76.67,0,3.23-1.95,1.85-2.05a37,37,0,0,0,4.25-.34c.3-.05,1.37-.64,1.65-.7-.45.1,2.25.29,1.6.27,2.48.09,3.91.68,6.26-1.8.4.76,1.66-.08,2.19-.57a1.24,1.24,0,0,0-.24-1.33l1-.76c.47-1.26,1.13-4.62-1.05-3.64-.59.27-2,2.38-2.78,2.93a17.43,17.43,0,0,1-3.67,2.06c-3,1.23-6.87,1.36-9.91,1.46,1.5-2.15,2.13-1.52,4.7-1.7,2.33-.17,1.49.21,3.35-1.32.58-.05.74-.38.48-1q1.32-1.05,1.83,0c.67-.37,1-1.12,1.53-1.46a9,9,0,0,0,2-1.34,15.26,15.26,0,0,0,1.5-3.2c.41-1.87-.46-1.57-1.3-1.14-.47.23-8.63,7.44-8.21,4.2.86.42,5.29-4.06,4.2-4.34,3.52-2-.34-1.58,1.19-2.95-1.34,0-.53-1.05.17-1.47-2.47-.64-1.54-2.25-3.46.29-1.93-.37-.07-1.66.56-2.26-1.07-1.23-1,.22-.87-1.15,0-.2.71-1.47.84-1.82s1.63-3.6.34-3.38a.91.91,0,0,0-.38,1.18c-1.12-.38-1.65.09-1.61,1.2-3.41-.71-3.4,2.18-5.59,2.75.19-1.46-1.65.64-2.18.86-1.08.45-3.37.87-4.22.3a7.18,7.18,0,0,0,3.83-1.74c.47-.54.8-2.44,1.27-2.45-.29-2.05-1.64-1.21.3-2.8a6.48,6.48,0,0,0-3.3-.47c.92-.42,7.77-4.31,7.64-4.57-.44-.88-3,.29-3.67.47-1.69.43-3.13,0-4.59.39.58-.7,4-1.66,1.83-2.63,1.24-1.14,3.06-1.15,1.07-2.06-1-.47-2.35.46-3.53-.24-.74-.43-2.82-6.9-4.31-6-.81.47,0,3.53-.26,4.27a15.11,15.11,0,0,0-2.22-2.71,4.35,4.35,0,0,0,.69,3c-.73-.05-1.46.44-2.2.31a14.94,14.94,0,0,0,.65,5.58,6.08,6.08,0,0,0-3,.86c3.75,2.7-2.39,2.21-3.42,3.29-2.16,2.26,4.05,1.76,5,2.19-.34.52-.69,1-1.08,1.54a12.05,12.05,0,0,1,1.2.4,2.29,2.29,0,0,0-1.6,2.5c-1.45-.37-1.1-.29-2.17-.06-.53-1.73-3.26-1.36-4.74-1.85.14,1.75,3.14,2,.7,3.9,1.62,1,2.84,2.7,4.77,3.25,1.71.49,3-.4,3.48,1.63-1.19.35-.86,1.47,0,2.3-3.55-.2-4.58-1.19-7.22-3-.21,1.65-2.25,1.53-3.46,1.63,1.35.8,1,1.9,2,2.74.77.61,1.18-.33,1.83.47.41.5.17,2.27,0,2.79,2.5-.18,3.64-.31,5.06,1.61-2.83.37-5.06,2-7.89,1.58-1.25-.18-3.62-1.71-4.29.41,1.21.2,2.09,1.05,1.63,2.32,2.23-.36,2.27,2.5,4.68-.36,1.54,2.36,3.15-.44,5.63.5-.6,3.49-13.29,2.3-15.61,2.08-1.15,2.25,4.5,2.57,5.67,3,1,.33,2.09,1,2.67,1.09.37-.26.75-.51,1.13-.75l1,.54a31.53,31.53,0,0,1,3.7-.37c-.2,5.51-14.14-1.35-16,2,1.35.23,1.79.82,1,1.84a27,27,0,0,1,3.7.54c.09.06,3,1.41,1.75,1.25,1.71.23,3.92-1.43,5.83-.94,4.67,1.22-2.64,3.18-4.94,2.41,1.62,1.1.34,1.05.11,2.11-.28,1.36,1.39.71-.69,1.65-2.6,1.18-5-1.53-7.3-1.31-.94-.5-1.47-.26-1.61.72-.46.91-.18,1.22.84.94.24.48.73,2.14,1,2.54-.3,1,.1,1.21,1.22.72s1.62-.16,1.28,1c-.3.87,0,1.31.8,1.31.56.38.89.26,1-.37.34,0,2.71-1.8,3-1.87a15.26,15.26,0,0,1,2.83.14c2.35-.1,4.45-.16,2.79,2.23-3.25,4.68-9.94,2.09-14.78,1.22a1.82,1.82,0,0,0,0-.67c0-.09-.41.14-1,.53a9,9,0,0,0-1.83-.09,2.54,2.54,0,0,0,.56,1c-2.1,1.43-4.89,3.27-4.72,2,.62.3,3.87-3,3.06-3.16,1.5-.83,1.49-.69.48-1.61,1.08-1-1.23-.57.52-1.61-1.8-.47-1.13-1.65-2.53.21-1-.44-.86-1,.41-1.65l-1-.3c-.26-.61,3-4,1.36-4.33-.44.1-.57.38-.4.85-.81-.27-1.2.07-1.17.88-2.87-.6-5.82,4.83-8.75,2.85,4.72-.55,2.29-3.75,3.94-5.1a5.24,5.24,0,0,0-2.41-.34,52.65,52.65,0,0,0,5.5-3.42c-.73-.51-2,.41-2.77.5a25.1,25.1,0,0,0-3.18.21c.42-.5,2.92-1.22,1.33-1.92,1.09-1,1.89-.52.91-1.44-.45-.42-1.46,0-2.16-.28-1.46-.63-.79-.65-1.42-1.73-.21-.35-1.59-3-2.27-2.62s0,2.54-.18,3.12a11,11,0,0,0-1.62-2,3.11,3.11,0,0,0,.5,2.22c-2.7-.18-1.47,2.81-1.13,4.29a4.47,4.47,0,0,0-2.18.63c2.77,2-1.76,1.56-2.37,2.38-1.43,1.91,2.45,1.13,3.5,1.62-.77.71-1,1.22.09,1.41a1.6,1.6,0,0,0-1.17,1.83l-1.22-.33c.09.09,0,.19-.36.28-.4-1.29-2.37-1-3.46-1.34.1,1.28,2.28,1.45.51,2.84a39.3,39.3,0,0,0,3.35,2.34c1.27.59,2.31-.42,2.67,1.22-.87.25-.63,1.07,0,1.67-2.62-.14-3.32-.85-5.27-2.15-.15,1.17-1.7,1.12-2.52,1.18,1,.57.94,1.37,1.58,2l1.17-.11a4.39,4.39,0,0,1,.07,2.44c1.8-.13,2.68-.2,3.69,1.17-2,.27-3.61,1.26-5.68,1.19-.9,0-2.68-1.39-3.2.26.88.15,1.52.78,1.19,1.7,1.32-.21.75.65,1.65.73s1-.88,1.76-1c.4-.06.78,1,1.15,1,1.44-.12,1.23-1.27,3-.61-.43,2.52-9.81,1.67-11.38,1.52-.83,1.62,3.45,2,4.37,2.24a17.49,17.49,0,0,0,2,.54c1,.12,2.69-.26,4-.23a1.42,1.42,0,0,1-.38,1,14.92,14.92,0,0,0-3.82.5c-1.44-.19-3-.53-4.37-.68,1.14-.89.49-1.24-1.68-.43-2.81,1-5.4,2.14-8.31,2.93-2.32.62-8.85,2.14-10.89.94,1.19-.15,5-.6,6-1.69,1.5-1.69-4,0-4.75.13-2.48.49-7.67.32-9-1.68.94.08,8.84,1.92,8.61.75-.36-1.81-8.14-2.07-9.62-2.15a12.4,12.4,0,0,1,4.71-1.49c3.28-.21,4.47,2.76,7.34,3.4.93.2,1.13-.77,1.31-.75,1,.06,3.7,1.43,4.14-.18.2-.7-6.53-1.33-7.41-2.47a7.59,7.59,0,0,1,4.68.17c1,.34,2.39,2.07,3.33,2.15,2.9.23-1-2.61-1.76-3a5,5,0,0,1,3.56-.11c.27.06,3.2,1.62,3.73,1.25,1.9-1.33-2-2.09-3.09-2.52a20.33,20.33,0,0,1,3.79-1.38c1.17-.17,2.48.35,3.57.14.32-.06,3.18-.8,1.12-1.22,1.48-.36,5.58-1.25,2.56-2.38-2.06-.77-6.73,1-8.94,1.32-2.38.37-5.28.93-7.58.52,3.32-1.29-1.55-1.3-2.3-1.15-2.77.55-5,1.85-7.87,2.22a104.58,104.58,0,0,1-10.85.8c-3.14.08-4.71-1.51-7.09-3.14a9.33,9.33,0,0,1,4.59.56c.71.2,3.3,1.63,4,1.54,3.64-.5-3.55-3.92-4-4.21,4.13-1.48,5.36,3.5,9.27,4,2.76.35,1.2-.68.08-1.54-1.43-1.1-3.18-1.89-4.63-3,3.68-.63,7,.93,10.17,1.88.69.2,2.36,1.07,3.25.81,3-.88-1.37-2.43-2.64-3,1.3,0,3.84,1.68,4.9,1.49,2-.35-.08-1.87-.94-2.09,2.73,0,3.7,2.84,6,3.22,2.79.46-.74-2.29-1.27-2.66,3.31,0,5.06,2.32,8,2.51,4.64.31-.89-1.71-1.72-2.24,1,0,3.54.35,3.25-1.21-.07-.41-3.52-.25-3.54-.25-3.48-.26-6.66-.53-10-1.07.49,0,7.71-.3,4.84-1.61-2.05-.94-7.63.44-10.13.56,1.66-1.55-4-.29-4.34-.24a63.67,63.67,0,0,1-8.11.68c-2.55.14-5.16.33-7.75.43-3.51.14-2.61-.93-3-3.93.82.39,3.07-.49,4.06-.62a12.88,12.88,0,0,1,4.8.1c.37.09,2.63,1.38,3.2,1,1.46-1-2.11-2.27-2.59-2.49a14.57,14.57,0,0,1,8.2.31c3,1,4.83.2,1.31-1.23,4.4-.59,7.58-1.41,11.89-.51.62.13,8.44,1.53,5.8-.27-1.68-1.14-6.45-1.38-8.59-1.7,1-.1,10-.88,9.08-1.94s-8.78.58-10.65.78c-6.7.71-13.94,1.19-20.62,1.35.84-.29,5.17-1.79,4.55-3.15.69.32,2.08,1.54,2.59.29.32-.78-3.82-2.09-4.37-2.3a63.54,63.54,0,0,1,11.17,1.49c.72.19,6.37,2,4.65-.41-.71-1-5.17-1.4-6.46-1.75,3.6-.35,7-1.29,10.43-.72,1.11.18,3.58,1.38,4.66.55,1.63-1.26-3.08-1.86-3.37-1.92,1-.27,5.39-1,6-1.83,1-1.38.08-1.61-1.36-1.13.84-2.35-3.91.87-4.07,1a9,9,0,0,1-5,.87c-2.34-.14-3.88-1.19-6-1.85a21.12,21.12,0,0,1-4.93-1.84c2.58-.17,5.68-1.51,8.12-1.22.31,0,4,1.87,4.25.4.16-.81-2.11-.78-2.65-1a19.21,19.21,0,0,1,6.42-.8c.62.06,2.7.77,3.26.48,1.47-.75-.68-1.5-1.14-1.57-.09,0,3.41-.51,3.47-1,.21-1.52-2.33-.64-3.23-.44,1.66-1.74-4.87.83-4.46.69a63.36,63.36,0,0,1-9.31,2c-6.15,1.09-12.28-.13-18.48-.16.5-.32,3.77-3.09,1.9-3.19-.38,0-2.63,2.39-3.12,2.67.2-2.41-.34-1.78,2-2.73a9.1,9.1,0,0,1,5.71-.17c1.56.59,1.79,2.31,3,3,1.78,1,1.32-1,.67-1.88,1,.5,7.83,2.38,8.37,1,.38-1-2.67-1.43-3.62-1.75.54,0,9-.19,7-1.57-.85-.58-3.25.18-4.31.22a63,63,0,0,1-6.91-.41c1.35-.29,4.93-.76,6-1.76,1.76-1.7-2-.44-2-.42-4.69,1.16-9,2.13-13.73,1.89,1.18-.18,10.75-1.8,9.35-3.8.24.34-10,2.8-11,2.92a22.88,22.88,0,0,0,0-4.22c1.51-.64,4.1,3.56,5.88,2.77s-3.33-2.84-4-3.29c2.07-.38,4-.32,6.15-.73a26,26,0,0,1,5.11-.53c.58,0,5,.76,5.34-.16.54-1.25-3.1-.77-3.74-.81,1.38-.28,7.94-1.51,8.39-3.26.55-2.17-3-.28-3.79,0A28.76,28.76,0,0,1,1639,336c1.16-.71,3.17-1.59.51-1.56-1.71,0-3.64,1.76-5.72,1.84.19-.08.94-1.15.37-1.17-1.36-.06-1.85.79-3,1.31a46.3,46.3,0,0,1-4.65,1.52c-.15-.74-1.1-4-.56-4.61.32-.4,1.16-.17,1.61-.31.79-.24,5.27,1,5.33-.17s-4.59-1-5.37-.93a25.1,25.1,0,0,1,6-.65,48.28,48.28,0,0,0,6.14.17c.43,0,3.7-.21,1.73-1.16-1.11-.54-4.37.05-5.77-.05,1.46-.32,12.48-2.62,12.3-4.51-.11-1.24-4.39,1.22-5.27,1.54a52,52,0,0,1-6.53,1.75c1-.37,8.94-3.22,8.83-4.46-.09-1-7.62,2.86-9,3.4-3.77,1.44-6,1.3-9.81,1.82a24.47,24.47,0,0,0,0-4.84c2.26-.17,6.85.77,8.88-.12,2.37-1-1.73-1.16-2.44-1.17a34.14,34.14,0,0,0,8.21-3.79c.26-.17,5.12-3.43,3-3.35-1.46.06-5.45,3.6-7.09,4.37a32.32,32.32,0,0,1-7.57,2.5c3.91-.88,9.23-3.11,12.17-6,4.32-4.26-3,.82-4.6,1.75-.15-.34,1.62-2.12.66-2.37-1.22-.32-1.44,1.67-2,2.17-1.64,1.5-6.15,3.16-8.2,2.89q-2.3,1.1-1.8-1.19a5.2,5.2,0,0,0,.58-1.87c.43-.32,3.64-.18,4.2-.19.26,0,3.55.24,3.73-.12.74-1.47-2.58-1.49-3.48-1.58a28,28,0,0,1,5.23-2.67c1.45-.49,3-.27,4.58-.86,2.78-1.08,1.43-1.06,1.47-2,0,.53-1.5.84-1.87.95,1.32-.89,6.86-4.31,2.75-3.4-1.73.38-3.62,2.48-5.51,3.13.38-.39,3.06-3.6,1-3-.93.28-2.41,2.54-3.56,3.1-.68.33-1.17,0-2,.57-.53.33-.73,1.23-1.2,1.57-1.37,1-4,1.27-5.55,1.94.11-1.33.27-2.77.25-4.09-.32,0,3.19-.31,1.5-1.11,1-.37,8.3-4,7.26-5.72-.91-1.54-5.78,3.08-6.67,3.52.44-1.17.16-2.4-1.32-1.71-.1.05-1.11,2.48-1.6,2.79,0-1-.61-3.83-.15-4.59.6-1,2.34-1.37,3.3-2,2.7-1.86,5.86-6.55.68-2.88,2.1-2.56,1-2.36-.88-1-1,.75-2,2.72-3.22,3.21-.13-2.43,2.35-4.45,4-6.8,3.31-4.66-1.39-.1-2.79,1.51.4-.61,3.24-4.11,2.32-4.78s-2.88,2.78-3.39,3.61a39.81,39.81,0,0,0,.1-10.95c-.5-3.21-2.92-4.15-3.17-.49-.15,2.25,2.26,7.71.34,9.69-.48-.81-1.45-2.38-2.5-1.21-1.72,1.92,2.38,4.53,2.66,5.89a18.87,18.87,0,0,1-4-2.16c-.69-.47-1.63-1.68-2.25-2-1.81-.87-2.21-.48-1.46,1.32s3.2,3.11,4.75,3.87c2.64,1.29,2,.62,2.51,3.44-1.52-.79-3.36-2.53-5.2-2.86-1.55-.29-1.61-.68-1.1.76.75,2.13,3.54,2.45,5.25,3.48s1.28,1.62,1.53,3.67c-1.5-.44-2.51-2.58-4.34-2.34-3.37.45-.84,2.16.69,2.84-1.33,0-7.3-.39-5,1.6,1.58,1.36,5.61.75,7.64,1.31,2.5.67,1,1.39,1.27,3.8-1.28-.23-2.64-3-4.14-2.79-2.09.35.75,1.68,1.06,2.1-.48-.14-4.47-2.25-4-.47.18.72,1.4,1.14,2.59,1.43a27.7,27.7,0,0,1-6.51-1.44,21,21,0,0,0-2.62-.55c-.2-.06-1.6-1.34-2.6-.79-2.13,1.17-.36,1.33.61,1.94,2.56,1.61,6.41,2.44,9.57,3.31,1.52.41,6,.3,6.54,1s-.07,3.45-.07,4.48c-1.15-.05-3.87-.57-4.61-1.37-.89,0-1-.44-.42-1.2a1.19,1.19,0,0,0,.38-1.06c-1.41-.79-1.1.91-2.75,1.16-2,.32-4-2.7-5.67-2.47-2.56.37,2.12,2.76,2.56,3-1.41-.21-7-1.47-4,.37,2,1.25,6.11.82,8.55,1.61-2.51.24-5.15,1.13-7.56,1.2-1.1,0-9.17-2.12-9.63-1.72-3.24,2.83,8,3.23,9.63,3.18-.51.09-1.51,1-.59,1.07,1.53.13,3.07-.66,4.6-1,1.25-.28,8.66-1.65,9.45-.77,1.91,2.11.06,4.51-2.35,4.85-3.87.55-7.9-.38-11.75-.55-2.32-.11-6.89-1-3,1.44-.51.09-7.53.8-4.9,2.16,2.19,1.13,7.07-1.43,9.8-.59-.75.44-6,2.28-5.94,3,.22,1.67,6.62-1.35,8.17-1.7a27.85,27.85,0,0,1,8.42-.6c2,.28,1.38-.61,1.76,1.2,1.19,5.56-7.45.82-9.6,1.37-3,.77,4.24,2.41,4.9,3a49.61,49.61,0,0,1-11.83,1.49,5.3,5.3,0,0,1-1.89-.53,7.18,7.18,0,0,0,2.56-3.56c-1.13.34-2.33,2.14-3.61,2.07-2-.12-.62-2.63-1.37-2.82s-2.25,3.58-3.42,5.38a18.91,18.91,0,0,0-2-.09c0-.66.19-1.44.14-1.85.6-1,1.44-1.29,2.07-2.18-1.51,0-5.83.46-6.92-.39-.78-.6-.72-.32.21-1.42.52-.62,6.49-5.52,7.35-5.29-.89-.24-2.63.49-3.46,1,0-.21-.61-1.38-.37-1.56-.57.44-2,.47-2.66.71-1.22.14-2.66-.34-2.65-1.28,0-2,3.35-2.4,4.45-3.84-.71-1.38-2.34,1.85-2.34-1.3-.46.22-1.45.93-2,.9a7.86,7.86,0,0,1-1.82-.48c-.81.36-.87,1.66-1.57,2.19s-.24-1.92,0-2.2c.4-.6,1.44-.75,2-1.14a17.32,17.32,0,0,0,5.14-4.71c-2.08.23-3.19,3.13-5.16,3.39l.31-2.31c-.87,1.28-2.67,3.7-2.8.5.09-.28,1.23-1.93.7-2.37s-1.13,1.11-1.41,1.18c-1.39.37-.13,1.55-1.44.18-.31-.32,0-2.34,0-2.86l1.4-.15c0-.07-1.89-3.53-2-3.54-1.49-.19,0,6.48-.69,7s-1.32-2.63-1.94-1.92.94,3.08,1,3.82c-4.22,1.67-2.64-5.62-5.79-5.24.77,2.43,1.9,4.61,2.82,6.84.26.65,1.54,5-.89,3.41a3.18,3.18,0,0,0-1.15-1.46c.3-.63.61-1.51,0-1a3.26,3.26,0,0,1-1.56.55,4.41,4.41,0,0,1-.64-.25c-.58-.27-.41.27-.15.77a16.55,16.55,0,0,0-.94,2c-2.47,1.82-1.38-2.08-1-3.14.82-2.47,1.85-4.94,2.52-7.57-3.19.47-1.24,7.3-5.55,6.77.07-.77,1.6-3.47.88-4.07s-1.16,2.69-1.84,2.42.59-7.37-1-6.74c-.12,0-1.84,4-1.85,4.06l1.4-.23c0,.52.42,2.44.12,2.85-1,1.38-.22.21-1.44.2-.29,0-.79-1.53-1.44-.79-.51.57.69,1.92.79,2.16,0,3.23-1.89,1.3-2.81.27.13.73.27,1.47.4,2.21-2,.27-3.18-2.31-5.27-2,1.67,1.82,3.12,2.3,5.31,3.3.5.22,1.35.07,1.75.46.14.14,1.1,2.7.34,2.33s-.82-1.59-1.66-1.75c-.39-.08-.83.82-1.37.86a7.36,7.36,0,0,1-2.41-.27c.11,3-1.64.39-2.28,1.92,1.11,1.1,4.54.8,4.58,2.63,0,.93-1.38,1.79-2.58,2-.69-.06-2.09.29-2.67,0,.27.14-.34,1.38-.31,1.66a5.66,5.66,0,0,0-3.48,0c.78-.42,7,2.78,7.53,3.29.75.66,1.06.56.47,1.38s-6.11,2-7.07,2.22c.66.72,1.51.81,2.15,1.62a14.72,14.72,0,0,1,0,1.75c-.47.12-1,.3-1.57.5-1.25-1.56-3-4.74-3.87-4.25s.88,2.47-1.25,3.17c-1.27.42-2.54-1-3.68-1.08a5.1,5.1,0,0,0,2.62,2.8,6.61,6.61,0,0,1-1.79,1,49.68,49.68,0,0,1-11.82,1.7c.57-.71,7.82-4.4,4.75-4.33-2.11,0-10.56,7.08-9.61,1.23.32-1.92-.25-.87,1.7-1.67a29.2,29.2,0,0,1,8.4-1.67c1.32-.06,8.1,1.12,8.2-.51,0-.74-5.32-1.15-6-1.36,2.74-1.61,7.62-.31,9.77-2.06,2.59-2.1-4.54-.87-5-.83,4.06-3.71-1.59-1.05-3.91-.42-3.67,1-7.11,3-10.8,3.51-2.29.32-1.86.46-2.57-.86a3.64,3.64,0,0,1,.25-3.59c1.26-1.31,8.37-1.37,10.07-1.46,1.39-.07,2.69.17,4-.48.51-.25-.6-.75-.88-.72,1.46-.36,12.84-3.9,9.44-5.76-.67-.36-8.76,4.28-10.37,4.6-2.1.41-4.52.16-6.71.55,2.4-1.45,6.46-2.11,8.44-3.91,2.9-2.64-2.61.13-4,.71,1-.84,5.4-4.51,1.8-3.28-1.45.49-3,3.37-4.91,3.59-.32,0-2.26-.82-1.86-.94-.84.27-.37.37-.93.79l.43.69c.74.83.36,1.43-1.12,1.79a11,11,0,0,1-3.79,2.12c0-.94-.85-4.15-.21-4.93.23-.28,3.63-.94,4.12-1.14a28.43,28.43,0,0,0,2.79-1.32c2.93-1.7,6.52-3.43,8.9-5.62.94-.88,2.81-1.49.54-2.1-1-.27-2.48,1.45-2.64,1.53-.84.45-1.69.65-2.78,1.33a39.72,39.72,0,0,1-6.3,3.13c1.21-.62,2.53-1.43,2.68-2.2.36-1.91-3.34,1.19-4,1.56,0,0,3.16-2.74,1-2.37-1.66.28-2.56,3.23-4,3.88.17-2.86-1.7-3.1,1.87-4.4,1.43-.52,5.91-1.81,6.78-3.08,1.79-2.59-3.32-.67-5.05-.24,1.43-1,3.91-3.6.58-3-2,.35-2.68,2.61-4.22,3.49a8.76,8.76,0,0,1,.1-2.5c.5-1.29.52-.91,1.84-1.9s4.1-2.67,4.51-4.53.14-1.14-1.43-.26c-1.72,1-3.23,2.8-4.75,4,.41-2.9.06-2.63,2.63-4.56,1.57-1.19,3.71-2.72,4.29-4.66.74-2.48-.16-1.92-1.65-.6-1.92,1.71-3.58,4-5.91,5.47.21-1.43,4.19-5.13,2.4-6.58-1.09-.88-2,.94-2.44,1.88-2-1.45.19-7.53,0-9.73-.4-3.58-2.77-2-3.13,1.34a38.65,38.65,0,0,0,.54,10.87c-.48-.61-2.49-3.72-3.52-2.68-.87.88,2,3.53,2.51,4.13-1.56-1.3-6.21-4.38-2.84-.75,1.77,1.89,4.3,3.21,4.27,5.67-1.28-.16-2.22-1.79-3.33-2.32-2.34-1.13-2.69-.46-.83,1.22-5.3-2.25-1.92,1.58.79,2.69,1.71.7,2.7.31,3.37,1.76.41.89,0,2.93,0,4-1.09-.37-1.11-2.15-1.72-2.35-1.56-.52-1.63,1.21-1.23,2.06-1-.22-5.92-3.5-6.78-1.7-1,2,6.47,3.65,7.45,3.73-1.65,1.25,1.86.63,1.54.7,0,1.32.25,2.7.42,4-1.84-.29-4.18,0-5.77-.65-.52-.23-.83-1.13-1.38-1.31-.71-.22-1.25.36-1.74.26s-3.69-2.27-3.93-2.22c-1.64.4,1,2.54,1.38,2.81-1.82-.13-4-1.74-5.6-1.63-4,.28,1.57,2.13,2.88,2.64a15.82,15.82,0,0,0-2.19-.33c-1.49,1,1.17,1.37,1.83,1.45,1.82.21,3.48-.38,5.25-.17a22.84,22.84,0,0,1,4.64,1c-.89.34-4.18,1.25-3.39,2.51.19.31,3.45-.81,3.72-.88.55-.14,3.74-1.15,4.17-.95a4.36,4.36,0,0,0,.66,1.71c.39,1.42-.19,2-1.74,1.67-2,.81-6.58.38-8.28-.67-.56-.35-.86-2.26-2.06-1.62-1,.51.89,1.8.75,2.18-1.58-.5-9.11-3.58-4.64-.5,3,2.09,8.42,2.87,12.34,2.69a27.94,27.94,0,0,1-8.35-.61c-1-.23-5.8-2.61-6.5-2.27-2.06,1,3.14,2.54,3.86,2.77a28.15,28.15,0,0,0,7.61,1.3c-.75.21-4.63,1.17-2.39,1.83,1.44.43,7.18-1.95,8.84-2.27a24.73,24.73,0,0,0,.21,4.8c-3.66.48-6.18,1.22-9.83.84-1.11-.12-9.07-1.9-9.12-1-.06,1.24,7.79,1.94,9,2.07a49.68,49.68,0,0,1-6.57,0c-.65-.05-5.25-1.27-5.31-.11-.1,1.93,10.95,1.25,12.42,1.18-1.39.47-4.66.76-5.74,1.59-1.92,1.48,1.34.77,1.77.7a56.06,56.06,0,0,0,6.1-1.83,25.67,25.67,0,0,1,6-1c-.77.16-5.41,1.25-5.3,2.37.12,1.3,4.27-1.28,5.3-1.26,2.81,0,1.68,1.87,1.26,4.6a43.2,43.2,0,0,1-4.69-.25c-1.35-.24-1.65-.92-3-.5-.79.24.23,1,.42,1.07-2.13.49-4-.74-5.77-.29-2.89.73-.46,1.06.57,1.41a33.59,33.59,0,0,1-8,.22c-1-.07-3.54-.66-3,1.07s7.06,1.08,8.47,1c-.12,0-5,1.13-3.43,1.91,1.07.51,3.9-1.05,5.06-1.37a26.91,26.91,0,0,1,5.71-.85c1.94-.12,3.64-.77,5.55-.94-.59.56-5.69,4-3.88,4.36s4.19-4.56,5.74-4.34a21.75,21.75,0,0,0,.16,4.2c-1,.14-11.27.46-11,.05-1.3,2.37,8.28,1.41,9.46,1.27-4.68,1.51-9,1.71-13.73,1.82-.09,0-3.82-.25-2,1,1.07.71,4.65.22,6,.14a65.42,65.42,0,0,1-7.77,2.46c-.87.18-2.67.06-3.39.76-1.88,1.84,6.33-.12,7-.33-.93.57-4,1.78-3.53,2.71.58,1.22,7.29-2.44,8.28-3.22-.6,1.09-1,3.12.75,1.68,1.13-.95,1.29-2.72,2.82-3.73a9.73,9.73,0,0,1,5.68-1.36c2.39.31,1.83-.18,2.13,2.17-.91-.27-2.36-1.95-3.22-1.82-1.79.29,1.63,2.51,2,2.66-6.14,1.7-12.23,4.63-18.37,5.13a64.23,64.23,0,0,1-9.35.5s-6-.67-4.46.51c-.52,0-3.79-.09-3.2,1.3.22.52,3.2.1,3.49.08-1.38.57-2.21,1.59-.7,1.75.55.06,2.26-1,2.86-1.24a19.63,19.63,0,0,1,6.41-.93c-.52.41-2.77,1-2.59,1.76.35,1.4,3.72-1.35,4.22-1.54,2.39-.94,5.54-.45,8.12-1-1.69,1.52-3.36,2.14-5.26,3.33s-3.21,2.54-5.43,3.28a8.84,8.84,0,0,1-5.65.33c-.46-.11-4.35-1.63-3.49.31-1.45-.09-2.36.39-1.31,1.48.65.68,5,.22,6,.21-.28.14-5,2-3.27,2.81,1.11.54,3.51-1.32,4.61-1.8,3.35-1.48,6.81-1.46,10.4-2.09-1.28.71-6,2.59-6.57,3.82-1.13,2.25,4.16-.8,4.86-1.18a76.09,76.09,0,0,1,11-4.49c-.54.35-4.6,2.77-4.25,3.46.56,1.1,1.89-.48,2.56-1-.56,1.52,3.8,1.85,4.65,1.91-6.65,1.64-13.86,3.1-20.56,4.2-1.55.26-9.7.74-10.62,2.1s8.21-.37,9.1-.52c-1.85.79-7.1,2.5-8.46,4-2.31,2.54,4.88-.86,5.77-1.29,4.17-2,7.51-2.1,11.85-2.7-3.55,2.44-1.37,2.55,1.35.88a16.19,16.19,0,0,1,8.15-2.52c-.46.34-4.31,2.94-2.14,3.11.57,0,2.34-1.55,2.8-1.79a15.64,15.64,0,0,1,5-1.5c1-.13,3,.26,3.82-.37,0,.41.06,3.85-.18,4.11-.41.44-3,.68-3.57.83-2.29.53-4.58,1-6.83,1.44a62,62,0,0,1-9,1.58c-.09,0-5.08.26-3.4,1.34-2.26.5-8.32.81-10.1,2.17-2.77,2.13,4.09.47,4.88.3-3.36,1.46-6.48,2.53-9.93,3.77-.2.07-3.46.68-3.51,1.2-.18,1.62,2.27.59,3.28.33-1,.9-6,4.09-1.62,2.69,2.89-.92,4.56-3.78,7.84-4.65-.42.42-4,4.07-1.15,3,2.33-.89,3.1-4.11,5.85-4.82-.79.41-2.86,2.51-.84,2.33,1.19-.12,3.39-2.37,4.81-2.81-1.32,1-5.35,3.53-2.5,3.72.86.06,2.53-1.31,3.19-1.69,3.12-1.76,6.37-4.24,10-4.6-1.33,1.42-4.13,3.17-5.11,4.7-.87,1.35-1.2,1.84.77,1,3.89-1.58,4.9-6.84,9.06-6.48-.47.41-7.53,5.67-3.85,5.27.71-.08,3.21-2.16,4-2.62,1.52-.84,2.65-1.64,4.36-1.76-2.82,2.76-3.94,4.33-7.82,5.25-3.28.78-6.61,1.44-9.92,1.9-3.07.44-5.69-.47-8.72-.06-1,.14-4.26,1.41-1.44,1.73-2.25,1-5.19,1.29-7.55,1.53-2.17.22-7.2-.27-9,1.09-2.65,2.05.84,1.73,2.64,1.68-1.92.91.68.95,1.16.91,1.12-.09,2.35-.95,3.56-1.1,1.56-.19,2.29.24,3.82.35-.92.61-5,2.64-3,3.34.79.28,2.78-1.82,3.65-2.24,2-1,1.53-.9,3.55-.85-.72.56-4.56,4.23-1.63,3.46.41-.11,2.67-2.69,3.22-3a8.69,8.69,0,0,1,4.66-1.44c-.84,1.38-7.5,3.82-7.28,4.46.51,1.48,3.18-.62,4.13-.94.18-.06.42.85,1.33.4,2.83-1.41,3.89-4.69,7.17-5.36a11,11,0,0,1,4.74.21c-1.65.54-9.18,2.75-9.48,4.74-.17,1.1,7.72-2.78,8.54-3.07-1.27,2.34-6.44,3.93-8.93,4.1-.48,0-6.66-.32-4.46,1.35.91.68,4.61,0,5.77-.13-2,1.74-8.47,2-10.86,2-2.91,0-5.56-.54-8.38-.67-.2,0-2.45-1.17-2.48.22,0,.34.36.58.81.76-1.25.48-2.69,1.17-4,1.73a16.35,16.35,0,0,0-4.18.58,1.27,1.27,0,0,1-.33-.82c1.26-.38,3-.46,3.94-.83.62-.25,1-.57,2-1.08s5.14-2,4.25-3.41c-1.55.57-10.84,3.95-11.38,1.56,1.69-1.12,1.53.08,3-.2.37-.07.7-1.22,1.1-1.27.77-.09.86.84,1.79.51s.29-1,1.62-1.17c-.38-.82.24-1.62,1.11-2-.59-1.51-2.3.32-3.2.59-2,.63-3.65.07-5.69.36.95-1.64,1.82-1.81,3.62-2.16a4.52,4.52,0,0,1,0-2.45l1.17-.2c.62-.86.57-1.64,1.49-2.47-.81.16-2.35.63-2.55-.5-1.89,1.82-2.55,2.71-5.15,3.56.63-.77.83-1.65,0-1.67.29-1.73,1.36-1,2.6-1.93s2.08-2.2,3.24-3.23c-1.82-.91.34-1.66.39-3-1.07.64-3,.88-3.38,2.27-.42,0-.46-.08-.38-.19l-1.19.66a1.25,1.25,0,0,0-1.24-1.5c1.08-.49.83-.93,0-1.44,1-.76,4.91-1,3.42-2.55-.64-.65-5.14,1-2.46-1.72a4,4,0,0,0-2.19,0c.27-1.56,1.37-4.87-1.31-4a3.42,3.42,0,0,0,.41-2.33,15.59,15.59,0,0,0-1.53,2.39c-.19-.52.28-2.87-.31-3s-2,2.82-2.14,3.22c-.59,1.24.08,1.09-1.34,2.1-.69.5-1.72.32-2.14.86-.94,1.18-.17.49,1,1.19-1.56,1.13,1,1.17,1.4,1.56a28.16,28.16,0,0,0-3.17.63c-.76.12-2.07-.45-2.77.26a40.46,40.46,0,0,0,5.6,1.92,6.07,6.07,0,0,0-2.38,1c1.7.9-.58,4.73,4.13,4-2.83,2.77-6-1.84-8.82-.47,0-.81-.4-1.05-1.2-.56.15-.51,0-.76-.43-.74-1.58.78,1.76,3.27,1.53,3.94l-1,.57c1.29.32,1.44.83.47,1.53-1.47-1.47-.75-.48-2.52.47,1.77.56-.53.79.58,1.47-1,1.18-1,1,.54,1.47-.79.42,2.57,2.78,3.18,2.32.22,1.26-2.63.17-4.78-.69a3.53,3.53,0,0,0,.52-1.09,11.09,11.09,0,0,0-1.82.58c-.59-.23-1-.36-1-.26a1.64,1.64,0,0,0,.08.66c-4.78,2.16-11.34,6.55-14.76,2.76-1.74-1.93.35-2.43,2.69-3a17.17,17.17,0,0,1,2.8-.9c.28,0,2.71,1.13,3,1.06.12.6.45.63,1,.1.83-.23,1.08-.74.73-1.52-.37-1.05,0-1.49,1.24-1.32s1.53-.17,1.19-1.05c.25-.48.67-2.25.88-2.8,1,0,1.29-.37.81-1.16-.18-.94-.73-1-1.64-.28-2.31.41-4.57,3.74-7.2,3.27-2.11-.38-.42-.18-.76-1.45-.27-1-1.54-.61,0-2.14-2.26,1.39-9.61,1.41-5-1.06,1.87-1,4.14.05,5.83-.63-1.19.47,1.61-1.64,1.69-1.72a35,35,0,0,1,3.65-1.54c-.87-.79-.46-1.49.88-2.08-1.94-2.82-15.52,7.76-15.94,2.33a34.66,34.66,0,0,1,3.69-.63l1-.8,1.14.45c.58-.25,1.68-1.21,2.62-1.81,1.14-.73,6.75-2.56,5.51-4.49-2.3.84-14.86,5.44-15.6,2.13,2.42-1.61,4.14.75,5.57-2,2.52,2.2,2.44-.66,4.67-.9-.51-1.14.34-2.23,1.53-2.75-.76-1.93-3,.23-4.28.75-2.8,1.15-5.09.15-7.91.55,1.33-2.29,2.47-2.47,5-3a4.44,4.44,0,0,1-.12-2.78c.61-1,1.06-.15,1.79-1,1-1.12.63-2.11,1.93-3.28-1.2.24-3.22.9-3.5-.68-2.56,2.46-3.53,3.73-7.06,4.88.86-1.06,1.14-2.27-.06-2.29.36-2.14,1.72-1.62,3.4-2.56,1.89-1.06,3-3.11,4.61-4.52-2.5-1.25.47-2.29.54-4.06-1.45.88-4.18,1.25-4.64,3.11-1.07.06-.73-.11-2.15.64a1.77,1.77,0,0,0-1.7-2,12.81,12.81,0,0,1,1.18-.72,16.57,16.57,0,0,1-1.14-1.24c.89-.68,7.09-1.85,4.85-3.52-1.06-.79-7.15,1.35-3.53-2.35a5.58,5.58,0,0,0-3,0,16,16,0,0,0,.42-5.72c-.73.33-1.48,0-2.2.28a4.94,4.94,0,0,0,.56-3.2,20.8,20.8,0,0,0-2.1,3.29c-.26-.68.4-3.94-.43-4.19-1.52-.45-3.32,6.53-4,7.17-1.14,1-2.51.45-3.5,1.18-1.94,1.45-.13,1,1.15,1.76-2.16,1.56,1.32,1.59,1.92,2.13-1.47,0-2.88.82-4.57.84-.71,0-3.27-.47-3.67.52-.13.3,6.84,2.32,7.78,2.5a7.51,7.51,0,0,0-3.26,1.35c2,1.06.61.59.41,2.71.47-.12.88,1.68,1.37,2.09a5.85,5.85,0,0,0,3.88.69c-.83.81-3.12,1-4.22.85-.53-.08-2.45-1.67-2.2-.28-2.2,0-2.31-2.85-5.67-1.22,0-1.11-.56-1.44-1.65-.77.16-.54,0-.9-.43-1.06-1.28.12.3,2.87.48,3.27s.89,1.38.91,1.58c.16,1.33.19-.14-.82,1.38.65.43,2.55,1.21.65,2.1-2-2-1-.66-3.45.64.71.23,1.56,1,.22,1.41,1.59,1-2.27,1.62,1.31,2.62-1.07.57,3.52,3.83,4.36,3.18.55,3.11-7.87-1.86-8.34-2-.86-.2-1.73-.26-1.25,1.48a11.74,11.74,0,0,0,1.62,2.79,7,7,0,0,0,2,.8c.58.18.9.85,1.57,1,.32-.79.92-1,1.83-.49-.24.67-.06.94.52.83,1.91,1,1.06.88,3.38.42,2.56-.51,3.17-1.31,4.74.43-3,.72-6.92,1.64-9.91,1.22a14.06,14.06,0,0,1-3.73-1.07c-.76-.34-2.29-2.06-2.89-2.17-2.21-.38-1.41,2.79-.89,3.91l1,.5a1.35,1.35,0,0,0-.19,1.38c.55.34,1.84.84,2.21,0,2.43,1.83,3.84.86,6.3.1-.65.2,2-.71,1.57-.7.29,0,1.37.28,1.67.25a36.42,36.42,0,0,0,4.24-.8c-1.36.47,1.26,1.68,1.93,1.54,0-1.27,2.53-.94,2.14.19-.52,1.45-3.49.29-4.45.24-4.73-.2-8.26,3.18-12.89,2.44-.9-.15-2.27-1.4-2.49.26,0-.26,1.43,1.46,1.44,1.47a6.79,6.79,0,0,0,4.8,1.25c-.22.21,4,3,5.34-.74a12.19,12.19,0,0,0,3.67,0c2.89-.48,2.79.3,4.43,1.26.38.22,1.4-.92,1.76,0,.53,1.38-1.6,1-2,1-.63,0-2.3-1-2.83-1.1-2.15-.5-3-.13-5,1a9.85,9.85,0,0,1-9.58.17c-1.38-.64-6.64-5.95-8.17-4.29-.44.48.14,3.45.43,4.08a1.77,1.77,0,0,0,1.11.38,2.34,2.34,0,0,0,1,1.84c.84.71.41.64,1.89.54-.28,1.16-2.44,1.85-1.31,2.72s3.35-1.66,4.75-.39c-.26.21-.66,1.74.14,1.23.09-.06,3.48-1.15,4-.53-1.34.54,1.81,2.77,2.44.5.55.86,1.86.17,2.5.94-1.47.45-2.9,1.37-4.45,1.14-1.36-.2-1.85-1.07-3.35-1.15-2.3-.13-3.68.36-5.77-.75-1-.52-3.12-3.07-4.4-3-2,.13-1.14,1.57-1.16,2.15,0,1.52.33,1.83,1.48,2.74.44.35,1.72.63,2,.91,0,.05.33,1.86.11,1.67,1.45,1.18,3.8-.08,5.92-.11-1.62.44,1.73,2.21,2.35,2.26-.6-1.73,2.22-1.34,3-.67,1.26,1.08-1.21,1.08-2.54,1.83,1,1.16,3.86,1.59,4.35-.6,1.42.76,1.32-.43,2.53-.23.44.07,1.45,1.11,1.67,1.13,1.94.17,3.56-.62,5.57.27-1.27,1.4-5.18.82-6.74,1.05-2.3.34-4.77,1.41-7,1.15-1.91-.21-2.93-1.14-5-.76-1.68.31-2.72,1.19-4.57,1.17a11.11,11.11,0,0,1-5.79-1.71c-.43-.27-3.19-2.89-4.07-2.22-.61.47-.11,1.32.28,2.05a6.91,6.91,0,0,1-1.19.67c-2.06.63-3.65.07-5.7.36,1-1.64,1.82-1.81,3.62-2.16a4.43,4.43,0,0,1,0-2.45l1.16-.2c.62-.86.57-1.64,1.5-2.47-.82.16-2.36.63-2.56-.5-1.88,1.82-2.55,2.71-5.15,3.56.63-.77.84-1.65,0-1.67.29-1.73,1.36-1,2.6-1.93s2.09-2.2,3.24-3.23c-1.81-.91.35-1.66.39-3-1.07.64-3,.88-3.38,2.27-.42,0-.46-.08-.37-.19l-1.2.66a1.25,1.25,0,0,0-1.24-1.5c1.08-.49.83-.93,0-1.44,1-.76,4.91-1,3.42-2.55-.64-.65-5.13,1-2.45-1.72a4,4,0,0,0-2.2,0c.28-1.56,1.37-4.87-1.3-4a3.55,3.55,0,0,0,.41-2.34,16.18,16.18,0,0,0-1.53,2.4c-.2-.52.28-2.87-.31-3s-2,2.82-2.15,3.22c-.58,1.24.08,1.09-1.34,2.1-.69.5-1.71.32-2.14.86-.94,1.18-.16.49,1,1.19-1.55,1.13,1,1.17,1.41,1.56a28.32,28.32,0,0,0-3.18.63c-.76.12-2.07-.45-2.77.26a40.66,40.66,0,0,0,5.61,1.92,6,6,0,0,0-2.38,1c1.69.9-.59,4.73,4.12,4-2.83,2.77-6-1.84-8.81-.47,0-.81-.41-1.05-1.21-.56q.24-.76-.42-.75c-1.59.79,1.76,3.28,1.52,3.95l-1,.57c1.29.32,1.45.83.47,1.53-1.47-1.47-.75-.48-2.52.47,1.78.56-.53.79.59,1.47-1,1.18-1,1,.53,1.47-.79.42,2.57,2.78,3.18,2.32.35,2-7-1.89-7.08-1.46a6.1,6.1,0,0,0,1.57,3.31c.79.68,2.07.57,2.62.75,1.06.34,1.86,1.16,2.8,1.2,2.1.1,3.11-1.49,4.54.08-4.78,1.14-7.15.63-11.34-.72-1.26-.4-1.55-1.41-1.77.46a4.1,4.1,0,0,0,6.3,3.2c2.18-.86,3.75-.41,6.35-1-1.95.67,2.72,1.12,1.66.56,2.28,1.21.54.82-1.41.89-2.54.08-4.23,1.15-6.57,1.7-.69.17-3.57-.18-4.7-.18l.06,0c-.49-.72-2-.25-3.78.49-.56-.28-1-.25-1.29.56-3.07,1.36-6.38,2.91-6.56.65,1.26-.38,3-.46,3.94-.83.62-.25,1-.57,2-1.08s5.14-2,4.25-3.41c-1.55.57-10.84,3.95-11.38,1.56,1.69-1.12,1.53.08,3-.2.37-.07.7-1.22,1.1-1.27.77-.09.86.84,1.79.51s.29-1,1.62-1.17c-.38-.82.24-1.62,1.11-2-.59-1.51-2.3.32-3.2.59-2,.63-3.65.07-5.69.36,1-1.64,1.82-1.81,3.62-2.16a4.52,4.52,0,0,1,0-2.45l1.17-.2c.62-.86.57-1.64,1.49-2.47-.81.16-2.35.63-2.55-.5-1.89,1.82-2.55,2.71-5.15,3.56.63-.77.83-1.65,0-1.67.29-1.73,1.36-1,2.6-1.93s2.08-2.2,3.24-3.23c-1.82-.91.34-1.66.39-3-1.07.64-3,.88-3.38,2.27-.42,0-.46-.08-.38-.19l-1.19.66a1.25,1.25,0,0,0-1.24-1.5c1.08-.49.83-.93,0-1.44,1-.76,4.91-1,3.42-2.55-.64-.65-5.14,1-2.46-1.72a4,4,0,0,0-2.19,0c.27-1.56,1.37-4.87-1.31-4a3.43,3.43,0,0,0,.41-2.34,16.18,16.18,0,0,0-1.53,2.4c-.19-.52.28-2.87-.31-3.05s-1.95,2.82-2.14,3.22c-.59,1.24.08,1.09-1.34,2.1-.69.5-1.72.32-2.14.86-.94,1.18-.17.49,1,1.19-1.56,1.13,1,1.17,1.4,1.56a28.16,28.16,0,0,0-3.17.63c-.76.12-2.07-.45-2.77.26a40.46,40.46,0,0,0,5.6,1.92,6.07,6.07,0,0,0-2.38,1c1.7.9-.58,4.73,4.13,4-2.83,2.77-6-1.84-8.82-.48,0-.8-.4-1-1.2-.55.15-.51,0-.76-.43-.75-1.58.79,1.76,3.28,1.53,4l-1,.57c1.29.32,1.44.83.47,1.53-1.47-1.47-.75-.48-2.52.47,1.77.56-.53.79.58,1.47-1,1.18-1,1,.54,1.47-.79.42,2.57,2.78,3.18,2.32.22,1.26-2.63.17-4.78-.69a3.53,3.53,0,0,0,.52-1.09,11.09,11.09,0,0,0-1.82.58c-.59-.23-1-.36-1-.26a1.64,1.64,0,0,0,.08.66c-4.78,2.16-11.34,6.55-14.76,2.76-1.74-1.93.35-2.43,2.69-3a17.17,17.17,0,0,1,2.8-.9c.28,0,2.71,1.13,3,1.06.12.6.45.63,1,.1.83-.23,1.08-.74.73-1.52-.37-1.05,0-1.49,1.24-1.32s1.53-.17,1.19-1c.25-.48.67-2.25.88-2.8,1,0,1.29-.37.81-1.16-.18-.94-.73-1-1.64-.28-2.31.4-4.57,3.74-7.2,3.27-2.11-.38-.42-.18-.76-1.45-.27-1-1.54-.61,0-2.14-2.26,1.39-9.61,1.41-5-1.06,1.87-1,4.14.05,5.83-.63-1.19.47,1.61-1.64,1.69-1.72a35,35,0,0,1,3.65-1.54c-.87-.79-.46-1.49.88-2.08-1.94-2.82-15.52,7.76-15.94,2.33a34.66,34.66,0,0,1,3.69-.63l1-.8c.38.15.76.29,1.14.45.58-.25,1.68-1.21,2.62-1.81,1.15-.73,6.75-2.56,5.51-4.49-2.3.84-14.86,5.44-15.6,2.13,2.42-1.61,4.14.75,5.57-2,2.52,2.2,2.44-.66,4.67-.9-.51-1.14.34-2.23,1.53-2.75-.76-1.93-3,.23-4.28.75-2.8,1.15-5.09.15-7.91.55,1.33-2.29,2.47-2.47,5-3a4.44,4.44,0,0,1-.12-2.78c.61-1,1.06-.15,1.8-1,1-1.12.62-2.11,1.92-3.28-1.2.24-3.22.9-3.5-.68-2.56,2.46-3.53,3.73-7.06,4.88.86-1.06,1.14-2.27-.06-2.29.36-2.14,1.72-1.62,3.4-2.56,1.89-1.06,3-3.11,4.61-4.52-2.5-1.25.47-2.29.54-4.06-1.45.88-4.18,1.25-4.64,3.11-1.07.06-.73-.11-2.15.64a1.77,1.77,0,0,0-1.7-2.05,12.81,12.81,0,0,1,1.18-.72,16.57,16.57,0,0,1-1.14-1.24c.89-.68,7.09-1.85,4.85-3.52-1.06-.79-7.15,1.35-3.53-2.35a5.58,5.58,0,0,0-3-.05,16,16,0,0,0,.42-5.72c-.73.33-1.48,0-2.2.28a5,5,0,0,0,.56-3.2,20.8,20.8,0,0,0-2.1,3.29c-.26-.68.4-3.94-.43-4.19-1.51-.45-3.32,6.53-4,7.17-1.14,1-2.51.45-3.5,1.18-1.94,1.45-.13,1,1.15,1.76-2.16,1.56,1.32,1.59,1.92,2.13-1.47,0-2.88.82-4.57.84-.71,0-3.27-.47-3.67.52-.13.3,6.84,2.32,7.78,2.5a7.51,7.51,0,0,0-3.26,1.35c2,1.06.61.59.41,2.71.47-.12.88,1.68,1.37,2.09a5.85,5.85,0,0,0,3.88.69c-.83.81-3.12,1-4.22.85-.53-.08-2.45-1.67-2.2-.28-2.2,0-2.31-2.85-5.67-1.23,0-1.1-.56-1.43-1.65-.76.16-.54,0-.9-.43-1.06-1.28.12.3,2.87.48,3.27s.89,1.38.91,1.58c.16,1.33.19-.14-.82,1.38.65.43,2.55,1.21.65,2.1-2-2-1-.66-3.45.64.71.23,1.56,1,.22,1.41,1.59.95-2.27,1.62,1.31,2.62-1.07.57,3.52,3.83,4.36,3.18.55,3.11-7.87-1.86-8.34-2-.86-.2-1.73-.26-1.25,1.48a11.74,11.74,0,0,0,1.62,2.79,7,7,0,0,0,2,.8c.58.18.9.85,1.57,1,.32-.79.92-1,1.83-.49-.24.67-.06.94.52.83,1.91,1,1.06.88,3.38.42,2.56-.51,3.17-1.31,4.74.43-3,.72-6.92,1.64-9.91,1.22a14.06,14.06,0,0,1-3.73-1.07c-.76-.34-2.29-2.06-2.89-2.17-2.21-.38-1.41,2.79-.89,3.91l1,.5a1.35,1.35,0,0,0-.19,1.38c.55.34,1.84.84,2.21,0,2.43,1.83,3.84.86,6.3.1-.65.2,2-.71,1.57-.7.29,0,1.37.28,1.67.25a36.42,36.42,0,0,0,4.24-.8c-1.36.47,1.26,1.68,1.93,1.54,0-1.27,2.53-.94,2.14.19-.52,1.45-3.49.29-4.45.24-4.73-.2-8.26,3.18-12.89,2.44-.9-.15-2.27-1.4-2.49.26,0-.26,1.43,1.46,1.44,1.47a6.79,6.79,0,0,0,4.8,1.25c-.22.21,4,3,5.34-.74a12.19,12.19,0,0,0,3.67,0c2.89-.49,2.79.3,4.43,1.26.38.22,1.4-.92,1.76,0,.53,1.38-1.6,1-2,1-.63,0-2.3-1-2.83-1.1-2.15-.5-3-.13-5,1a9.85,9.85,0,0,1-9.58.17c-1.39-.64-6.64-6-8.17-4.29-.44.48.14,3.45.43,4.08a1.77,1.77,0,0,0,1.11.38,2.34,2.34,0,0,0,1,1.84c.84.71.41.64,1.89.54-.28,1.16-2.44,1.85-1.31,2.72s3.35-1.66,4.75-.39c-.26.21-.66,1.74.14,1.23.09-.06,3.48-1.15,4-.53-1.34.54,1.81,2.77,2.44.5.55.86,1.86.17,2.5.94-1.47.45-2.9,1.37-4.45,1.14-1.36-.2-1.85-1.07-3.35-1.15-2.3-.13-3.68.36-5.77-.75-1-.52-3.12-3.07-4.4-3-2,.14-1.14,1.58-1.16,2.16,0,1.52.33,1.83,1.48,2.74.44.35,1.72.63,2,.91,0,.05.32,1.86.1,1.67,1.45,1.18,3.8-.08,5.92-.11-1.62.44,1.73,2.21,2.36,2.26-.61-1.73,2.21-1.34,3-.67,1.26,1.08-1.21,1.08-2.54,1.83,1,1.16,3.86,1.59,4.35-.6,1.42.76,1.32-.43,2.53-.23.44.07,1.45,1.11,1.67,1.13,1.94.17,3.56-.62,5.57.27-1.27,1.4-5.18.82-6.74,1-2.3.34-4.77,1.41-7,1.15-1.91-.22-2.93-1.14-5-.76-1.68.31-2.72,1.19-4.57,1.17a11.11,11.11,0,0,1-5.79-1.71c-.43-.27-3.19-2.89-4.07-2.22-.61.47-.11,1.32.28,2a6.91,6.91,0,0,1-1.19.67c-2.06.63-3.65.07-5.7.36.95-1.64,1.82-1.81,3.62-2.16a4.43,4.43,0,0,1,0-2.45l1.16-.2c.62-.86.57-1.65,1.5-2.47-.82.16-2.36.63-2.56-.5-1.88,1.82-2.55,2.71-5.15,3.56.63-.77.84-1.65,0-1.67.29-1.73,1.36-1,2.6-1.93s2.09-2.2,3.24-3.23c-1.81-.91.35-1.66.39-3-1.07.64-3,.88-3.38,2.27-.42,0-.46-.08-.37-.19l-1.2.66a1.25,1.25,0,0,0-1.24-1.5c1.08-.49.83-.93,0-1.44,1-.76,4.91-1,3.42-2.55-.64-.65-5.13,1-2.45-1.72a4,4,0,0,0-2.2,0c.28-1.56,1.37-4.87-1.3-4a3.55,3.55,0,0,0,.41-2.34,16.18,16.18,0,0,0-1.53,2.4c-.2-.52.28-2.87-.31-3.05s-2,2.82-2.15,3.22c-.58,1.24.08,1.09-1.34,2.1-.69.5-1.71.32-2.14.86-.94,1.18-.16.49,1,1.19-1.55,1.13,1,1.17,1.41,1.55a30.87,30.87,0,0,0-3.18.64c-.76.12-2.07-.45-2.77.26a40.66,40.66,0,0,0,5.61,1.92,5.86,5.86,0,0,0-2.38,1c1.69.9-.59,4.73,4.13,4-2.84,2.77-6-1.84-8.82-.47,0-.82-.41-1-1.21-.56q.24-.76-.42-.75c-1.59.79,1.76,3.28,1.52,4l-1,.57c1.29.32,1.45.83.47,1.53-1.47-1.47-.75-.48-2.52.47,1.78.56-.53.79.59,1.47-1,1.18-1,1,.53,1.47-.79.41,2.57,2.78,3.18,2.32.35,2-7-1.89-7.08-1.46a6.1,6.1,0,0,0,1.57,3.31c.79.68,2.07.57,2.62.75,1.06.34,1.86,1.16,2.8,1.2,2.1.1,3.11-1.49,4.54.08-4.78,1.14-7.15.63-11.34-.72-1.26-.4-1.55-1.41-1.77.46a4.1,4.1,0,0,0,6.3,3.2c2.18-.86,3.75-.41,6.35-1-2,.67,2.72,1.12,1.66.56,2.28,1.21.54.82-1.41.89-2.54.08-4.23,1.15-6.57,1.7-.84.2-5-.36-5.16-.12-.72,1.06,3.65,2.55,4.54,2.36-.23.22,3,2.08,3.89-.54,1.23.12,2.33-.32,3.61-.15.4,0,3,.91,3,.85.74,1.57-.47.88-2.06.53-3.46-.79-4.37,1.15-7.69,1.36-2.77.19-4.87-1.42-6.82-2.78-1.36-.95-2.76-2.53-3.15-.12-.26,1.55,2,4,3.39,3.89-.35,1.45-2.07,1.23-.37,2,.25.12,1.54-.59,2-.61,2-.06-.08,1.31.91,1.21.1,0,2.61-.9,3-.42-1.33.52,3.33.72,3.6,1-3.25,1-8,.58-10.72-1.11-1.77-1.1-3.64-2.41-3.17.4.16,1,.3.8,1.11,1.64a13,13,0,0,0,1.3,1,1.13,1.13,0,0,1,.18.91c1.18.57,2.75-.23,4.25-.25-1.08.3,1.24,1.62,1.72,1.66-.42-1.23,1.25-1,1.91-.52,1.27.9-.29.64-1.57,1.36.7.83,2.82,1.13,3.17-.44,1,.52.68,0,1.66,0,.63,0,1.08.56,1.71.64,1.22.14,2.39-.38,3.76.23-1,1.14-5.73,1-7.21,1.25-2.32.42-3.58-.5-5.69-.39-2.45.14-4,1.46-6.57.64a1.65,1.65,0,0,1-.34-.16,1.75,1.75,0,0,1,1-1.13c1.79-.85,2.74.68,4.55-1-1.55-.34-2.89-1-4.57-.3-.89-.47-.75-5.72-2.54-3.91-1.28,1.68-3,.13-4.56,1.23-.06,0,.86-3,.81-2.91,1.2-1.8,2.15-2.1,2.92-4.4-.77-.44-3.7,3.56-4.22,4.09-1-.33-.62-2-1.63-2.35s-1.26.71-2.29,1.27c-2.33,1.26-1.68.34-.7-1.65.11-.23,1.22-2,1.35-2.23a12.06,12.06,0,0,1,1.37-1.5c1.85-1.95,1.23-1.13,3.55-.93.74.07,0-1.51.09-1.61a33.06,33.06,0,0,1,3.5.17c.25,0,.88.24,1.24.22.18-.36.35-.71.53-1.06a4.45,4.45,0,0,1,2.4-.68c-1.87-1.16-3.38-2.13-5.51-.35a9.53,9.53,0,0,1-1.73-.37c.45-1.29,2.91-1.69,1.37-2.59.25.15-2.81.38-2.17.28-.81.13-1.62.28-2.43.47-1.75-1.07-.67-2.32-.06-3.56.33-.67.94-3.23,1.6-3.78-2,.15-.94,2-2.66,1.09.77.43-2.11,1.71-3.09,1.23-1.46-.71-.25-1.26-2.22-1.36-.7,0-1.86.92-2.42.6-1.4-.78,1.6-1.64,1.67-1.73.43-.57.71-1.34,1.11-1.9a25.67,25.67,0,0,1,2-2.68s.89.73,1.4.61c1.74-.41,0-1.55,3.22-1.72,1.89-.11,5.82.61,7.32-1.45-1-.69-2.2.27-3.15-.39.23-.87,1-.8,1-1.81-2.08.36-4.11,2.4-6.25,2.31,4.68-5.63-1.84-.43-2.66-2.1a5.31,5.31,0,0,0,2.09-1.47c-2.47-.37-2.81-1-4.87,1-2.91-.82,4.09-5.59,3.24-7.5-.54-1.21-1.61-.21-2.19-.76s-.57-1.43-.86-2c-.19-.33.13-3.08-1.64-.24-2-.1-2.24,1.34-3.37,2.51a2.92,2.92,0,0,1-.61-1.56c.81-.88,1.46-2.58,2.13-3.23,1.22-1.19,2.49-.68,3.79-1.54-.27-1.3-1.43,0-.56-1.82,0-.06,2-1,2-1.08,2.47-1.54,4.1-2.05,5.89-4.54-2.72,1.15-5.18,2.87-7.89,4-1.71-1.25,6-3.75,4.55-5.49-.6-.71-6.17,3.47-6.42,4.3-1.45-.36.35-4.06-.15-5.17,1.28-.17,2.52-.08,3.63-1-1.42-1.57-4.37-.73-6.25.07.2-.48,1.11-1.22,1-1.79-5.24.71.79-3.32,2.37-4.39,2.28-1.55,4.88-3,5.63-5.72-1.13.34-2.33,2.14-3.61,2.07-2-.12-.62-2.63-1.38-2.82s-3.15,5.95-4.28,6.31c-1.85.57-.93-2-1-2.87.61-1,1.45-1.29,2.08-2.18-1.51,0-5.83.45-6.92-.39-.79-.6-.72-.32.21-1.42.52-.62,6.49-5.52,7.35-5.29-.89-.24-2.64.49-3.46,1,0-.21-.61-1.38-.37-1.56-.57.44-2,.47-2.66.71-1.22.14-2.66-.35-2.65-1.28,0-2,3.34-2.4,4.45-3.85-.71-1.37-2.34,1.85-2.35-1.29-.45.22-1.45.93-2,.9a7.86,7.86,0,0,1-1.82-.48c-.81.36-.87,1.66-1.57,2.19s-.24-1.92,0-2.2c.41-.6,1.45-.75,2-1.14a17.45,17.45,0,0,0,5.14-4.71c-2.08.23-3.19,3.13-5.16,3.39l.31-2.31c-.88,1.28-2.67,3.7-2.8.5.08-.28,1.22-1.93.7-2.37-.67-.55-1.14,1.11-1.41,1.18-1.39.37-.14,1.55-1.44.18-.31-.32,0-2.34,0-2.86l1.39-.15c0-.07-1.88-3.53-2-3.54-1.5-.19,0,6.48-.69,7s-1.32-2.63-1.94-1.92.94,3.08,1,3.82c-4.22,1.67-2.64-5.62-5.79-5.24.77,2.43,1.9,4.61,2.82,6.84.26.65,1.54,5-.89,3.41-1.15-2.22-1.58-1.31-3.4-2.17-1-.49.35,1.66.32,1.47.22,1.24,1.13,2.33.84,3.73-1-.05-1-1.41-2.22-1.14,1.28,1-.36,3.61,1.56,4.08-1,1-1.55,0-2.62.42-.33.83.69,1,.32,2-.91-2.28-2.78,1.18-1,1.72,1.34,0,2,2,2.35,2.89.22.52,1.7,1.68,1.48,2.51-.8.67-1.19-.24-1.81-.35-.87.65.93,1.9-.55,2.08-.59.08-3-3.61-3.41-4.16.13.75,2.9,5.83,2.53,6.24.43-.48-10.24-4.72-10.78-5,.73.43,4.41,3.77,4.92,3.67-.3.07-2.17.56-2.19.77-.08,1.13,5.19-1.07.83,1.81a15.94,15.94,0,0,1,2.76,0c1.6.27,2.31.94,2.32,1.86,0,4.11-4.54,1.43-6.32,3.54.66.84,2.4.21,3.18.63a10.74,10.74,0,0,1,2.36,2c1,1.24,3.12,4.51,1.59,6,0,0-2.75-2.14-2.85-2.23a19.58,19.58,0,0,1-3.43-3c-.29.93.42,1.45.2,2.32-5.48-2.88.36,1.41-2,2.26-.66.25-1.19,1.38-1.69,1.88s-1.6-.71-1.77.43c-.1.71,1.84.9,2.19,1,2.43.91,3.51,2.13,5.42,3.77,1.13,1,4.42,3,4.6,4.45a31.81,31.81,0,0,1-3.41.56c-1.54-.34-1.66-2.28-2.86-2.94-1-.55-1.39,2.82-1.19,2.59-.7.76-.59.64-1.64,1.05-2,.78-5.44-1-6.81-2,.35.25.25,2.5.62,3.06.56.83,1.93.67,1.4,1.77-1.33-.5-4.37-1.88-5.93-1.17-.09,1.49,4,1.68,3.6,3.26-.33,1.4-1.47.74-1.9,1.56a4.36,4.36,0,0,0-.17,1.72c0,.37-.14,1.62.18,1.91,1.1,1,.42-.68,1.45-.66a50.57,50.57,0,0,0,8.33-.09c1.72.29,1.37,1.65,3.11,2.08-.12,1.18.87,2.93-.81,3.5-1.83,1.07-8.06-1.18-10.35-1.57.35.81,1.33,1.81,1.2,2.78-.25,2-1.51,1.26-2.74,2a10.33,10.33,0,0,1-1.32.76,3.85,3.85,0,0,1,.23,1.33c0,.32-5.87-.71-3.15,1.51.41.33,3,.2,3.61.4a5.47,5.47,0,0,1,3.29,2.24c-2.36-.28-8.11.34-5.47,2.71,1.49,1.35,3.86,1.31,6,1.33a36.08,36.08,0,0,0,7.32-.9c1.42-.28,3.14-1.19,3.7.55.87,2.71-2.39.79-3.27.91.07.72-2.46-.61-3.13.12-1.18,1.28,3.89,4.75,2.49,5.59-.55.33-1.5-1.78-1.65-1.63-1.22,1.21.36,1.56-1.42,2-.82.2-3-1-3.69-1.22-2.11-.72-5.13-.81-6.91-1.88-.67,3.65,6.52,4.64,8.58,6.39-.25.28-3.23,2.65-3.39,2.7-1.17.35-3.31-.78-4.48-.29-1.49.63,3.5,2.92,3.51,3-.24.74-5.07,1.67-6.33,2.34,1.15.62,1.68-.19,2.68.18.79.3,1,1.06,1.77,1.36,1.44.57,2.64,0,4.14,0a4.15,4.15,0,0,1,2.15.51c.91.54,2.31,4.72,1.83,4.54s-1.65-1.61-2.11-1.45-1,.85-1.78,1.15a16.58,16.58,0,0,1-4.44.7c-1.49.09-4.19-1-5.1-.37-.41-.39-.88-1-1.59-.38,1.21,1,.54,2.88.6,3.52,0-.16-.55,0-.57.26-.06.74.89.7.85,1.46-.42.61-.9-.33-1.3.49.37,1.34,1.89,2.44-.42,2.67a16.23,16.23,0,0,1-5-1.73c.24,2.12-.17,2.26,1.71,3.31,1,.57,1.87.53,2.26,1.49-1.3-.17-2.73-.61-3.72.82.66.67,1.51-.16,1.6,1.11a7.94,7.94,0,0,0-4.52,1.58c2,2.38,9.35-2.3,11-.1.53.71-.54,1.79.3,2.25a12,12,0,0,1,1.87-.27,7.63,7.63,0,0,1-.68-2.45c-.34,1.76,7.59-.44,7.53,1.24-2.09.21-5.27-.12-5.92,1.49a.35.35,0,0,1-.07.24c0,.06,0,.12,0,.19s1.18.64,1.29.84c.34.64-.64.89.37,1.85-1.73-.51-.12,3-.71,3.47-.79.65-5.41-2.91-5.45-2.88-.6.53,0,3.06.66,3.31,0,.43-.81.5-.64,1.12s1.64.47,1.19,1.5c-1,2.3-2.66.35-3.5.76a14.35,14.35,0,0,1-2.12-.54c-1.34.72.33,1.05.27,1.49.23-1.92,1,2.37.21,1.09a.67.67,0,0,0-.54.66c-.35.78.2,1,1.64.75.43,2.82-4.48.1-6.29.77a12.24,12.24,0,0,0,4.48,2c1,.25,1.93-.33,2.63.72-.18.76-1,.46-.87,1.38.79.43,5.13-1.58,6.55-1.5,1.15.08,2.17.53,3.33.54.82,0,2.33-1,3.15-.53,1.06.54.15,1-.28,1.33-1.72,1.2-3.91.24-6,2.12,2,.2,4,.65,5.9-.6.51-.54-.21,3.71-.07,4.12,1,2.88,3.56,1.3,5.89.35,1.64-.68,2.09-.55,3.54-1.52,1.89-1.26,2.17-1.87,4.56-2.33.47-.09,1.43.53,1.91.23.75-.46.08-1.41.61-2a4.79,4.79,0,0,1,3.61-1.57c2.06-.15,1.27-.68,1.86.67-.2-.46-.07,1.48.09,1.25-.44.61-1.26.45-2.09,1-1,.71-1,1.22-2,1.78-1.69,1-7.65,2.38-2.8,3.08,2.5.36,3.84,2.25,6.69.16,1.82.36-1.67,2.84.76,1.89.81-.32.71-1.52,1.72-1.75,1.57-.35.38,2.49,2.66.15-1.39,3.37,4.18,1.26,3.8-1.9.22.14,1.92,1.24,1.85,1.43.61-1.63,2.39-.81,3.35-.86.5,0,1-.58,1.24-.59,1.81-.13,3.18,2.31,4.67,1.94s1.49-3.05.81-3.79l3.81-1.4c-1.36-.93-2.46-.94-1.45-2.53.19-.11-.44-1.06-.27-1.43.28-.6,1.31.2,1.71-.35.62-.88-.13-1.3,1-2.18.64-.52,1.13-.84,2-.44,1.19.56-.06,1.95.75,2.4a1.93,1.93,0,0,0,1-.75c.54-.16.45.45.2,1.28l-.47.23c-2,1.07-6.33.84-3.87,3.07,1.49,1.36,3.6.71,5.33.56,2.13-.18,3.14,0,1,1.67.29,1.26,3.11,1,3.82,1.16a3.83,3.83,0,0,1,2.41-2.27c-.18,1.25-1.5,2.48.63,2.28.18,0,.88-.63,1-.71a32.55,32.55,0,0,0,2.7-2.06c.86-.57,1.56-1.69,2.14-2.1,1.64-1.15,1.62-.83,3.32-.62-.06,0,1.69-1.31,2-1.5-1.07.73,1.5-1.34,1.76-1.25,0-.4-.34-.9-.43-.8.68-.7,1.84-.93,1.91-2a9.58,9.58,0,0,0,2.8.13c-.46-2.23,4.49-3.18,4.37-4.35.8.33,4.91,2.13,5.58.78a2,2,0,0,1,1,.46,13.35,13.35,0,0,1-3.3,1.37c-.93.17-1.46-1-2.16.21-.44.75.4,1.6.78,2a11.82,11.82,0,0,0,3.72,1.34c1.68.3,1.94-.2,3.58-.33a5.81,5.81,0,0,1,2.67.39c.43.16,1.71-1.23,1.37.4-.17.81-1.55,1-2.15,1.48.41,1.78,4.31,1.4,5.24,1.59.33-1.2.85-1.24,1.67-2,1.33-1.2-.45-.44,1.41-1l.18.14c-.34,1.51-1.85,2.74.48,2.88a9,9,0,0,0,2.5-1.13c1.18-.93,2.11-2,3.28-2.9l.23-.18a4.54,4.54,0,0,0,2.48-1.35,3.49,3.49,0,0,0-.85,0l.81-.74c2-1.92,2.2-1.47,4.57-1.18a1,1,0,0,0,.63-1.16,1.54,1.54,0,0,0,1.78-.4,4.32,4.32,0,0,0,.54-1.28q0-.8.84-.54c.15-.17,1.15-.27,1.53-.69a2,2,0,0,1,.12-2.2c.81,1.09,1.65-.68,1.7-1.34a13.07,13.07,0,0,0,3.83.18c-.35-1.71,2.71-3.27,3.39-3.72.87-.58,2.69-1.46,2.61-2.24,1.1.46,6.73,2.9,7.65,1.07a17.35,17.35,0,0,1,2.51,1.45c.39.37.65,1.16,1.1,1.54s1.09-.43,1.53-.23c1,.48-.43,1.86,1.54.92.44.64.76,1.39,1.38,1.74-.46.22-.92.44-1.36.67-2,1.07-6.32.84-3.87,3.07,1.5,1.36,3.6.71,5.34.56,2.12-.18,3.13,0,1,1.67.3,1.26,3.11,1,3.83,1.16a3.81,3.81,0,0,1,2.41-2.27c-.18,1.25-1.5,2.48.63,2.28.18,0,.87-.63,1-.71.89-.47,1.89-1.51,2.7-2.06a4.1,4.1,0,0,0,.68-.58c.6.27,1.24.52,2,.77,1.14-1.31-.79-.8,1.47-1.17a4.4,4.4,0,0,1,.13-1.83,7.22,7.22,0,0,0,.79,0l.44.06s0,0,.09-.09a9.9,9.9,0,0,0,3.1-1c.62-.26,2.66-.77,3.06-1.45a22.44,22.44,0,0,0-3.18.13,1.65,1.65,0,0,1,.64-.33c0-.4-.33-.9-.43-.8.52-.53,1.31-.79,1.7-1.36a5,5,0,0,0,1.34,0c-.1-.23-.17-.42-.22-.57a5.46,5.46,0,0,0,1.89,0c-.46-2.23,4.5-3.18,4.38-4.35.79.33,4.91,2.13,5.58.78.64,0,1.94,1.26,2.36,1.56a38.76,38.76,0,0,0-3.82,1.72c-2,1.07-6.33.84-3.87,3.07,1.49,1.36,3.6.71,5.33.56,2.13-.18,3.14,0,1,1.67.29,1.26,3.11,1,3.82,1.16a3.83,3.83,0,0,1,2.41-2.27c-.18,1.25-1.5,2.48.63,2.28.18,0,.88-.63,1-.71a32.55,32.55,0,0,0,2.7-2.06,9.61,9.61,0,0,0,1.63-1.62,9.39,9.39,0,0,0,3.11,1.92c-.07-.85.29-1.13,1.06-.85a3.22,3.22,0,0,1,.1-1.34c1.12.11,4.76-.62,5.46-1.79-.37-.13-3,.25-4.82.11l.88-.65c-1.07.73,1.5-1.34,1.76-1.25a1,1,0,0,0-.09-.44,6.59,6.59,0,0,0,2.32.54c-.67-1.56.18-.47,1-1-.36-.53,2.18-2.14,2.32-3.34,0-.12-.24-.11-.68,0,1.26-1.19,3.82-1.92,3.73-2.77.8.33,4.91,2.13,5.58.78a1.94,1.94,0,0,1,1,.46,13.12,13.12,0,0,1-3.29,1.37c-.93.17-1.46-1-2.16.21-.44.75.4,1.6.78,2a11.82,11.82,0,0,0,3.72,1.34c1.68.3,1.94-.2,3.58-.33a5.81,5.81,0,0,1,2.67.39c.43.16,1.71-1.23,1.37.4-.17.81-1.55,1-2.15,1.49.41,1.77,4.31,1.39,5.24,1.59.33-1.21.85-1.25,1.67-2,1.33-1.2-.45-.44,1.41-1.05l.18.14c-.34,1.51-1.85,2.74.48,2.88a9,9,0,0,0,2.5-1.13c1.18-.93,2.11-2,3.28-2.9l.23-.18a4.54,4.54,0,0,0,2.48-1.35,3.49,3.49,0,0,0-.85,0l.81-.74c2-1.92,2.2-1.47,4.57-1.18a1,1,0,0,0,.63-1.16,1.54,1.54,0,0,0,1.78-.4,4.32,4.32,0,0,0,.54-1.28q0-.8.84-.54c.15-.17,1.15-.27,1.53-.69a2,2,0,0,1,.12-2.2c.81,1.09,1.65-.68,1.7-1.34a13.07,13.07,0,0,0,3.83.18c-.35-1.71,2.71-3.27,3.39-3.72.87-.58,2.69-1.46,2.61-2.24,1.1.46,6.73,2.9,7.65,1.07a17.35,17.35,0,0,1,2.51,1.45c.39.37.65,1.16,1.1,1.54s1.09-.43,1.53-.23c1.05.48-.43,1.86,1.54.92.44.64.76,1.39,1.38,1.74-.46.22-.92.44-1.36.68-2,1.06-6.32.83-3.87,3.06,1.5,1.36,3.6.71,5.34.56,2.12-.18,3.13,0,1,1.67.3,1.26,3.11,1,3.83,1.16a3.81,3.81,0,0,1,2.41-2.27c-.18,1.25-1.5,2.48.63,2.28.18,0,.87-.63,1-.71.89-.47,1.89-1.51,2.7-2.06a4.1,4.1,0,0,0,.68-.58c.6.27,1.24.52,2,.77,1.14-1.31-.79-.8,1.47-1.17a4.24,4.24,0,0,1,.13-1.83,7.22,7.22,0,0,0,.79,0l.44.06.09-.09a9.82,9.82,0,0,0,3.1-1c.62-.26,2.66-.77,3.06-1.45a22.44,22.44,0,0,0-3.18.13c.31-.21.57-.35.64-.32,0-.41-.33-.91-.43-.81.52-.53,1.31-.79,1.7-1.36a5,5,0,0,0,1.34,0c-.1-.23-.17-.42-.22-.57a5.46,5.46,0,0,0,1.89,0c-.46-2.23,4.5-3.17,4.38-4.35a19.84,19.84,0,0,0,3.21,1.11,2.24,2.24,0,0,0-.11,1.84,22.88,22.88,0,0,0,3.55-1.66c.56.42,1.12.95,1.34,1.08a1.22,1.22,0,0,0,.32.14c-.55.54-1.22.68-1.26,1.76-.06,1.26,1,1.11,1.36,1.86.42.92-.22,1.55,1,2.32,1.75,1.09,5.14-.47,7-1,1-.28,2-.54,3-.79a8.52,8.52,0,0,0,2.46,1.38c-.07-.85.29-1.13,1.06-.85a3.22,3.22,0,0,1,.1-1.34,10.85,10.85,0,0,0,4.4-1c11.21-2.24,22.5-3.47,33.75-4.72,10.37-1.16,20.67-2.09,31-2.39a2.77,2.77,0,0,0,.17.6c-.2-.52,1.86,1.29,1.43,1.29.89,0,1.76-1.06,2.71-2l2,0c3.83,0,10.65.55,15.24-1,5,.25,11.33-2,15.89-3.23l1.17-.31c.92.64,1.76,1.41,2.64,1.19s1.23-1.24,1.24-2.19c10.33-2.54,20.72-4.33,31.16-6,11.35-1.8,22.74-3.64,34.1-4.43a11,11,0,0,0,3.67-.16h.44a3.11,3.11,0,0,1,.11,1.18c.76-.49,1.13-.3,1.1.56a11.31,11.31,0,0,0,2-1.58c4.22.19,9.55.26,11-1.72a7,7,0,0,0,.82-2.53c.31-.95,1.3-1.07.82-2.35-.25-.67-1-.73-1.55-.85a5.25,5.25,0,0,0,.56-.38c.2-.18.7-.81,1.22-1.36a18.76,18.76,0,0,0,3.67.71,2.06,2.06,0,0,0-.24-1.87,26.47,26.47,0,0,0,3.2-2c-.07,1.2,4.9.8,4.53,3.14a5.84,5.84,0,0,0,1.89-.53c0,.17-.11.37-.2.63a5.66,5.66,0,0,0,1.33-.4c.41.46,1.21.51,1.74.89-.09-.07-.44.53-.39.92.07-.05.33,0,.65.15a27.35,27.35,0,0,0-3.17.72c.43.58,2.48.54,3.11.63a9.17,9.17,0,0,0,3.12.17c.07,0,.11.06.1.06l.43-.18a7.68,7.68,0,0,0,.79-.24,4.29,4.29,0,0,1,.2,1.79c2.26-.25.32-.23,1.5.76.7-.44,1.33-.86,1.91-1.29a3.5,3.5,0,0,0,.7.4,27.15,27.15,0,0,0,2.77,1.32,6,6,0,0,0,1.06.43c2.13-.38.76-1.25.53-2.44a2.83,2.83,0,0,1,2.49,1.61c.71-.34,3.52-.85,3.76-2.18-2.16-1.11-1.16-1.55,1-1.94,1.73-.32,3.85-.24,5.28-2,2.35-2.88-1.92-1.49-4-2-.44-.12-.91-.21-1.38-.31a6.91,6.91,0,0,0,1.3-2.11c2,.42.47-.56,1.49-1.32.43-.31,1.11.31,1.54-.19s.66-1.35,1-1.82a23.2,23.2,0,0,1,2.44-2.12c1,1.57,6.49-2.37,7.56-3.13,0,.8,1.8,1.19,2.68,1.53.7.27,3.81,1,3.53,2.78a14.65,14.65,0,0,0,3.8-1.2c.07.65,1,2.18,1.75.88a1.93,1.93,0,0,1,.21,2.15c.39.32,1.39.14,1.54.27.56-.32.85-.22.86.31a3.39,3.39,0,0,0,.59,1.13,1.46,1.46,0,0,0,1.79-.08c-.08.57.15.9.67,1,2.35-.92,2.55-1.43,4.6-.06l.83.53a3.45,3.45,0,0,0-.84.23c.35.48,1.4.66,2.51.68l.24.12c1.21.59,2.17,1.39,3.39,2a7.64,7.64,0,0,0,2.53.45c2.31-.77.75-1.58.36-3l.17-.18c1.88.1.08-.17,1.44.66.85.53,1.37.43,1.75,1.54.91-.45,4.81-1.13,5.15-3-.62-.32-2-.13-2.2-.9-.41-1.52.92-.49,1.34-.76a6.81,6.81,0,0,1,2.64-1.1c1.64-.32,1.92.11,3.57-.64a15.76,15.76,0,0,0,3.65-2.34c.36-.47,1.17-1.54.69-2.17-.74-1-1.23.3-2.15.38a11,11,0,0,1-3.34-.48,2.8,2.8,0,0,1,1-.73c.73,1.16,4.74-1.73,5.52-2.27,0,.87,2.53.9,3.82,1.74-.43,0-.69.1-.67.21.19,1.16,2.78,2.08,2.44,2.7.89.28,1.69-1,1.09.69a8.38,8.38,0,0,0,2.29-1.16,1,1,0,0,0-.07.47c.25-.17,2.89,1.21,1.8.77.11,0,.5.22.9.41-1.86.63-4.44.95-4.8,1.18.74,1,4.39.73,5.5.32a2.85,2.85,0,0,1,.15,1.3c.76-.49,1.13-.3,1.1.56a13.06,13.06,0,0,0,3-2.75,7.33,7.33,0,0,0,1.68,1.18,27.15,27.15,0,0,0,2.77,1.32,6,6,0,0,0,1.06.43c2.12-.38.76-1.25.53-2.44a2.85,2.85,0,0,1,2.49,1.61c.7-.34,3.51-.85,3.75-2.18-2.15-1.11-1.15-1.55,1-1.94,1.74-.32,3.86-.24,5.29-2,2.35-2.88-1.92-1.49-4-2a30.09,30.09,0,0,0-3.87-.69c.41-.41,1.65-2,2.29-2.19.72,1.16,4.74-1.73,5.51-2.27-.07,1.2,4.9.8,4.53,3.14a5.84,5.84,0,0,0,1.89-.53c-.05.17-.11.37-.2.63a5.66,5.66,0,0,0,1.33-.4c.41.46,1.21.51,1.74.89-.09-.07-.44.53-.39.92.07-.05.33,0,.65.15a24.53,24.53,0,0,0-3.17.73c.43.57,2.48.53,3.11.62a9.17,9.17,0,0,0,3.12.17c.07,0,.11.06.1.06l.43-.18a7.68,7.68,0,0,0,.79-.24,4.29,4.29,0,0,1,.2,1.79c2.26-.25.32-.23,1.5.76.7-.44,1.33-.86,1.91-1.29a3.5,3.5,0,0,0,.7.4,27.15,27.15,0,0,0,2.77,1.32,6,6,0,0,0,1.06.43c2.13-.38.76-1.25.53-2.44a2.83,2.83,0,0,1,2.49,1.61c.71-.34,3.52-.85,3.76-2.18-2.16-1.11-1.16-1.55,1-1.94,1.73-.32,3.85-.24,5.28-2,2.35-2.88-1.92-1.49-4-2-.44-.12-.91-.21-1.38-.3a7.09,7.09,0,0,0,1.3-2.12c1.67.35.89-.27,1.17-.92a5.84,5.84,0,0,0,3.76-.82c.51-.54-.22,3.71-.08,4.12,1,2.88,3.56,1.3,5.89.35,1.64-.68,2.1-.55,3.54-1.52,1.89-1.26,2.17-1.87,4.56-2.33.47-.09,1.43.53,1.91.23.75-.46.08-1.41.61-2a4.69,4.69,0,0,1,3.24-1.53c.33.37.77.5,1.18-.13l.09,0a2,2,0,0,1,.16,2.11,1.19,1.19,0,0,0,.61.19c-.46.31-1.13.29-1.81.76-1,.71-1,1.22-2,1.77-1.68,1-7.65,2.39-2.8,3.09,2.51.36,3.84,2.25,6.69.16,1.82.36-1.67,2.84.77,1.88.8-.31.7-1.51,1.71-1.74,1.57-.35.38,2.49,2.66.15-1.38,3.37,4.18,1.25,3.81-1.9.21.13,1.91,1.24,1.84,1.43.47-1.26,1.64-1.06,2.59-.92.67.42,1.32.86,2.07,1.24a7.64,7.64,0,0,0,2.53.45,3.09,3.09,0,0,0,1-.46,1.59,1.59,0,0,0,1.12.17,1.75,1.75,0,0,0,1.17-1.51,1.92,1.92,0,0,1,.48.82c.91-.45,4.81-1.13,5.15-3-.62-.32-2-.13-2.2-.9a1.35,1.35,0,0,1-.07-.55l.09,0-.08-.05c.15-.51,1.07.1,1.4-.12l0,0c1.4.65,3.11.18,4.56.05,2.13-.18,3.14,0,1,1.67.29,1.26,3.11,1,3.82,1.16a3.86,3.86,0,0,1,2.41-2.27c-.18,1.25-.76,2.19,1.37,2C1920.18,425,1920,340.19,1920,341Zm-414.71,36.46c1.52-1.34,3.94-2.1,5.73-3.09-2.16,4.32,2.5.14,3.27-1.86,1.71-1,3.4-2,5.13-3-1.53,1.68-1.56,4.22-3.36,5.56C1513.59,376.93,1508.26,377.12,1505.29,377.46Zm12.94-2.68c1.12-1.47,7.93-10.15,9.09-5.42a10.89,10.89,0,0,1,.39,1.92C1526.8,370.85,1519.34,374.45,1518.23,374.78Zm-270,72.65c1.25-.38,3-.46,3.94-.83.61-.25,1-.57,2-1.08.32-.18,1.08-.49,1.87-.88l.78.42c.43.24,1,.26,1.28.46C1254.72,446.36,1248.42,450.57,1248.18,447.43Zm9.31,25.12c-.56.05-1.08.06-1.63.12l.79-.36a1.89,1.89,0,0,1-1-.12c.54-.3-.18-1.36-1.1-1.71.13-.34.12-.83.3-1,1.8-.67,5.17-.8,6.21-1.22a29.07,29.07,0,0,0,6-3.71,2.25,2.25,0,0,0-.8-.24,12.3,12.3,0,0,1,1.39-1.84c1.87-1.47,4.76-1.68,7.27-1.15-3.4,1-5.89,4.52-8.94,6.12-1.55.81-6.2,1.39-5.5,3.11s4.8-.09,6.36.17c1.07.18,2.25.81.65,1.89-1.42.95-2.88-.69-4.34.46C1263.11,471.36,1259.18,472.41,1257.49,472.55Zm30.77,15.21c-2.85,1.1-5.86.63-8.72,1.74a56.36,56.36,0,0,0-8.16,3.78c-.74.45-1.27,1.2-2,1.62s-1.32.07-2,.34c-1.49-.09-3-.1-4.5-.2a10.73,10.73,0,0,0,1.27-.88,5,5,0,0,0,.5-1.29c0-.58.32-.7.95-.38.28-.27,1-.91,1.7-1.51a4.59,4.59,0,0,1,.48.17,1.29,1.29,0,0,1-.06-.5,5.57,5.57,0,0,1,1.56-1c3.3-.52,2.71,3.59,5.86.18.35-.38,1-1.56,1.38-1.82s2.22-.57,2-1.5c.53.16,1.52.91,1.23-.34,1.6.77-.8,1.28-.2,2.29.55-.57,1.45-.28,2.46-.85.55-.3.24-.93.47-1.1.73-.51,1.75-.44,2.39-.87.89-.6.57-1.33,1.73-1.69a16.48,16.48,0,0,1,3.29.53C1291.44,486.06,1289.89,487.13,1288.26,487.76Zm43.06-51.66c-2.54.08-4.23,1.15-6.58,1.7-.83.2-5-.36-5.15-.12-.35.52.52,1.14,1.6,1.62-.7.29-1.39.56-2,.78l-1.11-.77c-1.36-.95-2.75-2.53-3.15-.12a2.12,2.12,0,0,0,.16,1.11,10.27,10.27,0,0,1-5.77-4c2.06-1.49,3.51.23,4.9-2.26a10,10,0,0,1,1,1.48,3,3,0,0,1,3-1,1,1,0,0,1,.43-.94,4.15,4.15,0,0,0,.8,1.41,4.73,4.73,0,0,0,5.24.69c2.19-.86,3.76-.41,6.36-1-2,.67,2.71,1.12,1.66.56C1335,436.42,1333.27,436,1331.32,436.1Zm36.29-.1c-3.46-.79-4.37,1.15-7.69,1.36-2.6.18-4.61-1.23-6.46-2.53l1-.45a.67.67,0,0,1,0-1.19c0,1,3.78,2.3,4.61,2.12-.23.22,2.95,2.08,3.89-.54,1.23.12,2.33-.32,3.61-.15.4.05,3,.91,3,.85C1370.41,437,1369.2,436.36,1367.61,436Zm11-6.17c1.25-.38,3-.46,3.94-.83.61-.25,1-.57,2-1.08.32-.18,1.08-.49,1.87-.88l.78.42c.43.24,1,.26,1.28.46C1385.11,428.76,1378.81,433,1378.57,429.83Zm9.31,25.12c-.56.05-1.08.06-1.63.12l.79-.36a1.89,1.89,0,0,1-1-.12c.54-.3-.18-1.36-1.1-1.71.13-.34.12-.83.3-1,1.8-.67,5.17-.8,6.21-1.22a29.07,29.07,0,0,0,6-3.71,2.25,2.25,0,0,0-.8-.24,11.65,11.65,0,0,1,1.39-1.84c1.87-1.47,4.76-1.68,7.27-1.15-3.4,1-5.89,4.52-8.94,6.12-1.55.81-6.2,1.39-5.5,3.11s4.8-.09,6.36.17c1.07.18,2.25.81.65,1.89-1.42,1-2.88-.69-4.34.46C1393.5,453.76,1389.57,454.81,1387.88,455Zm30.77,15.21c-2.85,1.1-5.86.63-8.72,1.74a56.36,56.36,0,0,0-8.16,3.78c-.74.45-1.27,1.2-2,1.62s-1.32.07-2,.34c-1.49-.09-3-.1-4.5-.2a10.73,10.73,0,0,0,1.27-.88,5,5,0,0,0,.5-1.29c0-.58.32-.7,1-.38.28-.27,1-.91,1.7-1.51a4.59,4.59,0,0,1,.48.17,1.29,1.29,0,0,1-.06-.5,5.57,5.57,0,0,1,1.56-1c3.3-.52,2.71,3.59,5.86.18.35-.38,1-1.56,1.38-1.82s2.22-.57,2-1.5c.53.16,1.52.91,1.23-.34,1.6.77-.8,1.28-.2,2.29.55-.57,1.45-.28,2.46-.85.55-.3.24-.93.47-1.1.73-.51,1.75-.44,2.39-.87.89-.6.57-1.33,1.73-1.69a16.48,16.48,0,0,1,3.29.53C1421.83,468.46,1420.28,469.53,1418.65,470.16Zm43.06-51.66c-2.54.09-4.23,1.15-6.58,1.7-.83.2-5-.36-5.15-.12-.35.52.52,1.14,1.6,1.62-.7.29-1.39.56-2,.78l-1.11-.77c-1.35-.95-2.75-2.53-3.15-.12a2.12,2.12,0,0,0,.16,1.11,10.27,10.27,0,0,1-5.77-4c2.06-1.49,3.51.23,4.9-2.26a10,10,0,0,1,1,1.48,3,3,0,0,1,3-1,1,1,0,0,1,.43-.94,4.15,4.15,0,0,0,.8,1.41,4.73,4.73,0,0,0,5.24.69c2.19-.86,3.76-.4,6.36-1-2,.68,2.71,1.12,1.66.56C1465.4,418.82,1463.66,418.43,1461.71,418.5ZM1520,404.68a16.4,16.4,0,0,1,3.44,2.1,10.15,10.15,0,0,0-3,.73,2.31,2.31,0,0,0-1.39,1.76c-.87.09-3.27-1.45-4.3-1.65C1516,406.47,1518.29,403.88,1520,404.68Zm-41.18,21.67a7.55,7.55,0,0,1,3-.24c1.1.1,1.23.66,2.27.29.71-.25-.07-1,.29-1.37.14-.15,1.7-.57,1.78-.71.54-1-.73-2.59,1.33-2.86a1.63,1.63,0,0,0-.09-.56c2-.6,8.43-2.15,8.91-2.23-.65.51-5,3.79-3.88,4.61.85.64,4-3.11,4.87-3.78-.84,1.21-.72,2.93-1.43,3.94s-.89.76-2,1.56c-.87.63-4.4,2.08-5.87,3a5.84,5.84,0,0,0,1.63-2.18c-2.55.5-4.77,2.22-7.15,3.06-1.5.07-3,.12-4.5.17C1475.49,428.27,1476.33,427.23,1478.86,426.35Zm15.52,9.64c-2.72,1.9-5.26,4.59-6.3,1.22a20.85,20.85,0,0,0,1.82-1c1.14.41,2.38,1,3.82-.16Zm-.24,18.72a24.58,24.58,0,0,1-5.41,1.42c.12-.55,1.27-1.49,2.6-2.69-2.32-.44-4.84.21-7-.74a4.82,4.82,0,0,1-.65-.34c.7-.43,1.4-.85,2.11-1.25.48.37,2,1.55,1.89,1.53.79.11,2.24-.67,3.22-.63-.18-.35,0-.44.07-.64a19.62,19.62,0,0,0,2.5-1.81,10.47,10.47,0,0,0,2.07.18c.14,0,.33,0,.55-.05C1495.59,451.3,1494.42,453.66,1494.14,454.71Zm-4.82-11.56q-3,.5-6.11.79a12.74,12.74,0,0,0-3.91-.66c-1.1-.07-3.87.27-2.85-1.6.5,1,3.08.22,3.45-.24,0,1.24.71,1.17,1.58.81a.39.39,0,0,0,.1.28c.79.74,3.24-2.79,4.47-4.52a3.8,3.8,0,0,0,.76-.21l.07,0c.57,1.36,1.44,3.38,2.49,3.41s1.44-1.78,3.08-1.82c.53,0-.58,1.9,1.61,1,1.61-.64,3.5-4.5,5.64-3.75-.73,1.42-2.07,4.43.3,2.35.65-.57,1.38-4.37,2.74-4,.46.14,1,3.08,2.25,2.68.48-.17.86-4.06,1-4.57a8.68,8.68,0,0,0,3.2,2.6c-.42-.2-.36-2.5-1.43-3.07,2.38-1.05,4.32,2.4,5.27,3.7A102.27,102.27,0,0,1,1489.32,443.15ZM1512,431.6l1.15-.14a45.09,45.09,0,0,1,5.45-.3c1,0,2.15,0,3.23.1a.66.66,0,0,0,.31,0,23.62,23.62,0,0,1-1.67,2.24c-1.63,1.31-4.57,1.94-6.5,2.64C1515.34,434.55,1512.9,432.48,1512,431.6Zm14.71,13.2a51.83,51.83,0,0,0-7.71,2.35c1-2.28,2.41-6.44,5.28-6.4,2.35,0,3.81,2.44,5.65,3.36C1528.83,444.32,1527.76,444.55,1526.69,444.8Zm5-69.45c4-.29,8.06-.56,12-1.21,1-.17,3.87-.95,4.69-.61l.37.15a1,1,0,0,0-.37.79.94.94,0,0,0-.23.6c-.09,1.81-.57,1.41.69.77a4.32,4.32,0,0,0,1.18.92,26.35,26.35,0,0,1,2,1.86c-2,.57-4.13,1.44-5.64,1.48-3.23.06-6.54-.44-9.8-.43-.94,0-4.27.55-4.73.15S1531.7,376,1531.65,375.35Zm12.28,39.84-2.61.78a.43.43,0,0,1-.1-.09c-.69-.39-1.06-.1-1.3.49-3.3.91-7.42,1.83-8.51,1-.91-.69,3.26-3.76,4-4.14a1,1,0,0,1,1.14.31,1.17,1.17,0,0,0,1.34-.78c1-.27,2.17-.35,2.92-.49a18.93,18.93,0,0,1,2.82-.3,9.94,9.94,0,0,1,1.25,1.21c.06.08.31.83.53,1.51C1544.89,414.88,1544.39,415.05,1543.93,415.19ZM1535.51,388c-2.15-.52-2.67-.28-2.93-2.28-.12-.86-.31-2,.58-2.59.34-.23,5.22.08,6,.13-.78.78-2.58,3-.66,3.1,1.46.1.7-3.21,3.37-2.4a1.4,1.4,0,0,1,.75.53,6.77,6.77,0,0,0-2.35-.28c0,1,.8.73,1.07,1.53-.92.91-2.18.29-3.13,1.24,1.15,1.19,3.59.56,5.54,0a1.29,1.29,0,0,0,.25.2c1,.52,1.21,0,1.13-.61l.42-.11.49-.1a.75.75,0,0,0,.26,0,4.47,4.47,0,0,1,1.42-.08c.51.09.2,1.14.88,1.17s1.62-1.06,1.6-1.08a12.41,12.41,0,0,1,1.77,1.92c.32.36.6.72.9,1.06A51.43,51.43,0,0,1,1535.51,388Zm87.1-14.34c-.26,2-.89,2.06-2.83,3.07a58.83,58.83,0,0,1-17.36,6,10.14,10.14,0,0,1,.65-1.13,24.24,24.24,0,0,1,2-2.68s.89.73,1.4.61c1.54-.36.4-1.29,2.31-1.63a.89.89,0,0,0,.66-.07l.25,0,.44,0c-.09.67.11,1.24,1.14.41a1.89,1.89,0,0,0,.32-.37c1.94.06,4.33,0,5.43-1.47-1-.69-2.21.27-3.16-.39.23-.86,1-.8,1-1.8.83.46.83,2.1,1.85,1.75,1.9-.65,0-2.34-.78-2.91,1-.31,5.93-1.79,6.27-1.53C1622.75,371.86,1622.7,373,1622.61,373.66Zm-.24-5.92c-1,.68-3.49.87-4.69,1.2-3,.82-6,2.09-9,2.83a31.31,31.31,0,0,1-5.63,0c.72-1,1.93-2.29,2.7-3.39,2.17,0,1,.34.94-1.14a2.34,2.34,0,0,1-.3-.85,1.14,1.14,0,0,0-.31-.43l1.09-.37c1.19-.4,3.34-.28,4.59-.42,3.7-.4,7.6-1.35,11.31-2.08C1623,364.83,1623.65,366.86,1622.37,367.74Zm-.46-16.75a20.08,20.08,0,0,1-6.06,1.86,29.67,29.67,0,0,1-5.73.45,10,10,0,0,0,.92-1.12c-.78.33-1.53.71-2.28,1.1l-2.76-.07c1.28-.86,2.33-1.75,1.71-2.49-.41-.49-3.14,1.31-4.91,2.76-.66.1-1.38.21-2.09.35a20.68,20.68,0,0,1,.42-2.52c1.72-.12,3.35-.31,4.42-.43,4-.45,7.75-1.45,11.74-2.17-.94.48-7.59,4.42-4.93,4.26.75,0,2.76-2,3.64-2.34a21.7,21.7,0,0,1,3.17-1c1.45-.38,3.1-1.42,4.5-1.61C1623.57,350.19,1623.44,350,1621.91,351ZM1660,396.68c.48-.05,6.88-.24,8.93-.19a1.83,1.83,0,0,0,0,.49c2.06-.29.85,1.66,1.44,2.48.08.12,1.65.12,1.8.23.36.28-.38,1.23.34,1.29,1,.08,1.16-.51,2.24-.9a7.47,7.47,0,0,1,3-.56c2.65.2,3.48,1.07.62,2.61l-3.82.89c-2.53-.12-4.89-1.34-7.56-1.15.27.87,1.25,1.34,1.92,1.91-1.34-.53-5.24-1-6.17-1.46-1.13-.5-1.29-.18-2-1s-.7-2.55-1.58-3.53c.76.37,4.14,3.36,5,2.44S1660.82,397.08,1660,396.68Zm9,16.13c-.87,3.75-3.53,1.74-6.33.56,1-.2,1.67.36,2.78.14a8.29,8.29,0,0,0,2.07-1.14C1668,412.54,1668.48,412.69,1669,412.81Zm-27.8-22.15c-1,.47-3.33,2.65-4.2,2.8a1.73,1.73,0,0,0-1.46-1.38,9.25,9.25,0,0,0-3,.09C1635.81,388.51,1637.4,388.14,1641.18,390.66Zm.83-33.39c1.71,1.35,3,1.61,1.57-.69,1.81.5,4.3.62,5.83,1.53-3,.46-8.27,1.71-10.81.55-1.84-.85-2-3.37-3.56-4.62A17.19,17.19,0,0,1,1642,357.27Zm-10.74-2.43c2.43.73,3.49,2.41,5.16,4.09-.87,0-9.55-.42-9.57-.95C1627.37,354.7,1627.51,353.72,1631.27,354.84Zm-3.26,6.38c-.59,1,3.57,3,4.31,3.67-1.57.52-4.8,1.75-5.64.8C1626.86,364.52,1626.33,361.32,1628,361.22Zm-.37,69.8c1.63-1.28,3.31-4.37,5.49-4.87,2.92-.67,4.34,2.81,5.51,4.94A52.47,52.47,0,0,0,1627.64,431Zm9-13.14a19.43,19.43,0,0,1-2.3-2.32,21.1,21.1,0,0,0,2.2-.13c.64,0,3.26-.23,3.72-.91a30.55,30.55,0,0,1,4.72-.77c-.84,1.09-3.2,3.86-1.77,5C1641.28,418.58,1638.28,418.69,1636.62,417.88Zm36.72,9.31c-2.12,1.53-4.66,1.56-6.95,2.62,1.46.89,2.7,1.54,2.71,2.07a22.58,22.58,0,0,1-5.45.05c-.32-1-1.69-3.06-2.2-4.56a5.73,5.73,0,0,0,.63-.11,10.91,10.91,0,0,0,1.88-.67,16.43,16.43,0,0,0,2.72,1.16c0,.18.24.18.1.52,1-.31,2.44.08,3.22-.24-.1,0,1.23-1.38,1.75-1.95.72.2,1.43.43,2.14.66C1673.73,426.88,1673.56,427,1673.34,427.19Zm4.6-10.72a14.6,14.6,0,0,0-4.08,1.85c-2,.33-3.93.6-5.89.82a92.74,92.74,0,0,1-23.8-.39c.88-1.55,2.68-5.5,5.08-5.1-1,.84-.93,3.16-1.3,3.44a12.13,12.13,0,0,0,3.08-3.44c.11.48.65,4.25,1.13,4.28,1.22.08,1.68-3,2.14-3.27,1.25-.72,2.34,2.9,2.88,3.21,2.35,1.33,1-1.19.2-2.43,2.15-1.35,4.27,2.18,5.94,2.25,2.1.08.84-1.35,1.38-1.48,1.89-.47,1.87,1.31,3.42.8.68-.22,1.58-2.58,2.08-4h0a4.92,4.92,0,0,0,.67,0c1.21,1.33,3.95,4.36,4.72,3.39a.54.54,0,0,0,.1-.41c.88.12,1.55,0,1.53-1.23.38.36,3,.44,3.44-.69C1681.8,415.7,1679,416.1,1677.94,416.47Zm82.47,12.23c-.69-.09-1.37.38-2,.19s-1.29-.82-2.05-1.07a46,46,0,0,0-8.27-1.57c-2.88-.33-5.86.95-8.74.63-1.65-.19-3.23-.84-1.74-2.82a18.81,18.81,0,0,1,3.24-1.41c1.17,0,.89.85,1.8,1.21.65.25,1.67-.09,2.41.22.24.1,0,.81.51,1,1,.29,1.91-.23,2.48.18.56-1.17-1.85-1-.29-2.22-.24,1.32.72.31,1.24,0-.2,1,1.61.75,2,1s1.09,1.16,1.45,1.44c3.28,2.55,2.53-1.39,5.83-1.75a4.1,4.1,0,0,1,1.59.56,1.62,1.62,0,0,1,0,.52,3,3,0,0,1,.46-.3c.75.4,1.47.84,1.76,1,.61-.49.93-.45,1,.12a4.23,4.23,0,0,0,.56,1.15,7.62,7.62,0,0,0,1.3.53C1763.4,427.78,1761.89,428.21,1760.41,428.7Zm1.69-35.07c-2,.21-4.07.16-6.09.37-4,.4-8.37,1.46-12.33,1.43,1-2,2.35-1.48,3.89-2.59,0,1.44,3.85,1.08,2.82-.12.6.16,1.68.31,2.13.39a15.53,15.53,0,0,1,2,.38c1.52-.48,1.61-1.33.62-1.76,1.87-1.13,1.61.07,3.35-.42,1-.29,1-1.09,2-1.56a19.7,19.7,0,0,0,2.16,0c.59.62,1.5,1,1.91,1.64C1763.79,392.63,1761.93,392.24,1762.1,393.63Zm5.62-16.91c.31-.28.83-.45,1.25-.8l.75-.62c.81.17,1.57.28,1.9.36a17.55,17.55,0,0,0,2,.54c.94.12,2.69-.26,4-.23C1777.45,379.17,1771,376.67,1767.72,376.72Zm28.7,1.73c-3.3.67-4.29-1-7.7.71-1.56.78-2.74,1.79-2.08,0,0,.06,2.56-1.5,3-1.66,1.26-.51,2.37-.37,3.59-.82,1,2.35,4.13-.35,3.9-.51.82,0,4.55-2.33,4.49-3.35.49.22.56.61.1,1.17l1.06.17C1801,376,1799,377.92,1796.42,378.45Z"/><path class="cls-4" d="M856.57,343.46l-.21.18c2.8.59,5.6,1.24,8.36,2a1.77,1.77,0,0,1,.61-1.34,4.64,4.64,0,0,0-2.11-.83,36.57,36.57,0,0,0,4.88-2.28c-.63-.66-1.77,0-2.44-.08a20.47,20.47,0,0,0-2.8-.43c.38-.42,2.59-.62,1.2-1.64,1-.77,1.67-.14.82-1.25-.39-.51-1.28-.27-1.9-.72-1.26-.93-.68-.82-1.22-2-.17-.39-1.35-3.32-2-3.07s0,2.53-.21,3.06a14.41,14.41,0,0,0-1.39-2.29,3.8,3.8,0,0,0,.41,2.3c-2.37-.72-1.33,2.51-1.06,4.05a3.14,3.14,0,0,0-1.92.18c2.41,2.56-1.57,1.19-2.12,1.88C852.24,342.75,855.66,342.76,856.57,343.46Z"/><path class="cls-4" d="M877.88,343.21a24.3,24.3,0,0,1,3.24,1.29c.07.08,2.09,1.64,1.73,1.66,1.47.4,3.33-.64,4.92.21,4.09,2.16-2.36,2.62-4.37,1.38,1.41,1.42.29,1.11.07,2.13a1.16,1.16,0,0,0,.3,1.09,61.18,61.18,0,0,1,20.1,5.89c3.48,1.68,6.86,3.53,10.24,5.37l.41.11a1.59,1.59,0,0,1,.18-.22c.68-.72,3.14-1.3,2.65.48.55-.1,3.45-2.08,2-2.42,1.86-.1,4,1,5.2-.26-.2.19,0-1.63,0-1.68.21-.3,1.33-.65,1.71-1,1-1,1.32-1.32,1.23-2.83,0-.58.72-2.08-1.06-2.08-1.12,0-3,2.68-3.8,3.26-1.81,1.25-3,.84-5,1.12-1.31.18-1.73,1.08-2.92,1.37-1.35.32-2.62-.5-3.93-.86.55-.81,1.72-.21,2.17-1.1.61,2.23,3.32-.2,2.14-.65.45-.65,3.45.22,3.53.27.71.46.33-1,.1-1.24,1.19-1.36,3.24,1,4.17.08s-.93-1.48-1.21-2.62c1.3,0,.93.09,1.65-.67a2.55,2.55,0,0,0,.84-1.9,1.6,1.6,0,0,0,1-.45c.24-.65.69-3.65.29-4.1-1.37-1.56-5.87,4.08-7.07,4.81-2.78,1.7-5.4,2-8.42.44-1.8-1-2.55-1.28-4.42-.63-.46.16-1.9,1.27-2.46,1.28-.38,0-2.24.5-1.8-.91.29-.93,1.21.14,1.54-.1,1.42-1.06,1.32-1.85,3.87-1.54a9.62,9.62,0,0,0,3.21-.27c1.28,3.67,4.9.59,4.7.4a5.67,5.67,0,0,0,4.18-1.56s1.21-1.82,1.24-1.57c-.23-1.64-1.4-.3-2.19-.1-4.05,1-7.21-2.11-11.36-1.6-.85.11-3.43,1.46-3.91,0-.37-1.1,1.88-1.59,1.87-.33.59.1,2.86-1.27,1.66-1.65a30.49,30.49,0,0,0,3.74.52c.26,0,1.2-.35,1.45-.35-.39,0,2,.75,1.4.6,2.18.59,3.43,1.47,5.53-.51.34.83,1.46.25,1.93-.12a1.47,1.47,0,0,0-.19-1.37l.86-.56c.43-1.16,1.06-4.38-.87-3.85-.52.15-1.83,2-2.48,2.35a11.55,11.55,0,0,1-3.26,1.31c-2.61.61-6.05-.06-8.72-.58,1.35-1.84,1.89-1.08,4.15-.74,2.05.31,1.31.52,3-.63.51.07.66-.21.44-.87.78-.52,1.32-.39,1.61.38.59-.23.85-.92,1.36-1.15a6,6,0,0,0,1.76-.92,12.44,12.44,0,0,0,1.36-2.89c.39-1.77-.38-1.65-1.12-1.4-.42.14-7.69,5.65-7.28,2.51.75.59,4.71-3,3.76-3.46,3.12-1.23-.28-1.65,1.09-2.7-1.18-.28-.46-1.15.17-1.42-2.16-1.15-1.33-2.56-3-.43-1.69-.76,0-1.66.52-2.13-.91-1.45-.86,0-.74-1.33,0-.19.64-1.31.76-1.63s1.48-3.26.35-3.3c-.39.19-.51.56-.35,1.09-1-.6-1.45-.24-1.43.87-3-1.41-3,1.48-5,1.59.2-1.41-1.45.3-1.92.41-1,.23-3,.18-3.71-.57a4.82,4.82,0,0,0,3.39-.94c.42-.44.73-2.26,1.15-2.18-.22-2.1-1.42-1.54.3-2.73a6,6,0,0,0-2.89-1.14c.82-.23,6.89-2.7,6.78-3-.38-1-2.62-.32-3.24-.29-1.48.09-2.74-.66-4-.54.52-.58,3.57-.83,1.64-2.25,1.11-.88,2.71-.51,1-1.83-.88-.67-2.07,0-3.09-1-.64-.58-2.38-7.45-3.71-6.89-.71.3-.07,3.51-.28,4.2a21.48,21.48,0,0,0-1.91-3.15,5.39,5.39,0,0,0,.56,3.16c-.64-.19-1.29.15-1.94-.13a17.7,17.7,0,0,0,.49,5.68,4.33,4.33,0,0,0-2.64.25c3.26,3.46-2.13,1.71-3,2.57-1.93,1.81,3.54,2.58,4.34,3.2-.31.45-.63.89-1,1.31.35.2.7.42,1,.65a1.82,1.82,0,0,0-1.45,2.16c-1.27-.66-1-.52-1.9-.5-.44-1.83-2.85-2-4.14-2.81.09,1.76,2.73,2.61.56,4,1.41,1.3,2.46,3.27,4.14,4.21,1.5.83,2.68.23,3,2.34-1.06.1-.78,1.28,0,2.29-3.12-.92-4-2.12-6.3-4.42-.21,1.59-2,1.06-3.06.91,1.17,1.08.84,2.09,1.76,3.15.67.76,1-.08,1.6.84a5.13,5.13,0,0,1,0,2.78c2.2.33,3.2.44,4.42,2.64-2.49-.21-4.47.93-7,0-1.1-.44-3.16-2.45-3.78-.48a2.12,2.12,0,0,1,1.4,2.65c2,.1,2,3,4.12.6,1.31,2.67,2.77.2,4.93,1.65-.57,3.35-11.7-.43-13.73-1.12-1,2,3.91,3.48,4.93,4.13.83.53,1.82,1.42,2.33,1.63.33-.18.66-.35,1-.51l.85.73a25.09,25.09,0,0,1,3.25.4c-.25,5.45-12.4-4.25-14-1.31C878.26,341.68,878.63,342.36,877.88,343.21Z"/><path class="cls-4" d="M880.12,350.7c-1.26-.8-2.47-2-3.67-2.12-.79-.67-1.26-.57-1.42.31,1.41.53,2.85,1.13,4.27,1.79Z"/><path class="cls-4" d="M1047,405.56a109.81,109.81,0,0,1,14.41,8.54c1.58-3.2,6.61-4.62,8.8-.58,5.58,10.28,19.43,8.86,29.13,12.55,12.79,4.85,26.47,15,40.8,11.7a4.79,4.79,0,0,1,5.29,2.1,2.51,2.51,0,0,0,.76-.12,10.84,10.84,0,0,0,3.89-2.3c-1.61-.55-5.86,2.48-5.54-.36,1.27.18,1.75-.1,1.43-.86a.62.62,0,0,0-.49-.62c-.66,1.32-.08-3,.15-1.11,0-.43,1.41-.87.21-1.5a11.57,11.57,0,0,1-1.85.67c-.75-.35-2.16,1.7-3.08-.53-.42-1,.87-.91,1-1.57s-.58-.65-.59-1.08c.57-.29,1-2.86.51-3.34,0,0-4,3.81-4.73,3.22-.52-.44.82-4-.69-3.42.87-1,0-1.21.29-1.87.08-.21,1.13-.79,1.11-.92s0-.13,0-.19a.49.49,0,0,1-.07-.23c-.6-1.57-3.39-1-5.22-1.11-.09-1.68,6.91,0,6.58-1.72a8.83,8.83,0,0,1-.55,2.48,8.18,8.18,0,0,1,1.65.16c.73-.52-.23-1.53.22-2.27,1.38-2.3,7.89,1.9,9.63-.61a6.18,6.18,0,0,0-4-1.29c.06-1.27.82-.5,1.38-1.21-.89-1.36-2.14-.83-3.28-.58.32-1,1.07-1,2-1.63,1.63-1.17,1.27-1.29,1.44-3.41a14,14,0,0,1-4.38,2c-2-.08-.72-1.27-.43-2.63-.37-.8-.76.17-1.15-.42,0-.74.79-.76.72-1.51,0-.22-.49-.38-.5-.21,0-.65-.59-2.46.44-3.56-.63-.56-1,.06-1.38.48-.82-.58-3.16.7-4.46.7a12.72,12.72,0,0,1-3.92-.42c-.68-.24-1.22-.9-1.59-1s-1.46,1.39-1.81,1.57.71-4,1.5-4.65a3.45,3.45,0,0,1,1.88-.64c1.32-.18,2.37.35,3.63-.31.66-.34.84-1.12,1.53-1.47.86-.44,1.34.34,2.34-.35-1.12-.59-5.38-1.21-5.61-1.94,0,0,4.35-2.63,3-3.16-1-.42-2.89.85-3.92.57-.15,0-2.81-2.22-3-2.47,1.77-1.89,8.06-3.34,7.39-6.94-1.54,1.18-4.19,1.47-6,2.32-.59.28-2.49,1.61-3.21,1.46-1.57-.31-.19-.77-1.28-1.89-.14-.15-.93,2-1.42,1.73-1.24-.75,3.13-4.54,2.07-5.74-.61-.69-2.8.79-2.75.08-.78-.07-3.6,2.06-2.9-.71.46-1.77,2-1,3.24-.78a27,27,0,0,0,6.44.42c1.9-.15,4-.27,5.26-1.71,2.26-2.53-2.8-2.78-4.86-2.35a5.18,5.18,0,0,1,2.84-2.45c.53-.24,2.8-.27,3.15-.63,2.34-2.4-2.74-1-2.79-1.31a4.26,4.26,0,0,1,.18-1.34,9.07,9.07,0,0,1-1.18-.67c-1.1-.7-2.19.1-2.45-1.86-.13-1,.7-2,1-2.85-2,.52-7.42,3.18-9,2.22-1.49-.45-.66-2.27-.79-3.44,1.52-.54,1.18-1.88,2.68-2.28a39.15,39.15,0,0,0,7.32-.44c.9-.09.34,1.65,1.28.57.28-.31.16-1.56.12-1.92a4.69,4.69,0,0,0-.19-1.71c-.39-.8-1.38-.06-1.69-1.44-.36-1.55,3.19-2,3.08-3.48-1.38-.61-4,1-5.17,1.54-.49-1.06.71-1,1.18-1.85.31-.58.18-2.82.48-3.1-1.18,1.09-4.17,3.1-5.93,2.45-.93-.34-.84-.23-1.46-.94.18.21-.26-3.13-1.1-2.52-1,.75-1.11,2.69-2.45,3.13a25.3,25.3,0,0,1-3-.34c.13-1.47,3-3.71,3.94-4.75,1.64-1.76,2.56-3,4.67-4.11.3-.15,2-.46,1.9-1.17-.17-1.13-1.23,0-1.56-.32s-.94-1.55-1.52-1.76c-2-.7,3-5.36-1.76-2.13-.22-.86.4-1.42.12-2.33a20.32,20.32,0,0,1-2.94,3.25c-.09.09-2.45,2.42-2.45,2.4-1.38-1.35.43-4.75,1.26-6a10.87,10.87,0,0,1,2-2.19c.67-.47,2.21,0,2.77-.83-1.6-2-5.56,1-5.61-3.13,0-.91.59-1.64,2-2a12.71,12.71,0,0,1,2.42-.19c-3.89-2.6.79-.74.69-1.86,0-.22-1.67-.58-1.93-.64.45.07,3.6-3.5,4.23-4-.47.35-9.74,5.27-9.35,5.72-.33-.39,2-5.63,2.08-6.4-.36.58-2.38,4.42-2.9,4.39-1.3-.09.25-1.46-.53-2.05-.54.15-.86,1.08-1.57.46-.22-.81,1.05-2.06,1.24-2.59.31-.92.82-2.93,2-3.05,1.54-.65-.18-4-.92-1.65-.35-.92.54-1.18.23-2-.94-.32-1.37.72-2.3-.25,1.67-.6.18-3.13,1.28-4.18-1.1-.19-1,1.16-1.93,1.29-.28-1.39.49-2.54.66-3.79,0,.19,1.16-2,.25-1.48-1.58,1-2,.09-2.94,2.38-2.09,1.78-1.07-2.68-.85-3.35.76-2.28,1.7-4.53,2.33-7-2.77-.18-1.23,7-5,5.61.07-.75,1.45-3.13.83-3.88s-1.09,2.42-1.66,2,.55-7.2-.76-6.91c-.1,0-1.67,3.59-1.68,3.67l1.23.06c0,.51.33,2.51.07,2.85-1.12,1.45,0,.19-1.27-.09-.24-.05-.69-1.68-1.26-1.09s.58,2,.66,2.32c0,3.21-1.67.91-2.46-.31l.31,2.29c-1.73-.14-2.77-3-4.59-3.06a15.1,15.1,0,0,0,4.61,4.38c.5.35,1.41.43,1.78,1,.18.27.61,2.67,0,2.21s-.7-1.78-1.42-2.09a7.12,7.12,0,0,1-1.59.6c-.45.06-1.34-.59-1.75-.78.07,3.14-1.43,0-2,1.44,1,1.37,3.94,1.53,4,3.55,0,.94-1.22,1.51-2.29,1.46-.61-.2-1.85-.14-2.35-.55.21.18-.3,1.38-.3,1.59-.73-.41-2.28-1-3-.74.75-.29,6.09,4.23,6.56,4.81.84,1,.89.76.22,1.41-.94.91-4.75.73-6.07.83.58.85,1.32,1.12,1.87,2.05-.08.87.79,3.38-.85,2.93-1-.28-3.1-6.32-3.89-6s.62,2.66-1.15,2.9c-1.12.16-2.21-1.56-3.21-1.83.71,2.63,3,3.95,5.06,5.35,1.41,1,6.79,4.61,2.18,4.24-.11.57.71,1.25.89,1.72-1.66-.67-4.27-1.33-5.48.33,1,.84,2.08.67,3.2.75-.41,1.15,1.25,4.72,0,5.17-.23-.81-5.21-4.63-5.73-3.87-1.25,1.83,5.6,3.83,4.12,5.18-2.4-1-4.6-2.53-7-3.51,1.62,2.37,3.06,2.77,5.26,4.16,0,0,1.78.88,1.81.94.8,1.72-.25.54-.45,1.85,1.16.79,2.26.19,3.36,1.3.59.61,1.2,2.26,1.93,3.09a3.21,3.21,0,0,1-.5,1.59c-1-1.09-1.29-2.51-3-2.28-1.61-2.73-1.27,0-1.43.34-.25.54-.33,1.55-.72,2s-1.45-.34-1.9.91c-.71,1.95,5.54,6.27,3,7.27-1.86-1.89-2.15-1.23-4.3-.7a4.42,4.42,0,0,0,1.86,1.33c-.68,1.72-6.51-3-2.28,2.27-1.88.23-3.71-1.68-5.54-1.91,0,1,.69.9.91,1.75-.82.72-1.92-.16-2.76.59,1.36,2,4.79,1,6.45,1,2.8,0,1.34,1.23,2.87,1.52.45.08,1.19-.73,1.22-.7a23.6,23.6,0,0,1,1.84,2.54c.37.54.63,1.29,1,1.83.06.08,2.71.75,1.5,1.63-.48.35-1.52-.53-2.13-.45-1.73.23-.66.69-1.93,1.5-.84.54-3.4-.55-2.73-1-1.49,1-.63-.89-2.36-.92.59.51,1.18,3,1.49,3.68.56,1.19,1.53,2.38,0,3.55-.72-.13-1.43-.23-2.15-.31.57.06-2.12,0-1.9-.15-1.34,1,.83,1.24,1.25,2.51a8.53,8.53,0,0,1-1.51.48c-1.91-1.65-3.21-.57-4.82.7a3.5,3.5,0,0,1,2.12.52l.48,1c.32,0,.87-.3,1.09-.3a25.93,25.93,0,0,1,3.06-.39c0,.09-.53,1.72.12,1.6,2-.35,1.46-1.13,3.13.7a10.35,10.35,0,0,1,1.24,1.41c.12.19,1.13,1.92,1.23,2.14.9,1.92,1.49,2.8-.58,1.69-.92-.49-1.13-1.54-2-1.12s-.49,2.06-1.38,2.45c-.47-.49-3.13-4.3-3.8-3.81.73,2.25,1.57,2.49,2.66,4.2,0-.07.83,2.9.77,2.86-1.4-1-2.86.66-4-.93-1.61-1.69-1.37,3.54-2.14,4.06-1.49-.62-2.65.16-4,.6,1.62,1.55,2.43,0,4,.69a1.61,1.61,0,0,1,.94,1.07l-.29.18c-2.26,1-3.63-.24-5.79-.22-1.85,0-2.93,1-5,.75-1.31-.17-5.41.3-6.35-.78,1.18-.69,2.23-.25,3.29-.48.55-.11.94-.68,1.49-.74.86-.1.61.49,1.45-.1.34,1.55,2.2,1.12,2.8.24-1.14-.64-2.51-.28-1.41-1.26.57-.51,2-.86,1.69.39.42-.07,2.42-1.53,1.47-1.76,1.32-.07,2.71.62,3.73,0a1.34,1.34,0,0,1,.14-.92,10.62,10.62,0,0,0,1.12-1.12c.69-.88.82-.66.94-1.7.35-2.85-1.26-1.41-2.79-.2a11.8,11.8,0,0,1-9.38,1.79c.23-.34,4.31-.84,3.14-1.28.35-.5,2.57.22,2.66.23.87,0-1-1.2.78-1.26.37,0,1.52.61,1.73.47,1.48-.9,0-.57-.36-2,1.26,0,3.15-2.57,2.89-4.1-.4-2.38-1.59-.72-2.76.32-1.68,1.49-3.5,3.23-5.93,3.22-2.91,0-3.75-1.88-6.78-.87-1.38.46-2.43,1.23-1.82-.39,0,.05,2.27-1,2.62-1,1.12-.25,2.09.11,3.17-.09.89,2.56,3.63.49,3.43.29.78.14,4.58-1.64,3.93-2.65-.15-.22-3.78.6-4.52.46-2.07-.41-3.58-1.36-5.81-1.28-1.71.05-3.23.55-1.25-.8-.92.63,3.17-.12,1.44-.66,2.3.46,3.66-.09,5.6.63a3.87,3.87,0,0,0,4.58-1,5.35,5.35,0,0,0,.88-2.58c-.24-1.85-.47-.82-1.57-.34-3.65,1.62-5.72,2.28-9.93,1.45,1.22-1.67,2.14-.14,4-.37.83-.11,1.52-1,2.44-1.39.48-.21,1.61-.18,2.29-.91a6.74,6.74,0,0,0,1.3-3.4c-.06-.43-6.45,3.92-6.18,1.9.54.43,3.44-2.15,2.74-2.52,1.32-.52,1.31-.38.43-1.5,1-.74-1.06-.83.48-1.5-1.57-.84-1-1.87-2.21-.31-.88-.64-.75-1.16.38-1.56l-.89-.5c-.22-.66,2.67-3.36,1.26-4-.39,0-.51.27-.36.77-.71-.44-1.06-.18-1,.63-2.51-1.18-5.18,3.62-7.72,1.05,4.15.42,2.07-3.26,3.53-4.27a4.64,4.64,0,0,0-2.11-.83,36,36,0,0,0,4.88-2.28c-.63-.66-1.77,0-2.44-.08a20.57,20.57,0,0,0-2.79-.43c.37-.41,2.58-.62,1.19-1.64,1-.77,1.67-.13.82-1.25-.39-.51-1.28-.27-1.9-.72-1.26-.93-.68-.82-1.22-2-.17-.4-1.35-3.33-2-3.08s0,2.53-.21,3.07a13.79,13.79,0,0,0-1.39-2.3,3.78,3.78,0,0,0,.41,2.3c-2.37-.72-1.33,2.51-1.06,4.05a3.14,3.14,0,0,0-1.92.18c2.41,2.56-1.57,1.19-2.12,1.88-1.28,1.62,2.14,1.63,3,2.33-.69.56-.89,1,.06,1.43a1.27,1.27,0,0,0-1,1.57c-.49-.25-.83-.44-1.07-.57.08.1,0,.2-.32.21-.33-1.37-2.07-1.48-3-2.05.07,1.29,2,1.91.41,2.93,1,1,1.79,2.16,2.91,3s2,0,2.33,1.76c-.77.07-.57.94,0,1.67-2.3-.68-2.91-1.53-4.6-3.22-.15,1.13-1.51.77-2.23.66.83.76.8,1.55,1.36,2.37l1,.12a5,5,0,0,1,0,2.45c1.59.24,2.36.35,3.23,1.92-1.81-.15-3.19.51-5,0a5,5,0,0,1-1.06-.6c.33-.75.75-1.64.2-2.06-.79-.62-3.15,2.18-3.53,2.47a9.2,9.2,0,0,1-5,2.08c-1.62.14-2.55-.67-4-.86-1.84-.25-2.71.73-4.38,1.08-2,.4-4.17-.51-6.19-.71-1.38-.13-4.8.71-5.94-.61,1.74-1,3.18-.34,4.88-.63.19,0,1-1.13,1.44-1.23,1.06-.28,1,.91,2.23.06.47,2.16,3,1.54,3.82.32-1.18-.66-3.35-.5-2.26-1.66.67-.72,3.14-1.3,2.65.48.55-.1,3.45-2.08,2-2.42,1.87-.1,4,1,5.2-.26-.19.2,0-1.63.06-1.68.21-.3,1.32-.65,1.7-1,1-1,1.32-1.32,1.24-2.83,0-.58.71-2.08-1.06-2.08-1.13,0-3,2.68-3.8,3.26-1.81,1.25-3,.84-5,1.12-1.31.18-1.72,1.08-2.91,1.37-1.35.32-2.63-.5-3.93-.86.55-.81,1.71-.21,2.17-1.1.61,2.23,3.32-.2,2.13-.65.46-.65,3.45.22,3.53.27.72.46.34-1,.1-1.24,1.2-1.36,3.24,1,4.18.08s-.94-1.48-1.21-2.62c1.3,0,.93.09,1.65-.67a2.55,2.55,0,0,0,.84-1.9,1.54,1.54,0,0,0,1-.45c.24-.65.68-3.65.29-4.1-1.38-1.56-5.88,4.08-7.07,4.81-2.78,1.7-5.4,2-8.42.44-1.8-1-2.55-1.27-4.42-.63-.46.16-1.91,1.27-2.46,1.28-.38,0-2.24.5-1.8-.91.29-.93,1.21.14,1.53-.1,1.43-1.06,1.32-1.85,3.87-1.54a9.42,9.42,0,0,0,3.22-.27c1.27,3.67,4.9.59,4.7.4a5.68,5.68,0,0,0,4.18-1.56s1.2-1.82,1.24-1.57c-.23-1.64-1.41-.3-2.19-.1-4.05,1-7.22-2.11-11.37-1.6-.84.11-3.42,1.46-3.9,0-.38-1.1,1.87-1.59,1.87-.33.59.1,2.86-1.27,1.65-1.65a29.12,29.12,0,0,0,3.74.52c.27,0,1.21-.34,1.46-.35-.4,0,2,.75,1.4.6,2.18.59,3.43,1.47,5.53-.51.33.83,1.46.25,1.93-.12a1.47,1.47,0,0,0-.19-1.37l.86-.56c.43-1.16,1.06-4.38-.87-3.85-.53.15-1.83,2-2.49,2.35a11.49,11.49,0,0,1-3.25,1.31c-2.62.61-6-.06-8.72-.58,1.34-1.84,1.89-1.08,4.15-.74,2,.31,1.31.52,3-.63.51.07.66-.21.44-.86.78-.53,1.31-.4,1.61.37.58-.23.85-.92,1.35-1.15a5.89,5.89,0,0,0,1.77-.92,12.86,12.86,0,0,0,1.36-2.89c.39-1.77-.38-1.65-1.12-1.4-.42.14-7.7,5.65-7.28,2.51.75.59,4.71-3,3.75-3.46,3.12-1.23-.27-1.65,1.09-2.7-1.18-.28-.45-1.15.17-1.42-2.15-1.15-1.32-2.56-3-.43-1.69-.76,0-1.66.52-2.13-.92-1.45-.86,0-.75-1.33,0-.19.65-1.31.77-1.63s1.48-3.26.35-3.3c-.39.19-.51.56-.35,1.09-1-.6-1.45-.24-1.43.87-3-1.41-3,1.48-5,1.59.19-1.41-1.46.3-1.92.41-1,.23-3,.18-3.72-.57a4.81,4.81,0,0,0,3.39-.94c.42-.44.74-2.26,1.16-2.18-.23-2.1-1.43-1.54.3-2.73a6,6,0,0,0-2.89-1.14c.81-.23,6.89-2.7,6.77-3-.37-1-2.61-.32-3.23-.28-1.49.08-2.74-.67-4-.55.52-.58,3.57-.83,1.64-2.25,1.11-.88,2.71-.51,1-1.83-.88-.67-2.07,0-3.09-1-.65-.58-2.38-7.44-3.71-6.89-.72.3-.07,3.51-.28,4.2a20.71,20.71,0,0,0-1.92-3.15,5.39,5.39,0,0,0,.57,3.16c-.64-.19-1.29.15-1.94-.13a17.7,17.7,0,0,0,.49,5.68,4.31,4.31,0,0,0-2.64.25c3.25,3.46-2.13,1.71-3.05,2.57-1.93,1.81,3.53,2.58,4.33,3.2a13.85,13.85,0,0,1-1,1.31c.36.2.71.42,1,.65a1.82,1.82,0,0,0-1.44,2.16c-1.27-.66-1-.52-1.91-.5-.44-1.83-2.84-2-4.13-2.81.09,1.76,2.73,2.61.56,4,1.41,1.3,2.46,3.27,4.14,4.21,1.49.84,2.68.23,3,2.34-1,.1-.77,1.28,0,2.29-3.12-.92-4-2.12-6.29-4.42-.22,1.59-2,1.06-3.07.91,1.17,1.08.85,2.09,1.77,3.15.66.76,1-.08,1.6.84a5.13,5.13,0,0,1-.05,2.78c2.19.33,3.2.44,4.41,2.64-2.48-.21-4.47.93-6.95,0-1.09-.44-3.15-2.45-3.77-.48a2.14,2.14,0,0,1,1.4,2.65c2,.1,2,3,4.12.6,1.31,2.67,2.77.2,4.93,1.65-.58,3.35-11.7-.43-13.74-1.12-1,2,3.91,3.48,4.94,4.13.83.53,1.82,1.42,2.33,1.63.33-.17.66-.35,1-.51l.85.74a23.63,23.63,0,0,1,3.25.39c-.26,5.45-12.4-4.25-14-1.31,1.19.5,1.56,1.18.81,2a23.55,23.55,0,0,1,3.24,1.3c.07.07,2.09,1.63,1.73,1.65,1.47.4,3.33-.64,4.92.21,4.09,2.17-2.36,2.62-4.37,1.38,1.41,1.43.28,1.11.07,2.13-.27,1.29,1.21,1-.63,1.5-2.3.64-4.36-2.54-6.4-2.8-.81-.69-1.29-.57-1.42.39-.42.81-.17,1.18.73,1.1.19.53.6,2.28.83,2.74-.28.9.08,1.22,1.06,1s1.43.17,1.12,1.24c-.28.8-.06,1.29.68,1.47.49.5.78.44.87-.16.3,0,2.41-1.24,2.65-1.25a13.25,13.25,0,0,1,2.48.71c2.07.39,3.91.76,2.43,2.79-2.93,4-8.77,0-13-1.81a2,2,0,0,0,.05-.66c0-.09-.36.06-.87.33a8,8,0,0,0-1.61-.46,3.44,3.44,0,0,0,.48,1.05c-1.87,1-4.34,2.26-4.18,1,.55.43,3.45-2.15,2.74-2.52,1.33-.52,1.32-.39.44-1.5,1-.75-1.07-.83.48-1.5-1.57-.84-1-1.87-2.22-.31-.87-.64-.75-1.16.38-1.56-.3-.16-.59-.33-.88-.5-.22-.66,2.66-3.36,1.25-4-.38,0-.5.27-.35.77-.72-.44-1.06-.18-1,.63-2.51-1.18-5.18,3.62-7.73,1.05,4.16.42,2.07-3.26,3.54-4.27a4.68,4.68,0,0,0-2.11-.83,36.57,36.57,0,0,0,4.88-2.28c-.63-.66-1.77,0-2.44-.08a21,21,0,0,0-2.8-.43c.38-.42,2.59-.62,1.2-1.64,1-.77,1.67-.14.82-1.25-.39-.51-1.28-.27-1.9-.72-1.27-.93-.68-.82-1.22-2-.17-.39-1.36-3.32-1.95-3.07s-.05,2.53-.21,3.06a14.87,14.87,0,0,0-1.39-2.29,3.72,3.72,0,0,0,.41,2.3c-2.37-.72-1.34,2.51-1.06,4.05a3.17,3.17,0,0,0-1.93.18c2.41,2.56-1.57,1.19-2.11,1.88-1.28,1.62,2.14,1.63,3,2.33-.69.56-.9,1,.06,1.43a1.28,1.28,0,0,0-1.06,1.57c-.49-.25-.83-.44-1.06-.57.08.1,0,.2-.32.21-.33-1.37-2.07-1.48-3-2.05.07,1.29,2,1.91.41,2.93a41.49,41.49,0,0,0,2.91,3c1.1.85,2,.05,2.32,1.76-.77.07-.57.94,0,1.67-2.3-.68-2.9-1.53-4.59-3.22-.15,1.13-1.52.76-2.24.66.83.76.81,1.55,1.37,2.37l1,.12a5.08,5.08,0,0,1,0,2.45c1.59.24,2.35.35,3.22,1.92-1.8-.15-3.19.51-5,0-.8-.22-2.33-1.93-2.82-.39a1.55,1.55,0,0,1,1,1.93c1.16.06.65.8,1.45,1.06s.87-.67,1.55-.62c.35,0,.67,1.15,1,1.2,1.26.18,1.09-1,2.6,0-.41,2.42-8.64-.35-10-.82-.75,1.44,3,2.71,3.8,3.12s1.21.75,1.75,1c.83.31,2.36.28,3.47.57-.1,2.28-3,.94-5.76-.22-.26-.79-.66-.8-1.15-.48-1.58-.63-2.91-1-3.33-.25l.06,0a40,40,0,0,1-4.12.49c-2.07-.41-3.58-1.36-5.81-1.29-1.71.06-3.23.56-1.25-.79-.92.63,3.17-.12,1.44-.67,2.3.47,3.66-.08,5.6.64a3.87,3.87,0,0,0,4.58-1,5.15,5.15,0,0,0,.88-2.58c-.24-1.85-.47-.82-1.56-.34-3.66,1.61-5.72,2.28-9.94,1.45,1.22-1.67,2.14-.14,4-.37.82-.11,1.51-1,2.44-1.39.48-.21,1.6-.18,2.28-.91a6.77,6.77,0,0,0,1.3-3.41c-.06-.42-6.44,3.93-6.18,1.91.54.43,3.44-2.15,2.74-2.52,1.32-.52,1.31-.39.44-1.5,1-.75-1.07-.83.48-1.5-1.58-.84-1-1.87-2.22-.31-.87-.64-.75-1.16.38-1.56-.3-.16-.59-.33-.88-.5-.22-.66,2.66-3.36,1.25-4-.39,0-.51.27-.36.77-.71-.44-1.06-.18-1,.63-2.51-1.18-5.18,3.62-7.73,1.05,4.15.42,2.07-3.26,3.54-4.27a4.73,4.73,0,0,0-2.11-.83,35.78,35.78,0,0,0,4.87-2.28c-.63-.66-1.76,0-2.43-.08a21,21,0,0,0-2.8-.43c.37-.42,2.59-.62,1.2-1.64,1-.77,1.66-.14.82-1.25-.39-.51-1.29-.27-1.9-.72-1.27-.93-.68-.82-1.22-2-.18-.39-1.36-3.32-2-3.07s0,2.53-.2,3.06a14.93,14.93,0,0,0-1.4-2.29,3.8,3.8,0,0,0,.41,2.3c-2.36-.72-1.33,2.51-1.06,4.05a3.14,3.14,0,0,0-1.92.18c2.41,2.56-1.57,1.19-2.12,1.88-1.28,1.62,2.15,1.63,3.06,2.33-.69.56-.9,1,.06,1.43a1.27,1.27,0,0,0-1.06,1.57c-.49-.25-.83-.44-1.06-.57.08.1,0,.2-.33.21-.33-1.37-2.06-1.48-3-2.05.06,1.29,2,1.91.4,2.93,1,1,1.79,2.16,2.91,3s2,0,2.33,1.76c-.77.07-.57.94,0,1.67-2.3-.68-2.91-1.53-4.59-3.22-.16,1.13-1.52.76-2.24.66.83.76.81,1.55,1.37,2.37l1,.12a5.08,5.08,0,0,1,0,2.45c1.58.24,2.35.35,3.22,1.92-1.8-.15-3.19.51-5,0a5.51,5.51,0,0,1-1.06-.6c.33-.75.75-1.64.2-2.07-.79-.61-3.15,2.19-3.52,2.48a9.6,9.6,0,0,1-3.43,1.77,59.91,59.91,0,0,1,11.41,5.39l.21,0s0,0,0,.08l.82.55a41.07,41.07,0,0,1,17.72,3.25c1.19-.49,2.64-1.39,2.61-2.07.42.33.48.72.06,1.19l.94.38c-.51.46-1,.93-1.61,1.36a97.84,97.84,0,0,1,14.55,8.58c7.19,1.57,14.44,3,21.66,4.57a4.85,4.85,0,0,1,4.84-.11c1.26.64,2.5,1.31,3.73,2a227.68,227.68,0,0,1,33,9.74c-2.17-1.6-4.17-4-6.69-4.72,2.2-.69,4.74-.67,6.41.68a12.19,12.19,0,0,1,1.26,1.74,2,2,0,0,0-.7.3,23.08,23.08,0,0,0,5.37,3.32c.92.35,3.88.26,5.47.81.16.15.16.64.28,1A2,2,0,0,0,1047,405.56Zm-52.64-27.7a2.49,2.49,0,0,0,.12-1.12c-.4-2.38-1.59-.72-2.77.32-.31.28-.62.56-.95.84-.57-.17-1.18-.41-1.8-.65.94-.54,1.69-1.22,1.37-1.72-.15-.23-3.78.6-4.52.46-2.07-.41-3.57-1.36-5.8-1.29-1.71.06-3.23.56-1.26-.79-.92.63,3.17-.12,1.44-.66,2.3.46,3.67-.09,5.6.63a3.89,3.89,0,0,0,4.59-1,4.65,4.65,0,0,0,.67-1.46,1,1,0,0,1,.4.91,2.42,2.42,0,0,1,2.67.82,11.08,11.08,0,0,1,.87-1.54c1.28,2.39,2.51.59,4.35,1.94A9.8,9.8,0,0,1,994.32,377.86Zm50.18,1.54c.28-.22.74-.28,1.11-.54l.67-.47c.71.34,1.38.6,1.67.75.86.45,1.2.75,1.74,1,.83.31,2.37.28,3.48.58C1053,383.83,1047.41,380,1044.5,379.4Z"/><path class="cls-4" d="M731.48,278.33c1.2-.89,2.95-2.37,1.29-2.52-.78-.07-1.63.81-2.53,1.61Z"/><path class="cls-4" d="M838.26,320.59c.48-1.42-2.38-1.1-2.84-1.1,1.36-1.27-3.93-.22-3.93-.22a49.91,49.91,0,0,1-8.21.11c-5.4-.1-10.8-2.64-16.23-3.94.35-.17,3.3-2.61,1.72-2.79-.75-.08-2,1.7-2.78,2,.21-2.36-.27-1.84,1.82-2.3a7.58,7.58,0,0,1,5,1c1.36.92,1.54,2.68,2.55,3.55,1.55,1.32,1.17-.68.62-1.73.89.71,6.85,3.94,7.33,2.69.37-1-2.33-2-3.15-2.48.63.16,7.87,1.59,6.18-.13-.64-.65-2.22-.41-3-.54a50.71,50.71,0,0,1-6.88-2c1.2,0,4.35.25,5.27-.53,1.57-1.33-1.7-.84-1.77-.83-4.14.19-8,.27-12.09-.94,1,.06,9.47.41,8.27-1.87.2.39-8.84.74-9.7.66a25.71,25.71,0,0,0,.06-4.21c1.35-.32,3.6,4.46,5.13,4s-3-3.59-3.5-4.1c1.68,0,3.18.58,4.89.58a20.44,20.44,0,0,1,5,.48c1,.24,3.55,1.61,4.47,1,1.41-.88-2.93-1.65-3-1.69,1.24,0,7,.1,7.41-1.52s-1.79-1-2.65-.87a26.6,26.6,0,0,1-7,.29c.9-.42,3-.9.47-1.45-1.56-.34-3.17,1-5.05.66.17,0,1-.91.35-1.09-1.24-.33-1.5.37-2.67.69a34.13,34.13,0,0,1-4.11.56c-.43-2.7-1.46-4.46,1-4.68.91-.08,4.61,2.22,4.68.92.07-1.13-4-1.92-4.7-2a19.57,19.57,0,0,1,5.32.6,43.44,43.44,0,0,0,5.4,1.43c.37,0,3.25.54,1.53-.81-1-.76-3.84-.84-5.07-1.23,1.29,0,11-.05,10.88-2-.08-1.16-4.09.35-4.66.45a38.15,38.15,0,0,1-5.77.41c1-.2,7.91-1.4,7.83-2.64-.07-.94-7,1.35-8,1.54-3.19.62-5.41,0-8.64-.2a27.56,27.56,0,0,0,.08-4.81c1.47.21,6.55,2.22,7.81,1.7,2-.8-1.47-1.51-2.14-1.68a22.42,22.42,0,0,0,6.66-1.79c.62-.27,5.15-2.15,3.32-3-.62-.29-4.78,2.4-5.65,2.69a22.3,22.3,0,0,1-7.32,1.15c3.44-.07,8.15-1.21,10.77-3.49,3.86-3.36-2.68.2-4.06.8-.13-.37,1.45-1.78.61-2.22-1.07-.57-1.29,1.36-1.77,1.75-1.47,1.15-5.45,1.88-7.25,1.2q-2,.61-1.56-1.56a5,5,0,0,0,.53-1.74c.38-.23,3.2.56,3.69.67.23.05,3.12,1,3.28.64.67-1.31-2.24-2-3-2.29a18.31,18.31,0,0,1,4-1.33c1.55-.33,3,.15,4.61-.17.58-.12,2.91-.67,1.57-1.57a12.63,12.63,0,0,0-1.91.48c1.14-.6,6-2.81,2.47-2.83-1.43,0-3.28,1.75-4.88,2,.33-.31,2.6-2.61,1.16-2.9-.22,0-2.89,2.3-3.41,2.46s-.91-.41-1.53-.14-.73,1.13-1.18,1.39c-1.38.79-3.44.62-5.05,1,.12-1.31.28-2.71.28-4-.28-.05,2.81.34,1.33-.8.87-.14,7.35-2.27,6.47-4.2-.8-1.74-5.06,1.85-5.92,2.14.34-.88.24-2.6-1.13-2-.52.24-.5,2-1.45,2.45,0-1-.39-3.06,0-4,.56-1.49,1.43-1.17,2.92-2,2.36-1.28,5.23-5.32.63-2.73,1.6-1.8,1.28-2.44-.75-1.17-1,.61-1.75,2.29-2.88,2.54-.07-2.46,2.12-3.94,3.63-5.95,2.88-3.84-1.14-.46-2.47.94.43-.64,2.89-3.46,2.11-4.29s-2.63,2.26-3,2.9a44.52,44.52,0,0,0,.24-10.89c-.39-3.29-2.5-4.73-2.78-1.13-.16,2.21,1.88,8.14.17,9.72-.42-.91-1.24-2.67-2.18-1.72-1.54,1.56,2,5,2.25,6.41-2.08-1.31-3.59-3.5-5.31-5.08-1.34-1.23-2.14-1.72-1.43.71.55,1.9,2.45,3.29,3.86,4.37,2.29,1.76,2,1.52,2.4,4.39-1.36-1.14-2.72-2.87-4.25-3.73s-1.62-1.39-1.25.35,2.77,3.24,4.06,4.24,1.18.52,1.65,1.78a9.85,9.85,0,0,1,.15,2.49c-1.38-.78-2-3-3.78-3.22-2.94-.38-.71,2,.57,3-1.53-.32-6.05-1.91-4.43.57.8,1.21,4.75,2.21,6,2.64,3.16,1.07,1.52,1.42,1.73,4.27-1.28-.56-2.13-3.45-3.6-3.62-1.92-.23.88,2.26.9,2.3-.58-.33-3.89-3.18-3.53-1.29.15.75,1.33,1.47,2.39,2a32.35,32.35,0,0,1-5.59-2.72,26.32,26.32,0,0,0-2.46-1.15c-.15-.08-1.48-1.69-2.35-1.36-2,.76-.33,1.25.52,2.06,2.13,2,5.31,3.53,7.93,5a20.44,20.44,0,0,0,2.47,1.14c.43.17,3.43.61,3.64.87.58.74-.07,4-.08,4.94a8.94,8.94,0,0,1-3.37-1.87c-1.31-.27-1.65-.84-1-1.72l.37-.72c-.51-.38-.09-.51-.84-.73.35.1-1.33,1.08-1.61,1.07-1.69-.1-3.1-2.88-4.39-3.28-3.18-1,.76,2.39,1.65,3.17-1.23-.5-6.13-2.91-3.52-.46,1.77,1.67,5.35,2.07,7.48,3.36-1.92-.24-4,.16-5.89-.12-1.42-.21-8.62-4.33-9.2-3.92-2.94,2.08,7.12,4.88,8.41,5.14-.25,0-1.21.56-.76.78,1.17.57,2.31.24,3.53.22,1.49,0,7.73-.42,8.86.81a4,4,0,0,1,.3,3.57c-.59,1.37-.22,1.19-2.23,1-3.25-.27-6.32-2-9.55-2.8-2-.49-7.07-2.78-3.43.66-.36,0-6.65-.78-4.33,1.16,1.92,1.6,6.18,0,8.62,1.42-.62.26-5.32,1-5.26,1.74.12,1.63,6,0,7.19,0a22.47,22.47,0,0,1,7.41,1.12c1.74.68,1.22-.33,1.53,1.56,1,5.78-6.6-.69-8.46-.6-2.69.12,3.75,3.34,4.27,4a38.21,38.21,0,0,1-10.42-.95,5.08,5.08,0,0,1-1.58-.86,5.26,5.26,0,0,0,2.23-3c-1,.11-2.08,1.65-3.2,1.32-1.89-.56-.39-2.68-1.17-3.09s-2.24,2.85-3.31,4.49c-.49-.16-1-.31-1.38-.4,0-.45-.05-1,0-1.75.55-.84,1.29-1,1.86-1.75-.86-.2-5.68-.91-6.26-1.77s-.26-.7.38-1.41c.5-.54,5.85-4.13,6.54-3.76a4.46,4.46,0,0,0-3.05.25c0-.28-.55-1.48-.31-1.63-.5.32-1.74.06-2.35.16-1-.12-2.31-.88-2.3-1.82,0-1.82,3-1.75,4-2.91-.59-1.49-2.08,1.21-2-1.77a6.05,6.05,0,0,1-2.11.42c-.47,0-.88-.88-1.22-.78-.73.22-.77,1.47-1.41,1.86s.12-2.2.24-2.34c.35-.42,1.09-.32,1.53-.58,1.89-1.14,3.16-1.71,4.58-3.64-1.84-.2-2.83,2.46-4.58,2.32l.3-2.24c-.78,1.1-2.39,3.14-2.46-.08.07-.25,1.1-1.67.64-2.21-.58-.7-1,.86-1.24.88-1.08.09-.37,1.2-1.28-.11-.26-.38,0-2.33,0-2.84l1.23.13c0-.07-1.6-3.9-1.7-3.94-1.39-.52,0,6.44-.72,6.8s-1.08-2.93-1.67-2.3.78,3.25.86,4c-3.77.81-2.2-6.14-5-6.4.64,2.58,1.6,5,2.37,7.39.34,1,1.38,4.86-.82,3.21a15.51,15.51,0,0,0-.88-1.94c.22-.52.36-1.07-.14-.76a3.79,3.79,0,0,1-.56.29,2.59,2.59,0,0,1-1.38-.45c-.59-.45-.3.4,0,1a3.34,3.34,0,0,0-1,1.53c-2.1,1.79-1.07-2.68-.85-3.34.75-2.29,1.7-4.54,2.32-7-2.77-.18-1.23,7-5,5.61.08-.75,1.45-3.13.83-3.88s-1.09,2.42-1.65,2,.54-7.2-.77-6.91c-.1,0-1.67,3.6-1.68,3.67l1.23.06c0,.52.34,2.51.07,2.86-1.11,1.45,0,.19-1.27-.1-.24-.05-.69-1.68-1.26-1.08s.59,2,.67,2.32c0,3.21-1.67.91-2.47-.32l.32,2.29c-1.74-.14-2.77-3-4.6-3.05a15.29,15.29,0,0,0,4.61,4.37c.5.35,1.42.43,1.79,1,.17.27.6,2.66,0,2.2s-.71-1.78-1.43-2.09a6.49,6.49,0,0,1-1.59.6c-.45.06-1.34-.58-1.74-.78.06,3.14-1.44,0-2,1.45,1,1.37,3.93,1.52,4,3.55,0,.93-1.23,1.51-2.3,1.45-.61-.2-1.84-.13-2.35-.54a.3.3,0,0,1,0,.16c2.75,3.24,5.47,6.51,8.07,9.86.69.69,1.39,1.37,2.1,2a5.17,5.17,0,0,1,6.4.45c4.4,4.5,8.33,9.4,12.26,14.3a5.8,5.8,0,0,1,.34.52c9.26,3.86,18.17,8.65,27.8,11.57q7.36,2.22,14.49,4.76a32.14,32.14,0,0,0-2.9-2,60.16,60.16,0,0,1,9.79,3.77c.63.34,5.33,3.05,4.29.87-.57-1.18-4.71-2.77-5.85-3.39,3.17.39,6.2.16,9.18,1.42,1,.41,3.12,2.11,4.08,1.5,1.45-.92-2.68-2.48-2.94-2.6.92-.05,4.75.12,5.31-.59.9-1.17.09-1.59-1.18-1.4.71-2-2.67-.23-3.07-.08a6.75,6.75,0,0,1-5,0c-2-.59-3.12-1.83-4.84-2.92s-3.17-1.57-4.69-3c2.28.37,5-.33,7.15.46.44.16,3.46,2.68,3.73,1.27.15-.78-1.84-1.21-2.31-1.6a14.84,14.84,0,0,1,5.65.53c.53.18,2.06,1.14,2.54,1.05,1.32-.26.57-1.22-.66-1.7C835.45,320.89,838.07,321.13,838.26,320.59Zm-32,2a12.39,12.39,0,0,1,.3-1.95c.91-4.8,7.08,3.43,8.09,4.84C813.65,325.23,807,322.12,806.24,322.61Zm14.71,2c1.6.88,3.73,1.47,5.09,2.72-2.61-.15-7.29,0-9.5-1.67-1.61-1.22-1.68-3.76-3.06-5.33,1.53.85,3,1.75,4.56,2.63C818.76,324.92,822.94,328.79,821,324.62Z"/><path class="cls-4" d="M835.39,336.7c2.09.16,4,.15,3.57-.56-.67-1-5.29-1.21-7.87-1.32C832.53,335.43,834,336.06,835.39,336.7Z"/><path class="cls-4" d="M737.42,282.86c3-.58,6.1-1.63,4.3-3.25-.29-.26-3.82,1-6.25,1.74C736.12,281.85,736.78,282.35,737.42,282.86Z"/><path class="cls-4" d="M727.8,271.76c.35-1.8-3.11.56-3.52.73.25-.43,2.72-1.94.88-2.16-.82-.1-1.56,1-2.27,1.87,1.17.8,2.33,1.61,3.48,2.42.41.29.8.59,1.21.87,2.63-1,5.67-2,7.71-3.68.85-.67,2.4-.95.51-2-.9-.48-2.1.88-2.28.95a18.3,18.3,0,0,0-2.28.73,23,23,0,0,1-5.68,1.85C726.59,273,727.66,272.49,727.8,271.76Z"/><path class="cls-4" d="M721.39,271.19c-.13-.77-.06-1.19,1.23-1.69,1.77-.68,5.31-.33,6.67-1.8,2-2.13-3.26-1.33-4.43-1.27,1.33-.78,3.52-2.65.55-2.88-1.62-.12-2.46,2.08-3.76,2.62.18-2.07-.11-2.71,1.27-3.77s3.91-1.64,4.53-3.81c.42-1.48.37-1.08-1-.69-1.61.45-3.19,2.3-4.5,3.2.41-2.86-.17-2.15,2.12-3.61,1.35-.86,3.52-2.45,4.09-4.16s.26-2.21-1.32-1.23c-.53.33-1.33,1.59-1.92,2.11a17.22,17.22,0,0,1-3.48,2.42c.21-1.38,3.76-4.25,2.21-6.06-.95-1.1-1.76.53-2.17,1.37-1.73-1.85.28-7.45.09-9.69-.3-3.65-2.4-2.55-2.77.69a45.56,45.56,0,0,0,.32,10.93c-.46-.8-2.18-4.19-3-3.39s1.78,4,2.14,4.63c-1.26-1.52-5.48-5.78-2.48-1.34,1.52,2.25,3.73,4.1,3.67,6.53-1.08-.4-1.95-2.31-2.89-3-1.73-1.25-2.65-1.38-.75,1-4.63-3.33-1.75,1.15.65,2.84.86.6,2.4.85,3,1.82.41.73,0,3.62,0,4.59-.45-.27-1.38-2.64-1.47-2.68-1.32-.59-1.54.65-1.12,1.79-.79-.38-5.16-4.68-5.93-3.08-.2.41,0,.9.41,1.4A117.66,117.66,0,0,1,721.39,271.19Z"/><path class="cls-5" d="M347.77,53.76h27.1L441.49,42l29.36,11.76L581.24,162.51l55.89,30.86L799,319.76l194.6,64.39L1163,443.2,1352,528,0,522V237.46s82.43-60.26,109.53-66.13,108.39-29.4,108.39-29.4L321.8,84.62Z"/><path class="cls-6" d="M39,221.29,189.69,186l86.95-51.43,66.61-57.32,31.62-23.51h-27.1l-26,30.86L217.92,141.93s-81.3,23.52-108.39,29.4S0,237.46,0,237.46v29.06Z"/><path class="cls-7" d="M994.63,385.15,800,320.76,638.13,194.37l-55.89-30.86-55.66-54.83h0L571,187l120.46,97s66.31,73,68.44,76.92,260.69,33.27,260.71,33.27Z"/></g></g></g></svg>