<svg
  xmlns="http://www.w3.org/2000/svg"
  xmlns:xlink="http://www.w3.org/1999/xlink"
  viewBox="0 0 404.33 208"
>
  <defs>
    <style>
      .cls-1 {
        isolation: isolate;
      }
      .cls-2 {
        fill: url(#linear-gradient);
      }
      .cls-3 {
        fill: #201352;
        mix-blend-mode: overlay;
        opacity: 0.59;
      }
    </style>
    <linearGradient
      id="linear-gradient"
      x1="202.17"
      y1="201"
      x2="202.17"
      y2="-19.38"
      gradientUnits="userSpaceOnUse"
    >
      <stop offset="0" stop-color="#e1f6c1" />
      <stop offset="0.27" stop-color="#c5e9b5" />
      <stop offset="0.84" stop-color="#7fc897" />
      <stop offset="1" stop-color="#6bbf8e" />
    </linearGradient>
  </defs>
  <g class="cls-1">
    <g id="Layer_2" data-name="Layer 2">
      <g id="OBJECTS">
        <path
          class="cls-2"
          d="M399.67,0S368.33,20.67,359,26s-30.67,4.67-30.67,4.67h-10l-10.66-7.34L287,37.33l-27.33,20L231.67,36,227,28l-10.67,2L161.67,61.33,153,68H137.67l-18-4L66.33,102,0,142.67V208H404.33Z"
        />
        <path
          class="cls-3"
          d="M224,66.5,210.5,77l-11,19.5v16.06l-14,23.94-9.17,16.17L210.5,119l21.4-32.33,27.77-29.34L231.67,36C233.5,49.5,224,66.5,224,66.5Z"
        />
        <path
          class="cls-3"
          d="M359,26a19.76,19.76,0,0,1-2.53,1.19S344,43,335,50s-36,26.5-36,26.5-16.5,27.5-27.5,34-45,32.17-45,32.17L178.5,208H404.33L399.67,0S368.33,20.67,359,26Z"
        />
      </g>
    </g>
  </g>
</svg>
