<svg
  xmlns="http://www.w3.org/2000/svg"
  xmlns:xlink="http://www.w3.org/1999/xlink"
  viewBox="0 0 762.29 299.33"
>
  <defs>
    <style>
      .cls-1 {
        isolation: isolate;
      }
      .cls-2 {
        fill: url(#linear-gradient);
      }
      .cls-3 {
        fill: #201352;
        mix-blend-mode: overlay;
        opacity: 0.08;
      }
    </style>
    <linearGradient
      id="linear-gradient"
      x1="381.14"
      y1="373.67"
      x2="381.14"
      y2="137.67"
      gradientUnits="userSpaceOnUse"
    >
      <stop offset="0" stop-color="#6e9e92" />
      <stop offset="1" stop-color="#23484d" />
    </linearGradient>
  </defs>
  <g class="cls-1">
    <g id="Layer_2" data-name="Layer 2">
      <g id="OBJECTS">
        <path
          class="cls-2"
          d="M762.29,0,701.62,49.33s-69.3,11.34-81,10.67S595,68,595,68L531.62,97.33H513L467.62,88H452.29l-35.17,13.33H399.79l-7.65,3.34L378,95.33l-24.22-10-5.49-6-19.64-2-7.8-8L307.51,72,277,87.33l-16,5.34-38.67,8-34.67,20.66s-55,24.72-72.89,27.36-66.44,2.64-66.44,2.64L0,161.81V299.33H762.29Z"
        />
        <path
          class="cls-3"
          d="M287.48,103.67l-24.19,10s-8.5,18.5-17.5,26-43.5,22-43.5,22l-26.5,28.5-44,59.84-17.73,49.32h71.77l52-108.16,40-33s18-22.5,27.74-26,19.39-6.5,26.58-10.5,11.16-11,23.42-9.5c0,0,5.34-5.5,19.05-4s17.56-3.5,17.56-3.5L378,95.33l-24.22-10-5.49-6-19.64-2-7.8-8L309.47,87.17Z"
        />
        <polygon
          class="cls-3"
          points="476.75 89.88 476.75 89.88 457.79 102.17 445.79 123.17 429.79 149.67 392.14 167.5 351.62 207.17 339.74 237.67 377.37 194.15 426.41 168.67 468.79 146.17 496.29 120.67 531.62 97.33 512.96 97.33 476.75 89.88"
        />
      </g>
    </g>
  </g>
</svg>
