<svg
  xmlns="http://www.w3.org/2000/svg"
  xmlns:xlink="http://www.w3.org/1999/xlink"
  viewBox="0 0 223.67 118.33"
>
  <defs>
    <style>
      .cls-1 {
        isolation: isolate;
      }
      .cls-2 {
        fill: url(#linear-gradient);
      }
      .cls-3 {
        fill: #201352;
        opacity: 0.59;
      }
      .cls-3,
      .cls-4 {
        mix-blend-mode: overlay;
      }
      .cls-4 {
        fill: #fffef7;
        opacity: 0.37;
      }
    </style>
    <linearGradient
      id="linear-gradient"
      x1="111.83"
      y1="149.67"
      x2="111.83"
      y2="-7.71"
      gradientUnits="userSpaceOnUse"
    >
      <stop offset="0" stop-color="#fff9d1" />
      <stop offset="0.19" stop-color="#f6f8cc" />
      <stop offset="0.5" stop-color="#def5bf" />
      <stop offset="0.88" stop-color="#b6f1a9" />
      <stop offset="1" stop-color="#a9efa2" />
    </linearGradient>
  </defs>
  <g class="cls-1">
    <g id="Layer_2" data-name="Layer 2">
      <g id="OBJECTS">
        <path
          class="cls-2"
          d="M223.67,69S212,55.33,209,47.67s-5.67-21-14.67-24.34-19.87-7.66-19.87-7.66L160,5l-6.67-5h-8a17.16,17.16,0,0,1-9.66,4c-5.67.33-21,7.67-21,7.67S99.67,22,97,23.33s-23,7.34-23,7.34L44,40.33,3.67,63,0,118.33H223.67Z"
        />
        <path
          class="cls-3"
          d="M170.83,18.67c5.5,3.5,19.5,16,18.5,22s-14.87,16-14.87,16l-6.13,14.5-26,12.5L99.75,118.33H223.67V69S212,55.33,209,47.67s-5.67-21-14.67-24.34-19.87-7.66-19.87-7.66L160,5S165.33,15.17,170.83,18.67Z"
        />
        <path
          class="cls-4"
          d="M103.33,30l10.34-6.67,11-11.66L140.14,3a15.52,15.52,0,0,1-4.47,1c-5.67.33-21,7.67-21,7.67S99.67,22,97,23.33s-23,7.34-23,7.34L44,40.33,62,39Z"
        />
      </g>
    </g>
  </g>
</svg>
