<svg
  xmlns="http://www.w3.org/2000/svg"
  xmlns:xlink="http://www.w3.org/1999/xlink"
  viewBox="0 0 686.67 241.33"
>
  <defs>
    <style>
      .cls-1 {
        isolation: isolate;
      }
      .cls-2 {
        fill: url(#linear-gradient);
      }
      .cls-3 {
        fill: #fffef7;
        opacity: 0.37;
      }
      .cls-3,
      .cls-4 {
        mix-blend-mode: overlay;
      }
      .cls-4 {
        fill: #201352;
        opacity: 0.32;
      }
    </style>
    <linearGradient
      id="linear-gradient"
      x1="343.33"
      y1="311"
      x2="343.33"
      y2="62"
      gradientUnits="userSpaceOnUse"
    >
      <stop offset="0" stop-color="#e1f6c1" />
      <stop offset="0.22" stop-color="#c5e2b4" />
      <stop offset="0.7" stop-color="#7faf93" />
      <stop offset="1" stop-color="#4f8c7d" />
    </linearGradient>
  </defs>
  <g class="cls-1">
    <g id="Layer_2" data-name="Layer 2">
      <g id="OBJECTS">
        <path
          class="cls-2"
          d="M205.33,5.33h16L260.67,0,278,5.33l65.18,49.34,33,14L471.77,126l114.9,29.21,100,26.79v59.33H0V88.67s48.67-27.34,64.67-30,64-13.34,64-13.34l61.33-26Z"
        />
        <path
          class="cls-3"
          d="M23,81.33l89-16L163.33,42l39.34-26L221.33,5.33h-16L190,19.33l-61.33,26s-48,10.67-64,13.34S0,88.67,0,88.67v13.18Z"
        />
        <path
          class="cls-4"
          d="M586.67,155.21,471.77,126,376.18,68.67l-33-14L310.32,29.79h0l26.22,35.54,71.13,44s39.15,33.12,40.41,34.9S602,159.32,602,159.32Z"
        />
      </g>
    </g>
  </g>
</svg>
