<?xml version="1.0" encoding="UTF-8"?>
<svg id="Layer_2" data-name="Layer 2" xmlns="http://www.w3.org/2000/svg" viewBox="0 0 401.55 457.62">
  <defs>
    <style>
      .cls-1 {
        fill: #e8ec94;
      }
    </style>
  </defs>
  <g id="Layer_1-2" data-name="Layer 1">
    <path class="cls-1" d="M1.59,0C134.71,73.16,267.51,146.92,401.55,220.79,267.34,299.98,134.1,378.61,.2,457.62c0-2.36,0-4.76,0-7.15,0-54.5,0-109-.02-163.5,0-5.5,.01-11-.18-16.5-.16-4.55,1.39-6.46,6.37-6.4,20,.26,40.02,.25,60.02,0,4.66-.06,5.7,1.81,5.63,5.88-.27,16.32-.41,32.64-.52,48.96-.01,2.06,.43,4.12,.78,7.25,58.09-34.28,115.28-68.02,173.76-102.53-58.24-31.73-114.43-64.07-173.23-93.84-.31,3.05-.66,4.93-.67,6.8-.04,16.17-.02,32.33-.01,48.5,0,5.79-.83,6.77-6.54,6.76-20.31-.04-40.63-.2-60.94-.24-2.91,0-4.35-1.18-4.36-4.08,0-1-.01-2-.01-3-.03-59-.06-118-.09-177,0-2.11,0-4.22,0-6.33L1.59,0Z"/>
  </g>
</svg>